<svg width="500" height="500" viewBox="0 0 500 500" fill="none" xmlns="http://www.w3.org/2000/svg">
<g style="mix-blend-mode:luminosity">
<path d="M233.477 324.196V106H290.815C314.269 106 331.985 110.796 343.961 120.387C356.038 129.878 362.076 143.715 362.076 161.898C362.076 175.085 358.733 186.025 352.046 194.717C345.359 203.409 335.927 208.954 323.751 211.351C337.524 213.15 349.002 219.144 358.184 229.335C367.366 239.425 371.957 251.014 371.957 264.102C371.957 282.685 365.919 297.371 353.842 308.161C341.865 318.851 325.148 324.196 303.69 324.196H233.477ZM241.561 216.447V316.103H304.588C323.052 316.103 337.524 311.558 348.003 302.466C358.583 293.275 363.873 280.587 363.873 264.402C363.873 250.615 358.782 239.275 348.602 230.384C338.422 221.392 324.799 216.746 307.732 216.447H241.561ZM241.561 208.354H293.809C313.67 208.354 328.641 204.558 338.722 196.965C348.802 189.272 353.842 177.383 353.842 161.298C353.842 130.327 333.432 114.592 292.611 114.092H241.561V208.354Z" fill="#7D7D7D"/>
<rect width="8.17596" height="218.196" transform="matrix(-1 0 0 1 241.652 106)" fill="#0055A5"/>
<path d="M233.56 216.565V298.135H240.63V106H181.059C161.594 106 146.494 111.966 135.758 121.854C124.935 131.655 119.523 145.306 119.523 162.807C119.523 180.133 124.804 193.522 135.365 202.972C145.84 212.423 160.765 216.39 180.142 216.565H233.56ZM233.56 208.199H181.059C163.864 208.199 150.509 206.166 140.995 197.853C131.394 189.54 126.593 177.946 126.593 163.07C126.593 147.669 131.394 135.68 140.995 127.105C150.509 118.442 163.864 114.11 181.059 114.11H233.56V208.199Z" fill="#0055A5"/>
<mask id="path-4-outside-1_2535_107" maskUnits="userSpaceOnUse" x="45" y="336.238" width="409" height="60" fill="black">
<rect fill="white" x="45" y="336.238" width="409" height="60"/>
<path d="M47 392.844V348.474H61.3173C71.6922 348.474 76.8796 351.91 76.8796 358.78C76.8796 361.408 75.9804 363.679 74.1821 365.593C72.4069 367.483 69.9169 368.832 66.7122 369.639C74.943 371.322 79.0583 375.23 79.0583 381.363C79.0583 384.867 77.8479 387.611 75.4271 389.593C73.8594 390.908 72.0726 391.784 70.0668 392.222C68.061 392.637 64.8332 392.844 60.3836 392.844H47ZM53.8128 367.668H56.199C65.375 367.668 69.963 365.109 69.963 359.99C69.963 357.477 69.0754 355.783 67.3001 354.907C65.5249 354.031 62.0897 353.593 56.9944 353.593H53.8128V367.668ZM53.8128 387.726H59.9686C64.4643 387.726 67.5538 387.265 69.2368 386.343C70.9429 385.42 71.7959 383.726 71.7959 381.259C71.7959 378.4 70.4011 376.129 67.6114 374.446C64.8448 372.763 61.0752 371.922 56.3028 371.922H53.8128V387.726Z"/>
<path d="M119.659 355.287V392.844H112.846V385.789C109.71 391.069 105.434 393.709 100.016 393.709C92.9145 393.709 89.364 389.467 89.364 380.982V355.287H96.1768V379.115C96.1768 382.066 96.6264 384.164 97.5256 385.409C98.4247 386.631 99.9579 387.242 102.125 387.242C105.537 387.242 109.111 384.775 112.846 379.841V355.287H119.659Z"/>
<path d="M136.604 392.844V355.287H143.417V362.342C146.875 357.085 151.521 354.457 157.354 354.457C159.406 354.457 161.734 354.745 164.34 355.322V365.973H159.221V360.751C158.207 360.521 157.285 360.405 156.455 360.405C153.85 360.405 151.556 361.016 149.573 362.238C147.613 363.437 145.561 365.489 143.417 368.394V392.844H136.604Z"/>
<path d="M206.6 391.357C201.874 392.925 197.539 393.709 193.597 393.709C187.141 393.709 182.173 392.049 178.692 388.729C175.233 385.409 173.504 380.659 173.504 374.481C173.504 368.648 175.164 363.852 178.484 360.094C181.827 356.336 186.069 354.457 191.211 354.457C196.398 354.457 200.214 356.013 202.658 359.126C205.124 362.238 206.358 367.08 206.358 373.651V375.829H180.767C181.274 384.337 185.862 388.59 194.531 388.59C198.196 388.59 202.219 387.714 206.6 385.962V391.357ZM180.974 370.711H199.095V369.743C199.095 362.965 196.271 359.575 190.623 359.575C187.902 359.575 185.689 360.555 183.983 362.515C182.3 364.475 181.297 367.207 180.974 370.711Z"/>
<path d="M240.18 388.314C236.053 391.772 231.938 393.501 227.834 393.501C224.399 393.501 221.563 392.521 219.326 390.562C217.113 388.602 216.006 386.124 216.006 383.126C216.006 379.23 217.736 376.095 221.194 373.72C224.652 371.345 229.217 370.158 234.889 370.158H239.108V366.942C239.108 364.29 238.52 362.4 237.344 361.27C236.168 360.14 234.22 359.575 231.5 359.575C227.557 359.575 223.476 360.682 219.257 362.895V357.051C224.099 355.322 228.641 354.457 232.883 354.457C237.655 354.457 241.021 355.402 242.981 357.293C244.964 359.183 245.955 362.446 245.955 367.08V382.815C245.955 385.075 246.197 386.619 246.681 387.449C247.166 388.256 248.076 388.66 249.414 388.66C249.852 388.66 250.566 388.544 251.558 388.314L252.18 392.395C249.898 393.132 248.169 393.501 246.993 393.501C243.627 393.501 241.356 391.772 240.18 388.314ZM239.108 383.887V374.411H237.067C227.73 374.411 223.061 376.936 223.061 381.985C223.061 383.806 223.661 385.27 224.86 386.377C226.059 387.484 227.649 388.037 229.632 388.037C232.606 388.037 235.765 386.654 239.108 383.887Z"/>
<path d="M290.36 355.287V392.844H283.547V385.789C280.411 391.069 276.135 393.709 270.717 393.709C263.616 393.709 260.065 389.467 260.065 380.982V355.287H266.878V379.115C266.878 382.066 267.327 384.164 268.227 385.409C269.126 386.631 270.659 387.242 272.826 387.242C276.238 387.242 279.812 384.775 283.547 379.841V355.287H290.36Z"/>
<path d="M347.214 392.844V348.474H361.635C366.776 348.474 370.442 348.935 372.632 349.858C377.105 351.794 379.341 355.529 379.341 361.062C379.341 365.72 377.532 369.374 373.912 372.025C370.315 374.677 365.347 376.002 359.007 376.002H354.027V392.844H347.214ZM354.027 370.884H358.28C367.503 370.884 372.114 367.656 372.114 361.201C372.114 358.48 371.237 356.532 369.485 355.356C367.756 354.18 364.863 353.593 360.805 353.593H354.027V370.884Z"/>
<path d="M388.298 392.844V338.238H395.111V362.342C398.247 357.085 402.512 354.457 407.907 354.457C415.031 354.457 418.593 358.688 418.593 367.149V392.844H411.78V369.017C411.78 366.089 411.319 364.014 410.397 362.792C409.498 361.547 407.976 360.924 405.832 360.924C402.42 360.924 398.846 363.38 395.111 368.29V392.844H388.298Z"/>
<path d="M444.323 392.844V360.405H430.662V355.287H451.135V392.844H444.323ZM443.458 346.78V338.238H452V346.78H443.458Z"/>
</mask>
<path d="M47 392.844V348.474H61.3173C71.6922 348.474 76.8796 351.91 76.8796 358.78C76.8796 361.408 75.9804 363.679 74.1821 365.593C72.4069 367.483 69.9169 368.832 66.7122 369.639C74.943 371.322 79.0583 375.23 79.0583 381.363C79.0583 384.867 77.8479 387.611 75.4271 389.593C73.8594 390.908 72.0726 391.784 70.0668 392.222C68.061 392.637 64.8332 392.844 60.3836 392.844H47ZM53.8128 367.668H56.199C65.375 367.668 69.963 365.109 69.963 359.99C69.963 357.477 69.0754 355.783 67.3001 354.907C65.5249 354.031 62.0897 353.593 56.9944 353.593H53.8128V367.668ZM53.8128 387.726H59.9686C64.4643 387.726 67.5538 387.265 69.2368 386.343C70.9429 385.42 71.7959 383.726 71.7959 381.259C71.7959 378.4 70.4011 376.129 67.6114 374.446C64.8448 372.763 61.0752 371.922 56.3028 371.922H53.8128V387.726Z" fill="#E66131"/>
<path d="M119.659 355.287V392.844H112.846V385.789C109.71 391.069 105.434 393.709 100.016 393.709C92.9145 393.709 89.364 389.467 89.364 380.982V355.287H96.1768V379.115C96.1768 382.066 96.6264 384.164 97.5256 385.409C98.4247 386.631 99.9579 387.242 102.125 387.242C105.537 387.242 109.111 384.775 112.846 379.841V355.287H119.659Z" fill="#E66131"/>
<path d="M136.604 392.844V355.287H143.417V362.342C146.875 357.085 151.521 354.457 157.354 354.457C159.406 354.457 161.734 354.745 164.34 355.322V365.973H159.221V360.751C158.207 360.521 157.285 360.405 156.455 360.405C153.85 360.405 151.556 361.016 149.573 362.238C147.613 363.437 145.561 365.489 143.417 368.394V392.844H136.604Z" fill="#E66131"/>
<path d="M206.6 391.357C201.874 392.925 197.539 393.709 193.597 393.709C187.141 393.709 182.173 392.049 178.692 388.729C175.233 385.409 173.504 380.659 173.504 374.481C173.504 368.648 175.164 363.852 178.484 360.094C181.827 356.336 186.069 354.457 191.211 354.457C196.398 354.457 200.214 356.013 202.658 359.126C205.124 362.238 206.358 367.08 206.358 373.651V375.829H180.767C181.274 384.337 185.862 388.59 194.531 388.59C198.196 388.59 202.219 387.714 206.6 385.962V391.357ZM180.974 370.711H199.095V369.743C199.095 362.965 196.271 359.575 190.623 359.575C187.902 359.575 185.689 360.555 183.983 362.515C182.3 364.475 181.297 367.207 180.974 370.711Z" fill="#E66131"/>
<path d="M240.18 388.314C236.053 391.772 231.938 393.501 227.834 393.501C224.399 393.501 221.563 392.521 219.326 390.562C217.113 388.602 216.006 386.124 216.006 383.126C216.006 379.23 217.736 376.095 221.194 373.72C224.652 371.345 229.217 370.158 234.889 370.158H239.108V366.942C239.108 364.29 238.52 362.4 237.344 361.27C236.168 360.14 234.22 359.575 231.5 359.575C227.557 359.575 223.476 360.682 219.257 362.895V357.051C224.099 355.322 228.641 354.457 232.883 354.457C237.655 354.457 241.021 355.402 242.981 357.293C244.964 359.183 245.955 362.446 245.955 367.08V382.815C245.955 385.075 246.197 386.619 246.681 387.449C247.166 388.256 248.076 388.66 249.414 388.66C249.852 388.66 250.566 388.544 251.558 388.314L252.18 392.395C249.898 393.132 248.169 393.501 246.993 393.501C243.627 393.501 241.356 391.772 240.18 388.314ZM239.108 383.887V374.411H237.067C227.73 374.411 223.061 376.936 223.061 381.985C223.061 383.806 223.661 385.27 224.86 386.377C226.059 387.484 227.649 388.037 229.632 388.037C232.606 388.037 235.765 386.654 239.108 383.887Z" fill="#E66131"/>
<path d="M290.36 355.287V392.844H283.547V385.789C280.411 391.069 276.135 393.709 270.717 393.709C263.616 393.709 260.065 389.467 260.065 380.982V355.287H266.878V379.115C266.878 382.066 267.327 384.164 268.227 385.409C269.126 386.631 270.659 387.242 272.826 387.242C276.238 387.242 279.812 384.775 283.547 379.841V355.287H290.36Z" fill="#E66131"/>
<path d="M347.214 392.844V348.474H361.635C366.776 348.474 370.442 348.935 372.632 349.858C377.105 351.794 379.341 355.529 379.341 361.062C379.341 365.72 377.532 369.374 373.912 372.025C370.315 374.677 365.347 376.002 359.007 376.002H354.027V392.844H347.214ZM354.027 370.884H358.28C367.503 370.884 372.114 367.656 372.114 361.201C372.114 358.48 371.237 356.532 369.485 355.356C367.756 354.18 364.863 353.593 360.805 353.593H354.027V370.884Z" fill="#E66131"/>
<path d="M388.298 392.844V338.238H395.111V362.342C398.247 357.085 402.512 354.457 407.907 354.457C415.031 354.457 418.593 358.688 418.593 367.149V392.844H411.78V369.017C411.78 366.089 411.319 364.014 410.397 362.792C409.498 361.547 407.976 360.924 405.832 360.924C402.42 360.924 398.846 363.38 395.111 368.29V392.844H388.298Z" fill="#E66131"/>
<path d="M444.323 392.844V360.405H430.662V355.287H451.135V392.844H444.323ZM443.458 346.78V338.238H452V346.78H443.458Z" fill="#E66131"/>
<path d="M47 392.844V348.474H61.3173C71.6922 348.474 76.8796 351.91 76.8796 358.78C76.8796 361.408 75.9804 363.679 74.1821 365.593C72.4069 367.483 69.9169 368.832 66.7122 369.639C74.943 371.322 79.0583 375.23 79.0583 381.363C79.0583 384.867 77.8479 387.611 75.4271 389.593C73.8594 390.908 72.0726 391.784 70.0668 392.222C68.061 392.637 64.8332 392.844 60.3836 392.844H47ZM53.8128 367.668H56.199C65.375 367.668 69.963 365.109 69.963 359.99C69.963 357.477 69.0754 355.783 67.3001 354.907C65.5249 354.031 62.0897 353.593 56.9944 353.593H53.8128V367.668ZM53.8128 387.726H59.9686C64.4643 387.726 67.5538 387.265 69.2368 386.343C70.9429 385.42 71.7959 383.726 71.7959 381.259C71.7959 378.4 70.4011 376.129 67.6114 374.446C64.8448 372.763 61.0752 371.922 56.3028 371.922H53.8128V387.726Z" stroke="#E66131" stroke-width="4" mask="url(#path-4-outside-1_2535_107)"/>
<path d="M119.659 355.287V392.844H112.846V385.789C109.71 391.069 105.434 393.709 100.016 393.709C92.9145 393.709 89.364 389.467 89.364 380.982V355.287H96.1768V379.115C96.1768 382.066 96.6264 384.164 97.5256 385.409C98.4247 386.631 99.9579 387.242 102.125 387.242C105.537 387.242 109.111 384.775 112.846 379.841V355.287H119.659Z" stroke="#E66131" stroke-width="4" mask="url(#path-4-outside-1_2535_107)"/>
<path d="M136.604 392.844V355.287H143.417V362.342C146.875 357.085 151.521 354.457 157.354 354.457C159.406 354.457 161.734 354.745 164.34 355.322V365.973H159.221V360.751C158.207 360.521 157.285 360.405 156.455 360.405C153.85 360.405 151.556 361.016 149.573 362.238C147.613 363.437 145.561 365.489 143.417 368.394V392.844H136.604Z" stroke="#E66131" stroke-width="4" mask="url(#path-4-outside-1_2535_107)"/>
<path d="M206.6 391.357C201.874 392.925 197.539 393.709 193.597 393.709C187.141 393.709 182.173 392.049 178.692 388.729C175.233 385.409 173.504 380.659 173.504 374.481C173.504 368.648 175.164 363.852 178.484 360.094C181.827 356.336 186.069 354.457 191.211 354.457C196.398 354.457 200.214 356.013 202.658 359.126C205.124 362.238 206.358 367.08 206.358 373.651V375.829H180.767C181.274 384.337 185.862 388.59 194.531 388.59C198.196 388.59 202.219 387.714 206.6 385.962V391.357ZM180.974 370.711H199.095V369.743C199.095 362.965 196.271 359.575 190.623 359.575C187.902 359.575 185.689 360.555 183.983 362.515C182.3 364.475 181.297 367.207 180.974 370.711Z" stroke="#E66131" stroke-width="4" mask="url(#path-4-outside-1_2535_107)"/>
<path d="M240.18 388.314C236.053 391.772 231.938 393.501 227.834 393.501C224.399 393.501 221.563 392.521 219.326 390.562C217.113 388.602 216.006 386.124 216.006 383.126C216.006 379.23 217.736 376.095 221.194 373.72C224.652 371.345 229.217 370.158 234.889 370.158H239.108V366.942C239.108 364.29 238.52 362.4 237.344 361.27C236.168 360.14 234.22 359.575 231.5 359.575C227.557 359.575 223.476 360.682 219.257 362.895V357.051C224.099 355.322 228.641 354.457 232.883 354.457C237.655 354.457 241.021 355.402 242.981 357.293C244.964 359.183 245.955 362.446 245.955 367.08V382.815C245.955 385.075 246.197 386.619 246.681 387.449C247.166 388.256 248.076 388.66 249.414 388.66C249.852 388.66 250.566 388.544 251.558 388.314L252.18 392.395C249.898 393.132 248.169 393.501 246.993 393.501C243.627 393.501 241.356 391.772 240.18 388.314ZM239.108 383.887V374.411H237.067C227.73 374.411 223.061 376.936 223.061 381.985C223.061 383.806 223.661 385.27 224.86 386.377C226.059 387.484 227.649 388.037 229.632 388.037C232.606 388.037 235.765 386.654 239.108 383.887Z" stroke="#E66131" stroke-width="4" mask="url(#path-4-outside-1_2535_107)"/>
<path d="M290.36 355.287V392.844H283.547V385.789C280.411 391.069 276.135 393.709 270.717 393.709C263.616 393.709 260.065 389.467 260.065 380.982V355.287H266.878V379.115C266.878 382.066 267.327 384.164 268.227 385.409C269.126 386.631 270.659 387.242 272.826 387.242C276.238 387.242 279.812 384.775 283.547 379.841V355.287H290.36Z" stroke="#E66131" stroke-width="4" mask="url(#path-4-outside-1_2535_107)"/>
<path d="M347.214 392.844V348.474H361.635C366.776 348.474 370.442 348.935 372.632 349.858C377.105 351.794 379.341 355.529 379.341 361.062C379.341 365.72 377.532 369.374 373.912 372.025C370.315 374.677 365.347 376.002 359.007 376.002H354.027V392.844H347.214ZM354.027 370.884H358.28C367.503 370.884 372.114 367.656 372.114 361.201C372.114 358.48 371.237 356.532 369.485 355.356C367.756 354.18 364.863 353.593 360.805 353.593H354.027V370.884Z" stroke="#E66131" stroke-width="4" mask="url(#path-4-outside-1_2535_107)"/>
<path d="M388.298 392.844V338.238H395.111V362.342C398.247 357.085 402.512 354.457 407.907 354.457C415.031 354.457 418.593 358.688 418.593 367.149V392.844H411.78V369.017C411.78 366.089 411.319 364.014 410.397 362.792C409.498 361.547 407.976 360.924 405.832 360.924C402.42 360.924 398.846 363.38 395.111 368.29V392.844H388.298Z" stroke="#E66131" stroke-width="4" mask="url(#path-4-outside-1_2535_107)"/>
<path d="M444.323 392.844V360.405H430.662V355.287H451.135V392.844H444.323ZM443.458 346.78V338.238H452V346.78H443.458Z" stroke="#E66131" stroke-width="4" mask="url(#path-4-outside-1_2535_107)"/>
</g>
</svg>
