<svg width="500" height="500" viewBox="0 0 500 500" fill="none" xmlns="http://www.w3.org/2000/svg">
<g style="mix-blend-mode:luminosity">
<path d="M86.5621 278.722H47V277.773H52.3911V223.842H47V222.893H69.3936V223.842H62.3438V277.773H75.1164C77.5217 277.773 78.5999 277.14 79.3463 275.717L87.6403 259.427H88.6355L86.5621 278.722Z" fill="black"/>
<path d="M154.384 275.357L162.294 260.826H163.198L161.541 276.351C158.754 277.422 152.651 278.722 147.905 278.722C129.975 278.722 123.647 263.962 123.647 251.113C123.647 235.512 130.653 222.893 145.796 222.893C150.542 222.893 155.514 224.04 159.13 225.263L160.486 237.729H159.582L151.973 226.258C150.693 224.269 149.713 223.734 145.871 223.734C136.303 223.734 135.098 231.535 134.495 239.794C133.968 247.213 133.968 254.784 134.495 262.203C135.249 271.61 137.283 277.881 147.905 277.881C152.049 277.881 153.405 277.192 154.384 275.357Z" fill="black"/>
<path d="M212.234 277.804H193.777V276.887H198.824L192.044 256.62L184.635 261.67L177.429 256.62L170.498 276.887H177.429V277.804H165.827V276.887H169.443L187.976 222.893H189.934L208.618 276.887H212.234V277.804ZM184.812 235.359L177.73 255.702L184.635 260.753L191.743 255.702L184.962 235.359H184.812Z" fill="black"/>
<path d="M259.317 275.357L260.071 275.816C259.242 277.269 257.509 278.722 253.742 278.722C247.791 278.722 245.003 274.822 243.723 270.003C242.743 266.256 242.065 263.35 241.463 260.597C239.655 252.107 237.168 251.419 233.251 251.419H228.957V276.887H233.854V277.804H215.02V276.887H219.916V224.728H215.02V223.81H237.696C245.003 223.81 253.818 226.717 253.818 237.729C253.818 246.295 245.983 250.731 238.073 251.266V251.343C245.681 252.566 248.394 256.008 250.051 261.285C251.181 264.956 252.688 269.621 253.441 271.839C254.496 274.975 255.249 277.116 256.982 277.116C257.735 277.116 258.564 276.581 259.317 275.357ZM228.957 250.578H237.62C241.915 250.578 244.627 247.901 244.627 237.806C244.627 227.328 241.538 224.728 237.47 224.728H228.957V250.578Z" fill="black"/>
<path d="M315.938 277.804H297.104V276.887H302.001V228.017H301.85L286.331 265.338H284.824L269.682 228.017H269.531V276.887H275.935V277.804H263.655V276.887H268.552V224.728H263.655V223.81H277.517L289.797 254.096L302.453 223.81H315.938V224.728H311.041V276.887H315.938V277.804Z" fill="black"/>
<path d="M356.676 277.804H320.74V276.887H325.637V224.728H320.74V223.81H355.094L356.45 236.582H355.546L348.916 226.717C348.087 225.493 347.259 224.728 345.074 224.728H334.678V248.895H340.704C342.889 248.895 343.718 248.131 344.547 246.907L348.389 241.4H349.293L348.238 249.278V249.431L349.293 257.308H348.389L344.547 251.802C343.718 250.578 342.889 249.813 340.704 249.813H334.678V276.887H346.279C348.464 276.887 349.368 276.198 350.121 274.898L357.354 262.203H358.258L356.676 277.804Z" fill="black"/>
<path d="M400.377 277.804H364.441V276.887H369.338V224.728H364.441V223.81H384.782V224.728H378.378V276.887H389.98C392.165 276.887 393.144 276.275 393.822 274.898L401.356 259.144H402.26L400.377 277.804Z" fill="black"/>
<path d="M452 277.804H433.543V276.887H438.59L431.81 256.62L424.502 261.873L417.195 256.62L410.264 276.887H417.195V277.804H405.593V276.887H409.209L427.742 222.893H429.701L448.384 276.887H452V277.804ZM424.578 235.359L417.496 255.702L424.502 260.955L431.509 255.702L424.728 235.359H424.578Z" fill="black"/>
<path d="M99.9905 256.012H87.5708V255.427H90.9672L86.4048 242.504H76.5705L71.9068 255.427H76.5705V256.012H68.7638V255.427H71.1971L83.6675 221H84.9855L97.5572 255.427H99.9905V256.012ZM81.5384 228.948L76.7732 241.919H86.2021L81.6397 228.948H81.5384Z" fill="black"/>
</g>
</svg>
