<svg width="500" height="500" viewBox="0 0 500 500" fill="none" xmlns="http://www.w3.org/2000/svg">
<g style="mix-blend-mode:luminosity">
<path d="M68.6984 147.568L66.8047 148.741V150.969V354.282V356.558L68.7603 357.721L247.918 464.25L249.966 465.469L252.013 464.247L430.418 357.717L432.368 356.553V354.282V150.969V148.746L430.48 147.572L252.075 36.6034L249.966 35.2921L247.856 36.5995L68.6984 147.568Z" stroke="#353535" stroke-width="8"/>
<path d="M84.448 157.192L81.3047 159.087V162.758V341.88V345.627L84.5481 347.505L246.667 441.359L249.931 443.248L253.191 441.353L414.629 347.499L417.863 345.619V341.88V162.758V159.095L414.73 157.198L253.291 59.4337L249.931 57.399L246.567 59.4274L84.448 157.192Z" stroke="#353535" stroke-width="13"/>
<g filter="url(#filter0_d_2535_107)">
<rect x="47" y="162.418" width="405" height="149.282" fill="#DA292A"/>
</g>
<path d="M47 311.7H66.3829V338.224L47 311.7Z" fill="#353535"/>
<path d="M452 311.7H432.617V338.224L452 311.7Z" fill="#353535"/>
<path d="M105.284 212.867H116.906C116.751 216.232 115.844 219.198 114.183 221.766C112.523 224.335 110.221 226.338 107.276 227.777C104.354 229.194 100.9 229.902 96.9151 229.902C93.6829 229.902 90.7938 229.36 88.2478 228.275C85.724 227.19 83.5766 225.63 81.8055 223.593C80.0565 221.556 78.7171 219.088 77.7873 216.187C76.8796 213.287 76.4258 210.022 76.4258 206.391V203.768C76.4258 200.137 76.9018 196.871 77.8537 193.971C78.8278 191.049 80.2004 188.569 81.9715 186.533C83.7648 184.474 85.9122 182.902 88.4139 181.817C90.9156 180.732 93.694 180.19 96.7491 180.19C100.955 180.19 104.509 180.943 107.409 182.448C110.309 183.954 112.556 186.023 114.15 188.658C115.744 191.27 116.685 194.248 116.973 197.591H105.35C105.306 195.776 104.996 194.259 104.42 193.041C103.845 191.802 102.937 190.872 101.697 190.252C100.457 189.632 98.808 189.322 96.7491 189.322C95.3101 189.322 94.0593 189.588 92.9966 190.119C91.9339 190.65 91.0484 191.492 90.34 192.643C89.6315 193.794 89.1002 195.289 88.746 197.126C88.4139 198.941 88.2478 201.133 88.2478 203.701V206.391C88.2478 208.959 88.4028 211.151 88.7128 212.966C89.0227 214.782 89.5208 216.265 90.2071 217.416C90.8934 218.567 91.779 219.42 92.8638 219.973C93.9707 220.505 95.3212 220.77 96.9151 220.77C98.6862 220.77 100.181 220.493 101.398 219.94C102.616 219.364 103.557 218.501 104.221 217.35C104.885 216.176 105.239 214.682 105.284 212.867Z" fill="white"/>
<path d="M142.908 191.049L131.119 229.238H118.6L136.366 180.887H144.303L142.908 191.049ZM152.671 229.238L140.849 191.049L139.322 180.887H147.358L165.224 229.238H152.671ZM152.207 211.206V220.206H127.4V211.206H152.207Z" fill="white"/>
<path d="M168.777 180.887H187.806C191.525 180.887 194.757 181.441 197.502 182.548C200.248 183.655 202.362 185.293 203.845 187.463C205.35 189.632 206.103 192.311 206.103 195.499C206.103 198.266 205.671 200.58 204.808 202.439C203.945 204.299 202.738 205.838 201.188 207.055C199.661 208.251 197.879 209.236 195.842 210.011L192.023 212.169H176.05L175.984 203.17H187.806C189.289 203.17 190.518 202.904 191.492 202.373C192.466 201.842 193.196 201.089 193.683 200.115C194.193 199.119 194.447 197.934 194.447 196.562C194.447 195.167 194.193 193.971 193.683 192.975C193.174 191.979 192.421 191.215 191.425 190.684C190.451 190.152 189.245 189.887 187.806 189.887H180.433V229.238H168.777V180.887ZM195.244 229.238L184.551 207.852L196.905 207.786L207.73 228.74V229.238H195.244Z" fill="white"/>
<path d="M253.524 180.887V229.238H241.901L224.799 199.152V229.238H213.143V180.887H224.799L241.901 210.974V180.887H253.524Z" fill="white"/>
<path d="M273.283 180.887V229.238H261.66V180.887H273.283Z" fill="white"/>
<path d="M308.982 212.867H320.605C320.45 216.232 319.542 219.198 317.881 221.766C316.221 224.335 313.919 226.338 310.974 227.777C308.052 229.194 304.598 229.902 300.613 229.902C297.381 229.902 294.492 229.36 291.946 228.275C289.422 227.19 287.275 225.63 285.504 223.593C283.755 221.556 282.415 219.088 281.485 216.187C280.578 213.287 280.124 210.022 280.124 206.391V203.768C280.124 200.137 280.6 196.871 281.552 193.971C282.526 191.049 283.899 188.569 285.67 186.533C287.463 184.474 289.61 182.902 292.112 181.817C294.614 180.732 297.392 180.19 300.447 180.19C304.654 180.19 308.207 180.943 311.107 182.448C314.007 183.954 316.254 186.023 317.848 188.658C319.442 191.27 320.383 194.248 320.671 197.591H309.048C309.004 195.776 308.694 194.259 308.118 193.041C307.543 191.802 306.635 190.872 305.395 190.252C304.155 189.632 302.506 189.322 300.447 189.322C299.008 189.322 297.757 189.588 296.695 190.119C295.632 190.65 294.747 191.492 294.038 192.643C293.33 193.794 292.798 195.289 292.444 197.126C292.112 198.941 291.946 201.133 291.946 203.701V206.391C291.946 208.959 292.101 211.151 292.411 212.966C292.721 214.782 293.219 216.265 293.905 217.416C294.592 218.567 295.477 219.42 296.562 219.973C297.669 220.505 299.019 220.77 300.613 220.77C302.384 220.77 303.879 220.493 305.096 219.94C306.314 219.364 307.255 218.501 307.919 217.35C308.583 216.176 308.937 214.682 308.982 212.867Z" fill="white"/>
<path d="M346.606 191.049L334.818 229.238H322.298L340.064 180.887H348.001L346.606 191.049ZM356.37 229.238L344.548 191.049L343.02 180.887H351.056L368.922 229.238H356.37ZM355.905 211.206V220.206H331.098V211.206H355.905Z" fill="white"/>
<path d="M397.382 216.387C397.382 215.634 397.271 214.959 397.049 214.361C396.828 213.741 396.419 213.166 395.821 212.634C395.223 212.103 394.36 211.572 393.231 211.04C392.124 210.487 390.662 209.911 388.847 209.313C386.722 208.605 384.674 207.808 382.704 206.922C380.733 206.015 378.973 204.963 377.424 203.768C375.874 202.55 374.645 201.133 373.737 199.517C372.83 197.879 372.376 195.975 372.376 193.805C372.376 191.724 372.841 189.853 373.771 188.193C374.7 186.511 375.996 185.083 377.656 183.909C379.339 182.714 381.309 181.806 383.567 181.186C385.825 180.544 388.294 180.223 390.972 180.223C394.515 180.223 397.636 180.843 400.337 182.083C403.06 183.3 405.185 185.038 406.713 187.296C408.263 189.532 409.038 192.178 409.038 195.233H397.448C397.448 194.016 397.193 192.942 396.684 192.012C396.197 191.082 395.455 190.352 394.459 189.82C393.463 189.289 392.212 189.023 390.707 189.023C389.246 189.023 388.017 189.245 387.021 189.687C386.024 190.13 385.272 190.728 384.762 191.481C384.253 192.211 383.999 193.019 383.999 193.905C383.999 194.635 384.198 195.3 384.596 195.897C385.017 196.473 385.604 197.015 386.356 197.525C387.131 198.034 388.061 198.521 389.146 198.986C390.253 199.451 391.493 199.904 392.865 200.347C395.433 201.166 397.714 202.085 399.706 203.103C401.721 204.1 403.414 205.24 404.787 206.524C406.182 207.786 407.233 209.225 407.942 210.841C408.672 212.457 409.038 214.284 409.038 216.32C409.038 218.49 408.617 220.416 407.776 222.098C406.934 223.781 405.728 225.209 404.156 226.382C402.584 227.534 400.702 228.408 398.511 229.006C396.319 229.604 393.873 229.902 391.172 229.902C388.692 229.902 386.246 229.592 383.833 228.973C381.442 228.331 379.272 227.356 377.324 226.05C375.376 224.722 373.815 223.028 372.642 220.969C371.49 218.888 370.915 216.42 370.915 213.564H382.604C382.604 214.981 382.792 216.176 383.169 217.15C383.545 218.125 384.098 218.911 384.829 219.508C385.559 220.084 386.456 220.505 387.519 220.77C388.581 221.014 389.799 221.135 391.172 221.135C392.655 221.135 393.85 220.925 394.758 220.505C395.666 220.062 396.33 219.486 396.751 218.778C397.171 218.047 397.382 217.25 397.382 216.387Z" fill="white"/>
<path d="M204.808 288.792V297.758H180.367V288.792H204.808ZM184.518 249.407V297.758H172.862V249.407H184.518Z" fill="white"/>
<path d="M222.109 249.407V297.758H210.487V249.407H222.109Z" fill="white"/>
<path d="M236.09 249.407H245.588L256.38 283.047L267.173 249.407H276.67L260.232 297.758H252.528L236.09 249.407ZM230.312 249.407H240.141L241.968 286.468V297.758H230.312V249.407ZM272.619 249.407H282.482V297.758H270.792V286.468L272.619 249.407Z" fill="white"/>
<path d="M311.041 259.569L299.252 297.758H286.732L304.499 249.407H312.435L311.041 259.569ZM320.804 297.758L308.982 259.569L307.454 249.407H315.491L333.356 297.758H320.804ZM320.339 279.726V288.726H295.532V279.726H320.339Z" fill="white"/>
<path d="M184.335 363.694C182.828 363.694 181.677 363.297 180.884 362.504C180.09 361.71 179.555 360.699 179.277 359.469C178.999 358.239 178.821 356.969 178.742 355.66C178.742 354.907 178.781 354.014 178.861 352.982C178.94 351.951 179.039 350.959 179.158 350.007C179.317 349.015 179.436 348.281 179.515 347.805H165.888C163.349 350.463 160.929 353.062 158.628 355.601C156.366 358.1 154.145 360.639 151.963 363.218H146.012C147.043 362.266 148.392 360.996 150.058 359.409C151.764 357.783 153.688 355.938 155.831 353.875C157.973 351.812 160.195 349.63 162.496 347.329C164.836 344.988 167.177 342.648 169.518 340.307C171.858 337.927 174.06 335.646 176.123 333.464C178.226 331.242 180.09 329.238 181.717 327.453C182.51 326.58 183.244 325.708 183.919 324.835C184.633 323.922 185.426 323.168 186.299 322.573C187.172 321.978 188.243 321.681 189.513 321.681H193.797C193.123 322.316 192.448 323.387 191.774 324.894C191.1 326.402 190.485 328.028 189.929 329.774C189.413 331.52 188.977 333.106 188.62 334.535C188.104 336.677 187.569 338.998 187.013 341.497C186.498 343.997 186.081 346.476 185.764 348.936C185.446 351.396 185.347 353.677 185.466 355.779C185.506 356.533 185.645 357.327 185.883 358.16C186.16 358.953 186.537 359.647 187.013 360.242C187.529 360.798 188.164 361.076 188.918 361.076C189.592 361.076 190.326 360.818 191.119 360.302L191.476 360.838C190.961 361.631 189.969 362.305 188.501 362.861C187.073 363.416 185.684 363.694 184.335 363.694ZM160.532 333.523C159.897 332.849 159.421 332.154 159.104 331.44C158.826 330.726 158.687 330.052 158.687 329.417C158.687 328.623 158.846 327.87 159.163 327.156C159.52 326.402 159.937 325.767 160.413 325.251C161.365 324.18 162.555 323.387 163.983 322.871C165.412 322.355 166.919 322.038 168.506 321.919C170.133 321.76 171.68 321.681 173.148 321.681H186.478C185.645 322.514 184.375 323.168 182.669 323.645C181.003 324.081 179.178 324.418 177.194 324.656C175.211 324.855 173.287 325.053 171.422 325.251C169.597 325.41 168.089 325.628 166.899 325.906C164.797 326.382 163.19 327.294 162.079 328.643C161.008 329.992 160.492 331.619 160.532 333.523ZM168.506 344.83H179.932C180.408 342.211 180.963 339.593 181.598 336.975C182.272 334.356 182.868 332.055 183.383 330.072C180.963 332.373 178.484 334.773 175.945 337.272C173.445 339.732 170.966 342.251 168.506 344.83Z" fill="black"/>
<path d="M194.868 363.575C193.837 363.575 192.984 363.099 192.31 362.147C191.675 361.155 191.437 359.628 191.595 357.565C191.675 356.692 191.873 355.581 192.191 354.232C192.508 352.883 192.925 351.435 193.44 349.888C193.996 348.301 194.611 346.774 195.285 345.306C195.959 343.798 196.693 342.469 197.487 341.319C197.923 340.724 198.36 340.367 198.796 340.248C199.272 340.089 200.125 340.009 201.355 340.009H204.211C203.537 340.962 202.823 342.152 202.069 343.58C201.315 345.008 200.621 346.436 199.986 347.865C199.351 349.253 198.856 350.424 198.498 351.376C198.419 351.653 198.26 352.149 198.022 352.863C197.784 353.538 197.566 354.292 197.368 355.125C197.169 355.958 197.07 356.731 197.07 357.446C197.07 358.08 197.189 358.616 197.427 359.052C197.665 359.489 198.102 359.707 198.737 359.707C199.49 359.667 200.304 359.191 201.176 358.279C202.049 357.366 202.922 356.196 203.795 354.768C204.668 353.339 205.521 351.852 206.354 350.305C207.226 348.718 208 347.25 208.675 345.901C209.389 344.512 209.984 343.441 210.46 342.687C211.055 341.775 211.69 340.981 212.364 340.307C213.038 339.593 213.812 339.236 214.685 339.236C215.002 339.236 215.419 339.256 215.935 339.295C216.49 339.295 217.026 339.295 217.541 339.295C218.097 339.295 218.474 339.276 218.672 339.236C218.434 339.395 218.156 339.712 217.839 340.188C217.521 340.664 217.204 341.16 216.887 341.676C216.609 342.152 216.391 342.549 216.232 342.866C215.201 344.929 214.189 347.012 213.197 349.114C212.245 351.177 211.531 353.141 211.055 355.006C210.856 355.72 210.757 356.335 210.757 356.85C210.757 358.041 211.154 358.636 211.947 358.636C212.503 358.636 213.296 358.239 214.328 357.446C215.121 356.811 215.895 355.998 216.649 355.006C217.482 353.974 218.255 352.863 218.97 351.673C219.684 350.483 220.299 349.392 220.814 348.4C220.973 348.123 221.112 347.984 221.231 347.984C221.469 347.984 221.588 348.301 221.588 348.936C221.588 349.253 221.528 349.63 221.409 350.066C221.33 350.463 221.171 350.86 220.933 351.257C220.378 352.209 219.723 353.26 218.97 354.411C218.216 355.521 217.442 356.632 216.649 357.743C216.093 358.457 215.359 359.271 214.447 360.183C213.534 361.095 212.562 361.889 211.531 362.563C210.539 363.238 209.567 363.575 208.615 363.575C208.06 363.575 207.544 363.456 207.068 363.218C206.592 363.02 206.195 362.603 205.878 361.968C205.481 361.135 205.282 360.004 205.282 358.576C205.282 358.14 205.302 357.684 205.342 357.208C205.382 356.692 205.441 356.176 205.521 355.66C204.925 356.493 204.291 357.267 203.616 357.981C202.981 358.695 202.327 359.409 201.652 360.123C200.145 361.631 198.856 362.583 197.784 362.98C196.753 363.377 195.781 363.575 194.868 363.575Z" fill="black"/>
<path d="M223.505 363.575C222.355 363.575 221.482 363.119 220.887 362.206C220.609 361.77 220.411 361.254 220.292 360.659C220.173 360.064 220.113 359.449 220.113 358.814C220.113 358.18 220.153 357.545 220.232 356.91C220.312 356.236 220.411 355.581 220.53 354.946C220.728 353.915 220.946 352.982 221.184 352.149C221.462 351.276 221.74 350.443 222.017 349.65V349.59C221.7 350.185 221.303 350.84 220.827 351.554C220.351 352.229 220.014 352.725 219.816 353.042C219.538 353.478 219.32 353.697 219.161 353.697C219.002 353.697 218.923 353.518 218.923 353.161C218.923 352.367 219.161 351.495 219.637 350.543C219.955 349.908 220.391 349.094 220.946 348.103C221.502 347.071 222.077 345.96 222.672 344.77C223.267 343.58 223.783 342.43 224.219 341.319H220.232C220.034 341.319 219.994 341.16 220.113 340.843C220.232 340.525 220.411 340.228 220.649 339.95C220.887 339.633 221.065 339.474 221.184 339.474H225.707C226.143 338.442 226.639 337.332 227.195 336.141C227.79 334.951 228.444 333.84 229.159 332.809C229.912 331.738 230.726 330.865 231.598 330.191C232.471 329.516 233.404 329.179 234.395 329.179C234.832 329.179 235.367 329.179 236.002 329.179C236.676 329.179 237.093 329.159 237.252 329.119C236.419 329.675 235.447 330.786 234.336 332.452C233.225 334.078 232.015 336.419 230.706 339.474H236.716C236.835 339.474 236.796 339.633 236.597 339.95C236.399 340.228 236.141 340.525 235.824 340.843C235.546 341.16 235.268 341.319 234.99 341.319H229.873C229.357 342.628 228.782 344.056 228.147 345.603C227.552 347.151 226.996 348.678 226.481 350.185C226.005 351.653 225.648 353.002 225.409 354.232C225.251 354.986 225.171 355.68 225.171 356.315C225.171 357.822 225.648 358.576 226.6 358.576C227.234 358.576 227.988 358.259 228.861 357.624C229.734 356.989 230.607 356.117 231.479 355.006C232.273 353.974 233.027 352.863 233.741 351.673C234.495 350.483 235.129 349.392 235.645 348.4C235.804 348.123 235.943 347.984 236.062 347.984C236.3 347.984 236.419 348.301 236.419 348.936C236.419 349.253 236.359 349.63 236.24 350.066C236.161 350.463 236.002 350.86 235.764 351.257C235.209 352.209 234.554 353.26 233.8 354.411C233.046 355.521 232.273 356.632 231.479 357.743C230.924 358.457 230.19 359.271 229.278 360.183C228.405 361.095 227.453 361.889 226.421 362.563C225.429 363.238 224.457 363.575 223.505 363.575Z" fill="black"/>
<path d="M249.452 363.575C248.104 363.575 247.171 363.178 246.656 362.385C246.179 361.552 245.941 360.6 245.941 359.528C245.941 358.378 246.12 357.049 246.477 355.541C246.874 353.994 247.35 352.407 247.905 350.781C248.5 349.114 249.095 347.567 249.69 346.139C249.889 345.663 250.067 345.147 250.226 344.592C250.424 344.036 250.524 343.54 250.524 343.104C250.524 342.31 250.167 341.914 249.452 341.914C249.175 341.914 248.857 341.973 248.5 342.092C248.143 342.172 247.727 342.35 247.251 342.628C246.417 343.025 245.624 343.58 244.87 344.294C244.116 344.969 243.601 345.484 243.323 345.841C242.807 346.476 242.311 347.19 241.835 347.984C241.359 348.737 240.943 349.511 240.586 350.305C239.792 352.01 239.157 353.637 238.681 355.184C238.245 356.692 237.828 357.981 237.432 359.052C237.194 359.727 236.956 360.421 236.718 361.135C236.48 361.849 236.261 362.543 236.063 363.218H230.291C230.291 363.218 230.429 362.722 230.707 361.73C230.985 360.738 231.322 359.747 231.719 358.755C233.544 354.034 235.27 349.214 236.896 344.294C238.523 339.375 240.486 334.654 242.787 330.131C243.819 328.108 244.93 326.243 246.12 324.537C247.35 322.831 248.639 321.482 249.988 320.491C251.377 319.459 252.825 318.943 254.332 318.943C255.522 318.943 256.336 319.221 256.772 319.776C257.248 320.292 257.486 320.947 257.486 321.74C257.486 322.613 257.308 323.526 256.951 324.478C256.594 325.43 256.236 326.243 255.879 326.918C255.165 328.346 254.233 329.952 253.082 331.738C251.932 333.523 250.722 335.189 249.452 336.736C249.175 337.094 248.699 337.669 248.024 338.462C247.35 339.216 246.656 339.99 245.941 340.783C245.267 341.577 244.731 342.191 244.335 342.628C245.644 341.676 246.775 340.942 247.727 340.426C248.679 339.91 249.492 339.553 250.167 339.355C251.317 339.038 252.269 338.879 253.023 338.879C255.284 338.879 256.415 339.871 256.415 341.854C256.415 342.687 256.177 343.679 255.701 344.83C255.463 345.464 255.126 346.317 254.689 347.389C254.253 348.46 253.797 349.61 253.321 350.84C252.884 352.03 252.507 353.181 252.19 354.292C251.912 355.402 251.773 356.315 251.773 357.029C251.773 357.465 251.833 357.862 251.952 358.219C252.111 358.537 252.388 358.695 252.785 358.695C253.063 358.695 253.459 358.556 253.975 358.279C255.086 357.644 256.117 356.751 257.07 355.601C258.061 354.45 258.934 353.22 259.688 351.911C260.481 350.602 261.156 349.412 261.711 348.341C261.83 348.063 261.969 347.924 262.128 347.924C262.326 347.924 262.425 348.261 262.425 348.936C262.425 349.253 262.386 349.63 262.306 350.066C262.227 350.463 262.068 350.86 261.83 351.257C261.275 352.209 260.541 353.379 259.628 354.768C258.756 356.156 257.764 357.525 256.653 358.874C255.542 360.183 254.372 361.294 253.142 362.206C251.912 363.119 250.682 363.575 249.452 363.575ZM242.609 342.211C244.593 339.871 246.596 337.371 248.619 334.713C250.682 332.015 252.388 329.278 253.737 326.501C253.816 326.303 253.995 325.906 254.273 325.311C254.55 324.716 254.808 324.061 255.046 323.347C255.284 322.593 255.403 321.958 255.403 321.443C255.403 320.768 255.145 320.431 254.63 320.431C254.114 320.431 253.499 320.788 252.785 321.502C252.111 322.216 251.416 323.168 250.702 324.359C249.79 325.866 248.857 327.612 247.905 329.595C246.953 331.539 246.021 333.602 245.108 335.784C244.236 337.966 243.402 340.109 242.609 342.211Z" fill="black"/>
<path d="M273.463 362.385C271.638 363.337 269.714 363.813 267.691 363.813C265.985 363.813 264.398 363.396 262.93 362.563C261.462 361.73 260.47 360.401 259.954 358.576C259.716 357.743 259.597 356.87 259.597 355.958C259.597 354.45 259.855 352.903 260.371 351.316C260.926 349.69 261.64 348.202 262.513 346.853C263.862 344.75 265.568 343.005 267.631 341.616C269.694 340.228 271.975 339.533 274.475 339.533C276.339 339.533 277.787 340.009 278.819 340.962C279.85 341.914 280.366 343.025 280.366 344.294C280.366 345.802 279.85 347.131 278.819 348.281C277.827 349.392 276.518 350.245 274.891 350.84C274.098 351.118 273.245 351.336 272.332 351.495C271.459 351.614 270.626 351.673 269.833 351.673C268.206 351.673 266.957 351.455 266.084 351.019C265.33 352.963 264.953 354.748 264.953 356.374C264.953 357.842 265.29 359.052 265.965 360.004C266.639 360.917 267.71 361.373 269.178 361.373C270.408 361.373 271.618 361.036 272.808 360.361C274.038 359.687 275.169 358.854 276.2 357.862C277.271 356.87 278.164 355.918 278.878 355.006C279.434 354.331 279.91 353.697 280.306 353.101C280.703 352.506 281.12 351.832 281.556 351.078C281.992 350.285 282.508 349.313 283.103 348.162C283.262 347.884 283.401 347.746 283.52 347.746C283.758 347.746 283.877 348.063 283.877 348.698C283.877 349.055 283.817 349.452 283.698 349.888C283.619 350.285 283.46 350.701 283.222 351.138C282.667 352.129 281.992 353.22 281.199 354.411C280.445 355.561 279.672 356.672 278.878 357.743C278.164 358.695 277.351 359.568 276.438 360.361C275.526 361.155 274.534 361.829 273.463 362.385ZM268.048 349.709C268.246 349.828 268.464 349.908 268.702 349.947C268.94 349.987 269.178 350.007 269.416 350.007C270.21 350.007 271.003 349.828 271.797 349.471C272.59 349.075 273.264 348.678 273.82 348.281C274.732 347.646 275.506 346.893 276.141 346.02C276.776 345.147 277.133 344.155 277.212 343.044C277.252 342.568 277.133 342.172 276.855 341.854C276.617 341.497 276.18 341.319 275.546 341.319C275.228 341.319 274.832 341.378 274.355 341.497C273.721 341.656 273.086 341.953 272.451 342.39C271.816 342.826 271.202 343.342 270.606 343.937C270.408 344.135 270.051 344.532 269.535 345.127C269.059 345.683 268.603 346.317 268.167 347.032C267.73 347.706 267.512 348.301 267.512 348.817C267.512 349.253 267.691 349.551 268.048 349.709Z" fill="black"/>
<path d="M296.755 363.575C295.406 363.575 294.473 363.178 293.958 362.385C293.482 361.552 293.244 360.6 293.244 359.528C293.244 358.219 293.501 356.652 294.017 354.827C294.533 352.963 295.128 351.098 295.802 349.233C296.516 347.329 297.151 345.643 297.707 344.175C297.865 343.818 297.945 343.441 297.945 343.044C297.945 342.608 297.806 342.291 297.528 342.092C297.25 341.894 296.893 341.795 296.457 341.795C295.822 341.795 295.108 341.993 294.315 342.39C293.085 343.025 291.914 344.036 290.804 345.425C289.693 346.813 288.8 348.261 288.126 349.769C287.372 351.475 286.698 353.181 286.102 354.887C285.507 356.593 285.031 357.981 284.674 359.052C284.436 359.727 284.218 360.421 284.02 361.135C283.821 361.849 283.623 362.543 283.425 363.218H277.652C277.652 363.218 277.791 362.722 278.069 361.73C278.307 360.738 278.624 359.747 279.021 358.755C279.695 357.009 280.37 355.264 281.044 353.518C281.758 351.772 282.373 350.225 282.889 348.876C283.048 348.48 283.286 347.746 283.603 346.674C283.96 345.564 284.278 344.413 284.555 343.223C284.873 342.033 285.031 341.061 285.031 340.307C285.031 339.871 284.972 339.573 284.853 339.414C285.21 339.414 285.607 339.414 286.043 339.414C286.519 339.375 286.955 339.355 287.352 339.355C287.908 339.355 288.423 339.375 288.899 339.414C289.415 339.454 289.752 339.553 289.911 339.712C290.387 340.069 290.625 340.585 290.625 341.259C290.625 341.735 290.526 342.211 290.328 342.687C290.169 343.163 290.05 343.56 289.971 343.878C290.526 343.362 291.101 342.866 291.696 342.39C292.291 341.914 293.204 341.299 294.434 340.545C295.148 340.109 296.04 339.752 297.112 339.474C298.183 339.196 299.155 339.057 300.028 339.057C302.289 339.057 303.42 340.109 303.42 342.211C303.42 342.568 303.38 342.965 303.3 343.401C303.261 343.838 303.142 344.314 302.943 344.83C302.745 345.464 302.428 346.337 301.991 347.448C301.555 348.559 301.099 349.749 300.623 351.019C300.186 352.248 299.809 353.419 299.492 354.53C299.175 355.64 299.016 356.533 299.016 357.208C299.016 358.16 299.373 358.636 300.087 358.636C300.722 358.636 301.515 358.239 302.467 357.446C303.38 356.692 304.173 355.879 304.848 355.006C305.681 353.974 306.435 352.883 307.109 351.733C307.823 350.543 308.438 349.452 308.954 348.46C309.152 348.142 309.291 347.984 309.37 347.984C309.608 347.984 309.727 348.321 309.727 348.995C309.727 349.313 309.668 349.69 309.549 350.126C309.47 350.523 309.331 350.9 309.132 351.257C308.577 352.209 307.922 353.26 307.169 354.411C306.415 355.561 305.641 356.672 304.848 357.743C304.292 358.497 303.558 359.33 302.646 360.242C301.733 361.155 300.761 361.948 299.73 362.623C298.698 363.258 297.707 363.575 296.755 363.575Z" fill="black"/>
<path d="M311.664 363.575C310.514 363.575 309.641 363.119 309.046 362.206C308.768 361.77 308.57 361.254 308.451 360.659C308.332 360.064 308.272 359.449 308.272 358.814C308.272 358.18 308.312 357.545 308.391 356.91C308.471 356.236 308.57 355.581 308.689 354.946C308.887 353.915 309.105 352.982 309.343 352.149C309.621 351.276 309.899 350.443 310.177 349.65V349.59C309.859 350.185 309.462 350.84 308.986 351.554C308.51 352.229 308.173 352.725 307.975 353.042C307.697 353.478 307.479 353.697 307.32 353.697C307.161 353.697 307.082 353.518 307.082 353.161C307.082 352.367 307.32 351.495 307.796 350.543C308.114 349.908 308.55 349.094 309.105 348.103C309.661 347.071 310.236 345.96 310.831 344.77C311.426 343.58 311.942 342.43 312.378 341.319H308.391C308.193 341.319 308.153 341.16 308.272 340.843C308.391 340.525 308.57 340.228 308.808 339.95C309.046 339.633 309.224 339.474 309.343 339.474H313.866C314.302 338.442 314.798 337.332 315.354 336.141C315.949 334.951 316.603 333.84 317.318 332.809C318.071 331.738 318.885 330.865 319.757 330.191C320.63 329.516 321.563 329.179 322.554 329.179C322.991 329.179 323.526 329.179 324.161 329.179C324.836 329.179 325.252 329.159 325.411 329.119C324.578 329.675 323.606 330.786 322.495 332.452C321.384 334.078 320.174 336.419 318.865 339.474H324.875C324.994 339.474 324.955 339.633 324.756 339.95C324.558 340.228 324.3 340.525 323.983 340.843C323.705 341.16 323.427 341.319 323.149 341.319H318.032C317.516 342.628 316.941 344.056 316.306 345.603C315.711 347.151 315.155 348.678 314.64 350.185C314.164 351.653 313.807 353.002 313.569 354.232C313.41 354.986 313.331 355.68 313.331 356.315C313.331 357.822 313.807 358.576 314.759 358.576C315.393 358.576 316.147 358.259 317.02 357.624C317.893 356.989 318.766 356.117 319.638 355.006C320.432 353.974 321.186 352.863 321.9 351.673C322.654 350.483 323.288 349.392 323.804 348.4C323.963 348.123 324.102 347.984 324.221 347.984C324.459 347.984 324.578 348.301 324.578 348.936C324.578 349.253 324.518 349.63 324.399 350.066C324.32 350.463 324.161 350.86 323.923 351.257C323.368 352.209 322.713 353.26 321.959 354.411C321.206 355.521 320.432 356.632 319.638 357.743C319.083 358.457 318.349 359.271 317.437 360.183C316.564 361.095 315.612 361.889 314.58 362.563C313.588 363.238 312.616 363.575 311.664 363.575Z" fill="black"/>
<path d="M334.696 334.654C333.664 334.297 333.148 333.622 333.148 332.63C333.148 331.718 333.505 330.786 334.22 329.833C334.973 328.842 335.787 328.207 336.659 327.929C336.858 327.85 337.016 327.81 337.135 327.81C337.294 327.81 337.453 327.81 337.612 327.81C338.286 327.81 338.841 328.009 339.278 328.405C339.714 328.802 339.932 329.258 339.932 329.774C339.932 330.488 339.555 331.083 338.802 331.559C338.207 331.48 337.631 331.619 337.076 331.976C336.521 332.333 336.025 332.769 335.588 333.285C335.191 333.801 334.894 334.257 334.696 334.654ZM324.46 363.575C323.944 363.575 323.448 363.456 322.972 363.218C322.496 363.02 322.1 362.603 321.782 361.968C321.346 361.016 321.128 359.885 321.128 358.576C321.128 357.148 321.346 355.561 321.782 353.816C322.219 352.03 322.794 350.205 323.508 348.341C323.786 347.666 324.143 346.833 324.579 345.841C325.015 344.85 325.531 343.858 326.126 342.866C326.721 341.874 327.396 341.061 328.15 340.426C328.943 339.752 329.796 339.414 330.708 339.414C331.145 339.414 331.76 339.434 332.553 339.474C333.347 339.514 333.922 339.514 334.279 339.474C334.041 339.633 333.763 339.95 333.446 340.426C333.129 340.902 332.831 341.398 332.553 341.914C332.276 342.39 332.057 342.767 331.899 343.044C330.867 345.107 329.895 347.151 328.983 349.174C328.07 351.197 327.376 353.141 326.9 355.006C326.821 355.323 326.761 355.64 326.721 355.958C326.682 356.275 326.662 356.573 326.662 356.85C326.662 358.001 327.039 358.576 327.793 358.576C328.11 358.576 328.447 358.497 328.804 358.338C329.201 358.14 329.657 357.842 330.173 357.446C331.085 356.731 331.879 355.918 332.553 355.006C333.347 353.974 334.1 352.883 334.815 351.733C335.529 350.543 336.144 349.452 336.659 348.46C336.858 348.142 336.997 347.984 337.076 347.984C337.314 347.984 337.433 348.321 337.433 348.995C337.433 349.313 337.373 349.69 337.254 350.126C337.175 350.523 337.036 350.9 336.838 351.257C336.282 352.209 335.628 353.26 334.874 354.411C334.12 355.561 333.347 356.672 332.553 357.743C331.998 358.497 331.264 359.33 330.351 360.242C329.439 361.155 328.467 361.948 327.436 362.623C326.404 363.258 325.412 363.575 324.46 363.575Z" fill="black"/>
<path d="M342.301 363.813C340.436 363.813 338.928 363.476 337.778 362.801C336.627 362.087 335.794 361.155 335.279 360.004C334.803 358.814 334.564 357.545 334.564 356.196C334.564 354.847 334.763 353.478 335.16 352.09C335.556 350.701 336.092 349.392 336.766 348.162C338.155 345.663 339.861 343.6 341.884 341.973C343.947 340.347 346.466 339.533 349.442 339.533C351.306 339.533 352.754 340.009 353.786 340.962C354.817 341.914 355.333 343.025 355.333 344.294C355.333 345.484 354.976 346.575 354.262 347.567C353.587 348.559 352.675 349.055 351.524 349.055C350.89 349.055 350.334 348.876 349.858 348.519C349.382 348.162 349.144 347.607 349.144 346.853C349.144 346.734 349.144 346.615 349.144 346.496C349.184 346.337 349.223 346.179 349.263 346.02C349.501 345.98 349.838 345.921 350.275 345.841C350.751 345.722 351.128 345.445 351.405 345.008C351.921 344.294 352.179 343.58 352.179 342.866C352.179 342.43 352.04 342.072 351.763 341.795C351.524 341.477 351.108 341.319 350.513 341.319C349.442 341.319 348.351 341.715 347.24 342.509C346.129 343.263 345.078 344.274 344.086 345.544C343.134 346.813 342.301 348.202 341.587 349.709C340.476 352.129 339.92 354.351 339.92 356.374C339.92 357.842 340.257 359.052 340.932 360.004C341.606 360.917 342.678 361.373 344.145 361.373C346.01 361.373 347.756 360.738 349.382 359.469C351.048 358.16 352.536 356.652 353.845 354.946C354.718 353.835 355.492 352.705 356.166 351.554C356.88 350.404 357.475 349.352 357.951 348.4C358.11 348.123 358.249 347.984 358.368 347.984C358.606 347.984 358.725 348.321 358.725 348.995C358.725 349.313 358.666 349.69 358.547 350.126C358.467 350.523 358.328 350.9 358.13 351.257C357.456 352.367 356.761 353.478 356.047 354.589C355.373 355.7 354.639 356.751 353.845 357.743C352.496 359.489 350.91 360.937 349.085 362.087C347.26 363.238 344.998 363.813 342.301 363.813Z" fill="black"/>
<path d="M193.732 117.021V136.744L158.707 126.883L193.732 117.021Z" fill="#353535"/>
<path d="M305.438 117.021V136.744L340.463 126.883L305.438 117.021Z" fill="#353535"/>
<path d="M268.887 104.46C265.769 107.581 262.999 110.4 262.736 110.721C262.466 111.042 262.189 111.434 262.112 111.588C261.682 112.474 261.585 113.88 261.874 115.023C261.964 115.37 262.035 115.697 262.035 115.755C262.035 115.858 249.765 128.148 249.663 128.148C249.624 128.148 248.114 126.665 246.295 124.847L242.991 121.547L243.03 120.462C243.068 119.421 243.126 118.914 243.39 117.136C243.807 114.336 243.492 111.992 242.47 110.284C241.911 109.34 239.79 107.285 236.551 104.544C233.119 101.641 230.805 99.9333 229.404 99.2719C228.87 99.015 228.703 98.9701 228.279 98.9444C227.482 98.8995 227.238 99.0471 225.721 100.485C223.966 102.149 219.621 106.547 219.011 107.279C218.06 108.409 218.008 108.782 218.606 110.008C219.557 111.941 222.263 115.44 226.107 119.698C228.247 122.073 229.063 122.812 230.124 123.326C231.666 124.077 232.373 124.205 234.558 124.147C235.992 124.103 236.197 124.083 237.74 123.846C238.248 123.762 239.083 123.692 239.758 123.672L240.902 123.634L247.574 130.299L241.449 136.418L240.767 136.386C240.002 136.348 239.45 136.45 239.032 136.714C238.531 137.028 237.226 138.293 232.373 143.141C226.801 148.708 225.316 150.249 225.123 150.673C224.828 151.347 224.853 152.471 225.175 153.178C225.393 153.659 226.222 154.481 226.724 154.712C227.077 154.879 227.161 154.892 227.971 154.892C229.23 154.892 229.115 154.963 231.608 152.561C234.031 150.217 240.574 143.642 242.162 141.96C243.441 140.592 243.428 140.624 243.492 139.34L243.537 138.518L264.233 117.829L264.76 117.996C265.229 118.144 265.384 118.157 266.341 118.157C267.273 118.157 267.447 118.137 267.788 118.015C268.308 117.823 268.713 117.54 269.639 116.731C270.436 116.038 281.124 105.436 281.124 105.346C281.124 105.276 278.225 105.244 278.078 105.314C277.84 105.423 276.612 106.586 273.289 109.873C269.844 113.27 268.938 114.124 268.533 114.323C268.36 114.413 268.147 114.439 267.691 114.439C267.151 114.439 267.036 114.419 266.714 114.259C265.936 113.874 265.429 113.065 265.429 112.191C265.429 111.671 265.525 111.395 265.872 110.913C266.007 110.734 268.045 108.64 270.403 106.265L274.697 101.943V100.408C274.697 99.3618 274.671 98.8609 274.626 98.8288C274.588 98.8031 272.184 101.16 268.887 104.46ZM229.815 103.664C230.651 104.415 235.799 109.514 237.489 111.279C238.518 112.345 238.833 112.711 238.833 112.84C238.833 113.097 238.666 113.353 238.408 113.475L238.177 113.585L237.811 113.341C237.611 113.206 235.805 111.459 233.794 109.462C230.252 105.943 228.665 104.306 228.491 103.979C228.375 103.773 228.446 103.523 228.678 103.292C228.973 102.996 229.108 103.041 229.815 103.664ZM226.859 106.618C227.688 107.356 232.971 112.596 234.597 114.297C235.568 115.312 235.876 115.672 235.876 115.794C235.876 116.05 235.709 116.307 235.458 116.423C235.227 116.532 235.22 116.532 234.976 116.371C234.52 116.07 233.164 114.76 229.667 111.254C226.216 107.786 225.464 106.977 225.464 106.753C225.464 106.444 225.805 106.059 226.081 106.059C226.171 106.059 226.473 106.277 226.859 106.618ZM223.831 109.507C224.558 110.143 230.027 115.562 231.673 117.277C232.971 118.632 233.022 118.709 232.849 119.049C232.74 119.267 232.521 119.415 232.303 119.415C232.161 119.415 231.994 119.319 231.66 119.049C231.101 118.593 224.133 111.665 223.291 110.727C222.533 109.886 222.475 109.79 222.533 109.559C222.597 109.315 222.912 109.013 223.105 109.013C223.208 109.013 223.452 109.18 223.831 109.507ZM229.629 149.652C230.059 149.877 230.349 150.32 230.349 150.763C230.349 151.116 230.072 151.617 229.764 151.823C229.526 151.977 229.43 152.002 229.025 152.002C228.6 152.002 228.536 151.983 228.318 151.803C227.983 151.54 227.816 151.181 227.816 150.782C227.823 150.404 227.938 150.16 228.24 149.871C228.671 149.453 229.108 149.389 229.629 149.652Z" fill="#353535"/>
<path d="M252.169 132.835L251.141 133.863L256.765 139.481V140.188C256.765 140.836 256.778 140.926 256.951 141.279C257.054 141.491 257.33 141.908 257.575 142.21C258.057 142.814 266.791 151.572 268.816 153.479C269.523 154.141 270.204 154.731 270.326 154.783C270.474 154.847 270.841 154.892 271.374 154.911L272.197 154.937L272.679 154.706C273.617 154.237 274.176 153.434 274.311 152.362C274.343 152.067 274.356 151.707 274.337 151.559C274.273 151.155 273.977 150.654 273.366 149.916C272.383 148.734 262.311 138.691 261.347 137.927C260.801 137.497 260.396 137.375 259.548 137.369L258.821 137.362L256.045 134.582C254.515 133.06 253.249 131.808 253.23 131.808C253.21 131.808 252.735 132.27 252.169 132.835ZM270.924 149.941C271.425 150.153 271.644 150.641 271.548 151.309C271.509 151.559 271.451 151.656 271.226 151.855C270.339 152.645 268.925 151.829 269.227 150.699C269.311 150.404 269.606 150.07 269.909 149.941C270.166 149.832 270.661 149.832 270.924 149.941Z" fill="#353535"/>
</g>
<defs>
<filter id="filter0_d_2535_107" x="43" y="162.418" width="413" height="157.282" filterUnits="userSpaceOnUse" color-interpolation-filters="sRGB">
<feFlood flood-opacity="0" result="BackgroundImageFix"/>
<feColorMatrix in="SourceAlpha" type="matrix" values="0 0 0 0 0 0 0 0 0 0 0 0 0 0 0 0 0 0 127 0" result="hardAlpha"/>
<feOffset dy="4"/>
<feGaussianBlur stdDeviation="2"/>
<feColorMatrix type="matrix" values="0 0 0 0 0 0 0 0 0 0 0 0 0 0 0 0 0 0 0.25 0"/>
<feBlend mode="normal" in2="BackgroundImageFix" result="effect1_dropShadow_2535_107"/>
<feBlend mode="normal" in="SourceGraphic" in2="effect1_dropShadow_2535_107" result="shape"/>
</filter>
</defs>
</svg>
