<svg width="500" height="500" viewBox="0 0 500 500" fill="none" xmlns="http://www.w3.org/2000/svg">
<g style="mix-blend-mode:luminosity">
<path d="M164.372 274.793C154.962 267.226 127.798 262.667 106.746 262.667C104.321 262.667 102.09 262.764 99.8584 262.861C95.6868 263.055 90.8361 263.637 85.9855 264.51C93.8436 259.271 104.709 247.92 113.925 236.958C144.097 228.518 170.193 205.72 171.939 189.033C172.716 182.824 168.35 179.429 162.82 179.526C145.455 179.914 124.985 211.055 105.97 234.921C104.224 235.212 102.575 235.406 100.829 235.6C98.8883 235.794 97.045 235.891 95.2988 235.891C77.3513 235.891 65.8067 226.772 66.0977 220.175C66.1947 218.428 68.232 216.779 69.9782 216.197C69.2991 215.809 64.7395 216.003 61.9261 219.301C60.5679 220.951 59.4038 223.376 59.5978 224.637C60.6649 233.465 74.2468 240.256 90.9332 240.256C94.7167 240.256 98.5002 239.965 102.381 239.48C94.1346 249.085 83.8512 260.92 75.508 266.741C62.7992 270.04 51.5457 275.084 52.0308 280.226C52.5158 284.495 57.3665 287.89 59.4038 287.89C54.9412 284.689 71.9185 271.786 103.545 268.002C108.784 267.42 114.022 267.129 119.261 267.129C136.821 267.129 153.507 270.331 164.372 274.793ZM162.432 182.242C164.954 181.466 166.41 183.212 166.701 185.735C167.574 193.981 149.432 221.339 118.194 231.816C136.821 209.406 154.477 184.668 162.432 182.242Z" fill="black"/>
<path d="M164.026 252.383C163.638 253.838 163.25 255.002 163.25 255.973C163.25 257.719 165.093 259.756 166.451 260.532C167.13 260.92 167.615 261.114 168.101 261.114C173.921 261.114 189.735 244.913 198.175 235.697C198.466 235.406 197.981 234.63 197.496 235.115C191.481 240.741 177.608 254.032 171.496 255.779C171.496 255.002 171.884 253.838 172.466 252.48C175.377 246.271 184.108 235.697 184.593 236.667C184.981 235.503 181.682 230.167 179.742 231.137C177.317 232.495 171.011 238.607 169.265 240.159C164.22 244.428 150.638 254.226 147.437 255.293C147.146 255.39 146.952 255.39 146.758 255.293C145.884 254.808 153.16 242.585 162.377 234.727C168.683 229.391 175.765 225.316 181.391 225.025C184.302 224.831 186.145 226.286 186.145 229.197C186.145 230.652 185.563 231.816 185.078 232.689C184.981 232.786 185.175 232.883 185.369 232.786C186.339 231.525 187.212 229.876 187.212 228.227C187.212 223.667 182.362 222.115 178.675 222.115C160.825 222.115 138.608 243.749 138.608 254.323C138.608 256.264 141.131 259.95 142.877 260.823C143.071 260.92 143.556 261.114 143.75 261.114C147.825 261.114 166.742 244.816 169.653 241.906C167.81 244.331 165.19 248.794 164.026 252.383Z" fill="black"/>
<path d="M325.818 204.167C318.445 211.346 296.035 249.376 296.035 259.174C296.035 263.152 302.729 266.45 302.729 264.607C302.729 255.002 340.176 215.227 354.146 208.824C345.9 216.876 326.788 245.786 326.788 264.51C326.788 275.666 333.87 282.166 344.153 282.166C345.124 282.166 346.094 282.069 347.161 281.972C350.556 281.584 365.981 278.674 377.526 268.002C370.832 272.659 356.668 279.062 347.452 279.353C337.071 279.644 332.997 275.86 332.997 266.547C332.997 244.331 372.287 194.854 381.019 194.854C381.892 194.854 383.25 194.854 384.123 195.436C383.735 193.205 379.175 188.063 375.877 188.063C369.377 188.063 324.266 222.503 304.475 255.682C314.564 233.951 339.012 198.444 342.892 198.444C343.571 198.444 344.639 198.638 345.027 199.22C344.542 195.339 339.497 192.332 336.392 192.332C332.027 192.332 307.288 209.988 279.348 241.324C292.251 223.861 308.355 200.481 308.355 191.265C308.355 183.309 303.408 178.653 294.192 178.653C265.185 178.653 215.805 216.003 215.805 231.622C215.805 234.533 217.842 236.958 220.946 236.958C223.178 236.958 228.998 234.63 228.998 233.756C228.028 234.048 225.215 234.533 224.245 234.533C223.372 234.533 222.305 233.951 222.305 232.786C222.305 226.675 267.028 181.078 294.192 181.078C297.781 181.078 302.244 181.854 302.244 186.414C302.244 200.19 252.573 258.883 252.573 271.301C252.573 273.144 254.125 274.89 255.774 274.89C257.714 274.89 262.856 273.338 265.282 270.137C265.67 269.748 259.849 272.853 259.849 271.592C259.849 268.875 266.155 259.562 278.96 245.107C292.833 229.876 312.333 211.443 325.818 204.167Z" fill="black"/>
<path d="M373.401 252.383C373.013 253.838 372.625 255.002 372.625 255.973C372.625 257.719 374.468 259.756 375.826 260.532C376.505 260.92 376.99 261.114 377.475 261.114C383.296 261.114 399.109 244.913 407.549 235.697C407.841 235.406 407.355 234.63 406.87 235.115C400.856 240.741 386.983 254.032 380.871 255.779C380.871 255.002 381.259 253.838 381.841 252.48C384.751 246.271 393.483 235.697 393.968 236.667C394.356 235.503 391.057 230.167 389.117 231.137C386.692 232.495 380.386 238.607 378.639 240.159C373.595 244.428 360.013 254.226 356.811 255.293C356.52 255.39 356.326 255.39 356.132 255.293C355.259 254.808 362.535 242.585 371.752 234.727C378.057 229.391 385.139 225.316 390.766 225.025C393.677 224.831 395.52 226.286 395.52 229.197C395.52 230.652 394.938 231.816 394.453 232.689C394.356 232.786 394.55 232.883 394.744 232.786C395.714 231.525 396.587 229.876 396.587 228.227C396.587 223.667 391.736 222.115 388.05 222.115C370.199 222.115 347.983 243.749 347.983 254.323C347.983 256.264 350.506 259.95 352.252 260.823C352.446 260.92 352.931 261.114 353.125 261.114C357.2 261.114 376.117 244.816 379.028 241.906C377.184 244.331 374.565 248.794 373.401 252.383Z" fill="black"/>
<path d="M405.978 234.63C402.097 240.159 397.731 246.853 395.306 252.383C394.142 254.614 393.657 256.458 393.851 257.331C394.53 260.047 396.858 263.055 399.672 262.375C397.537 261.405 403.358 252.868 408.306 247.532C414.903 240.256 419.462 236.376 428.388 231.137C425.865 234.048 422.761 239.674 422.761 242.391C422.761 243.555 425.671 246.95 427.418 246.95C434.111 246.95 445.753 236.085 447.499 233.756C447.402 233.562 446.82 233.659 446.723 233.756C440.708 239.092 434.014 243.458 429.358 243.846C432.559 236.279 440.611 229.197 442.746 226.966C443.425 226.189 439.447 222.018 438.38 222.115C436.343 222.309 433.432 223.958 429.649 226.675C421.306 232.689 411.604 240.838 406.463 247.532C408.5 243.943 411.895 239.383 414.515 235.891C417.425 232.01 420.821 228.227 422.276 228.324C423.052 228.421 423.343 228.906 423.343 228.518C423.343 226.092 419.656 222.309 417.328 222.309C416.94 222.309 416.552 222.406 415.97 222.794C413.545 224.734 409.373 229.682 405.978 234.63Z" fill="black"/>
<path fill-rule="evenodd" clip-rule="evenodd" d="M47 342.987C54.3253 354.499 105.749 358.977 119.765 358.262C146.037 356.92 168.766 350.179 194.097 344.737C221.803 338.787 245.804 338.166 273.791 342.974C312.834 349.681 323.474 359.401 339.884 363.142C333.571 352.84 293.615 333.958 281.215 328.761C219.314 302.818 184.167 308.202 125.308 328.486C72.9942 346.511 68.5416 337.798 47.0004 342.987H47Z" fill="black"/>
<path fill-rule="evenodd" clip-rule="evenodd" d="M239.731 277.829C194.091 271.979 127.49 303.536 125.602 315.38C129.86 315.854 164.354 306.833 172.74 305.409C192.513 302.047 205.679 302.11 225.563 302.552C304.989 316.816 334.123 355.518 385.556 356.974C397.33 357.307 431.523 350.721 436.563 339.865C429.461 339.249 416.567 342.579 406.904 342.401C352.402 341.389 313.586 283.96 239.731 277.829V277.829Z" fill="black"/>
<path fill-rule="evenodd" clip-rule="evenodd" d="M405.979 335.153C467.153 344.529 466.632 263.161 408.666 279.027C422.153 283.561 445.629 280.014 440.372 307.458C432.062 350.849 337.102 291.91 307.082 287.552C315.578 295.596 382.736 331.591 405.979 335.154V335.153Z" fill="black"/>
<path d="M199.398 153.195C200.283 153.125 200.893 153.018 201.23 152.877C201.566 152.718 201.787 152.443 201.893 152.054C202 151.647 202.053 150.939 202.053 149.93V138.354C200.548 138.407 199.522 138.496 198.973 138.62C198.442 138.726 198.079 138.982 197.884 139.389C197.69 139.779 197.513 140.549 197.353 141.699L196.105 141.806C196.318 140.124 196.451 138.593 196.504 137.212L196.743 137L198.946 137.292H207.177L209.433 137L209.672 137.212C209.726 138.664 209.858 140.159 210.071 141.699L208.823 141.806C208.628 140.637 208.433 139.85 208.239 139.443C208.044 139.035 207.699 138.77 207.203 138.646C206.708 138.522 205.752 138.425 204.336 138.354C204.23 139.416 204.132 141.292 204.044 143.983C203.955 146.673 203.911 149.098 203.911 151.257C203.911 151.912 204.026 152.381 204.256 152.664C204.486 152.93 204.876 153.063 205.424 153.063C205.955 153.063 206.442 153.036 206.885 152.983L206.964 153.089L206.725 154.311L205.849 154.284L202.823 154.231C201.849 154.231 200.637 154.266 199.185 154.337L199.398 153.195Z" fill="black"/>
<path d="M218.421 154.311L218.527 153.275C219.43 153.204 220.049 153.098 220.386 152.956C220.722 152.815 220.89 152.585 220.89 152.266C220.89 151.912 220.81 151.487 220.651 150.992L219.775 148.098C219.35 148.08 218.43 148.071 217.014 148.071C216.164 148.071 215.199 148.142 214.12 148.284L213.137 151.045C212.978 151.523 212.898 151.868 212.898 152.08C212.898 152.47 213.022 152.753 213.27 152.93C213.518 153.089 213.925 153.169 214.491 153.169H216.005L216.058 153.275L215.899 154.417C215.686 154.399 215.199 154.364 214.438 154.311C213.677 154.257 212.934 154.231 212.208 154.231C211.553 154.231 210.943 154.24 210.376 154.257C209.828 154.275 209.465 154.293 209.288 154.311L209.5 153.063C209.996 153.01 210.394 152.841 210.695 152.558C210.996 152.257 211.288 151.744 211.571 151.018L216.748 137.451L218.421 137H218.633C218.739 137.425 219.005 138.407 219.43 139.947C219.872 141.487 220.403 143.31 221.023 145.416C221.66 147.523 222.271 149.461 222.855 151.231C223.067 151.886 223.35 152.346 223.704 152.611C224.058 152.877 224.625 153.045 225.403 153.116L225.457 153.222L225.271 154.311C225.058 154.311 224.669 154.293 224.103 154.257C223.554 154.24 223.005 154.231 222.456 154.231C221.607 154.231 220.784 154.266 219.987 154.337C219.208 154.408 218.713 154.461 218.5 154.496L218.421 154.311ZM216.934 146.983C217.571 146.983 218.394 146.938 219.403 146.85L217.306 139.894H217.12L214.598 146.983H216.934Z" fill="black"/>
<path d="M229.757 154.231C229.209 154.231 228.616 154.275 227.978 154.364C227.341 154.452 226.925 154.514 226.731 154.549L226.89 153.328C227.704 153.169 228.253 152.939 228.536 152.638C228.819 152.319 228.961 151.788 228.961 151.045L228.987 139.894C228.987 139.328 228.916 138.947 228.775 138.752C228.651 138.558 228.394 138.46 228.005 138.46C227.828 138.46 227.651 138.469 227.474 138.487C227.297 138.504 227.173 138.513 227.102 138.513L227.049 138.407L227.235 137.239C227.447 137.257 227.846 137.274 228.43 137.292C229.014 137.31 229.598 137.319 230.182 137.319C230.784 137.319 231.394 137.31 232.014 137.292C232.651 137.257 233.085 137.23 233.315 137.212C234.996 137.212 236.288 137.566 237.191 138.274C238.094 138.965 238.545 139.956 238.545 141.248C238.545 142.133 238.271 142.929 237.722 143.637C237.191 144.345 236.439 144.912 235.465 145.337C236.758 145.62 237.766 146.115 238.492 146.823C239.218 147.531 239.581 148.381 239.581 149.372C239.581 150.275 239.289 151.125 238.705 151.921C238.138 152.7 237.377 153.328 236.421 153.806C235.465 154.266 234.439 154.496 233.341 154.496C232.864 154.496 232.315 154.452 231.695 154.364C230.686 154.275 230.04 154.231 229.757 154.231ZM231.005 144.912C231.271 144.93 231.713 144.965 232.333 145.018C232.97 145.071 233.492 145.107 233.899 145.124C233.899 145.177 234.129 145.089 234.589 144.859C235.049 144.611 235.465 144.239 235.837 143.744C236.209 143.23 236.395 142.549 236.395 141.699C236.395 140.567 236.014 139.726 235.253 139.177C234.492 138.628 233.315 138.354 231.722 138.354C231.545 138.354 231.421 138.398 231.35 138.487C231.297 138.558 231.262 138.717 231.244 138.965C231.138 140.664 231.058 142.646 231.005 144.912ZM230.846 151.284C230.846 151.956 231.076 152.434 231.536 152.718C231.996 153.001 232.775 153.142 233.872 153.142C234.934 153.142 235.766 152.85 236.368 152.266C236.988 151.664 237.297 150.859 237.297 149.85C237.297 148.894 236.996 148.116 236.395 147.514C235.793 146.894 234.899 146.478 233.713 146.266L230.952 146.319L230.846 151.284Z" fill="black"/>
<path d="M255.157 149.797C254.856 151.231 254.617 152.718 254.44 154.257L254.307 154.417C250.59 154.293 247.909 154.231 246.263 154.231C244.953 154.231 243.723 154.319 242.572 154.496L242.732 153.275C243.528 153.169 244.068 152.965 244.351 152.664C244.652 152.346 244.802 151.806 244.802 151.045L244.829 139.894C244.829 139.328 244.758 138.947 244.617 138.752C244.493 138.558 244.236 138.46 243.847 138.46L242.944 138.513L242.891 138.407L243.077 137.239C244.882 137.292 246.112 137.319 246.767 137.319C248.873 137.319 250.511 137.301 251.679 137.265C252.847 137.212 253.865 137.124 254.732 137L254.812 137.159C254.493 138.558 254.29 140.027 254.201 141.567L252.927 141.673L252.98 140.531C252.98 139.912 252.9 139.487 252.741 139.257C252.582 139.009 252.236 138.85 251.705 138.779C251.174 138.69 250.245 138.646 248.918 138.646C248.298 138.646 247.873 138.664 247.643 138.699C247.413 138.735 247.263 138.823 247.192 138.965C247.121 139.089 247.077 139.328 247.059 139.682L246.847 144.832L249.581 144.859C250.272 144.859 251.351 144.761 252.821 144.567L252.927 144.699L252.555 146.266C250.59 146.213 249.351 146.186 248.838 146.186C248.254 146.186 247.573 146.248 246.794 146.372L246.688 151.443C246.688 151.956 246.732 152.319 246.82 152.532C246.909 152.726 247.086 152.859 247.351 152.93C247.634 153.001 248.112 153.036 248.785 153.036C250.272 153.036 251.325 152.965 251.944 152.824C252.582 152.682 253.033 152.399 253.298 151.974C253.564 151.549 253.767 150.824 253.909 149.797L255.077 149.664L255.157 149.797Z" fill="black"/>
<path d="M270.312 154.656C269.87 154.656 269.392 154.434 268.878 153.992C268.383 153.532 267.923 152.912 267.498 152.133L264.657 146.983H262.453L262.374 150.939C262.374 151.611 262.418 152.098 262.506 152.399C262.595 152.682 262.763 152.877 263.011 152.983C263.259 153.072 263.684 153.116 264.285 153.116L264.338 153.222L264.099 154.337C263.887 154.319 263.462 154.302 262.825 154.284C262.188 154.266 261.524 154.257 260.834 154.257C260.214 154.257 259.666 154.266 259.188 154.284C258.71 154.302 258.391 154.319 258.232 154.337L258.471 153.142C259.037 153.072 259.462 152.974 259.745 152.85C260.028 152.726 260.223 152.532 260.329 152.266C260.436 151.983 260.489 151.576 260.489 151.045L260.515 139.894C260.515 139.328 260.444 138.947 260.303 138.752C260.179 138.558 259.922 138.46 259.533 138.46C259.356 138.46 259.179 138.469 259.002 138.487C258.825 138.504 258.701 138.513 258.63 138.513L258.577 138.407L258.763 137.239C258.975 137.257 259.374 137.274 259.958 137.292C260.542 137.31 261.126 137.319 261.71 137.319C262.312 137.319 262.94 137.31 263.595 137.292C264.268 137.257 264.728 137.23 264.976 137.212C266.622 137.212 267.923 137.584 268.878 138.327C269.834 139.071 270.312 140.089 270.312 141.381C270.312 142.443 269.967 143.416 269.277 144.301C268.604 145.186 267.648 145.912 266.409 146.478L269.33 151.098C269.843 151.948 270.339 152.541 270.817 152.877C271.312 153.195 271.914 153.355 272.622 153.355L272.728 153.461L272.569 154.364L270.312 154.656ZM265.241 145.761C265.241 145.815 265.507 145.7 266.038 145.416C266.569 145.133 267.046 144.699 267.471 144.115C267.896 143.531 268.108 142.779 268.108 141.859C268.108 139.522 266.489 138.354 263.25 138.354C263.073 138.354 262.949 138.398 262.878 138.487C262.825 138.558 262.79 138.717 262.772 138.965C262.613 141.673 262.524 143.85 262.506 145.496L265.241 145.761Z" fill="black"/>
<path d="M288.083 155.293C286.543 152.903 285.038 150.629 283.569 148.47C282.118 146.292 280.923 144.54 279.985 143.213C279.047 141.867 278.454 141.018 278.206 140.664H278.073L277.941 152.001C277.941 152.39 278.003 152.664 278.126 152.824C278.25 152.983 278.463 153.063 278.764 153.063L280.118 153.036L280.171 153.142L279.932 154.337C279.737 154.319 279.339 154.293 278.737 154.257C278.135 154.24 277.595 154.231 277.118 154.231C276.675 154.231 276.188 154.257 275.657 154.311C275.144 154.381 274.808 154.426 274.648 154.443L274.781 153.222C275.33 153.151 275.737 152.992 276.003 152.744C276.268 152.479 276.41 152.08 276.427 151.549L276.772 139.947C276.772 139.398 276.604 139.009 276.268 138.779C275.949 138.549 275.348 138.389 274.463 138.301L274.383 138.168L274.595 137.186C274.755 137.204 275.1 137.23 275.631 137.265C276.162 137.301 276.578 137.319 276.879 137.319C277.25 137.319 277.613 137.31 277.967 137.292C278.321 137.257 278.551 137.23 278.657 137.212C279.967 139.248 281.277 141.239 282.587 143.186C283.914 145.133 285.021 146.735 285.906 147.992C286.791 149.248 287.348 150.045 287.578 150.381H287.711V139.628C287.711 138.867 287.419 138.487 286.835 138.487L285.826 138.513L285.773 138.407L286.012 137.212C286.189 137.23 286.525 137.257 287.021 137.292C287.516 137.31 288.021 137.319 288.534 137.319C288.994 137.319 289.499 137.292 290.047 137.239C290.614 137.168 290.985 137.124 291.162 137.106L291.03 138.327C290.41 138.416 289.959 138.593 289.676 138.858C289.392 139.106 289.242 139.487 289.224 140L288.853 154.921L288.083 155.293Z" fill="black"/>
<path d="M300.508 154.311L300.614 153.275C301.517 153.204 302.136 153.098 302.472 152.956C302.809 152.815 302.977 152.585 302.977 152.266C302.977 151.912 302.897 151.487 302.738 150.992L301.862 148.098C301.437 148.08 300.516 148.071 299.1 148.071C298.251 148.071 297.286 148.142 296.207 148.284L295.224 151.045C295.065 151.523 294.985 151.868 294.985 152.08C294.985 152.47 295.109 152.753 295.357 152.93C295.605 153.089 296.012 153.169 296.578 153.169H298.092L298.145 153.275L297.985 154.417C297.773 154.399 297.286 154.364 296.525 154.311C295.764 154.257 295.021 154.231 294.295 154.231C293.64 154.231 293.029 154.24 292.463 154.257C291.914 154.275 291.551 154.293 291.374 154.311L291.587 153.063C292.082 153.01 292.481 152.841 292.782 152.558C293.083 152.257 293.375 151.744 293.658 151.018L298.835 137.451L300.508 137H300.72C300.826 137.425 301.092 138.407 301.517 139.947C301.959 141.487 302.49 143.31 303.109 145.416C303.747 147.523 304.357 149.461 304.941 151.231C305.154 151.886 305.437 152.346 305.791 152.611C306.145 152.877 306.711 153.045 307.49 153.116L307.543 153.222L307.357 154.311C307.145 154.311 306.756 154.293 306.189 154.257C305.641 154.24 305.092 154.231 304.543 154.231C303.694 154.231 302.871 154.266 302.074 154.337C301.295 154.408 300.8 154.461 300.587 154.496L300.508 154.311ZM299.021 146.983C299.658 146.983 300.481 146.938 301.49 146.85L299.393 139.894H299.207L296.684 146.983H299.021Z" fill="black"/>
</g>
</svg>
