<svg width="500" height="500" viewBox="0 0 500 500" fill="none" xmlns="http://www.w3.org/2000/svg">
<g style="mix-blend-mode:luminosity">
<g filter="url(#filter0_d_2535_107)">
<path fill-rule="evenodd" clip-rule="evenodd" d="M399.42 263.655C399.75 263.982 399.744 263.329 399.75 263.982C399.752 264.309 399.752 264.309 399.426 264.308L399.417 263.329L399.42 263.655ZM438.309 262.745C438.638 263.072 438.633 262.419 438.638 263.072C438.641 263.399 438.641 263.399 438.314 263.398L438.306 262.419L438.309 262.745ZM418.316 181.413C418.972 181.741 418.648 182.067 418.984 183.047L424.171 215.705C422.864 215.703 422.537 215.702 421.559 216.027C420.581 216.352 420.257 216.678 419.606 217.003C419.936 217.33 420.266 217.657 420.922 217.985C421.582 218.639 421.582 218.639 422.241 219.293C425.211 222.563 425.225 224.196 425.916 228.442C425.922 229.095 426.257 230.075 426.263 230.728C426.277 232.36 424.99 234.643 423.682 234.641L415.183 234.626C413.222 234.622 412.219 232.008 412.21 231.029C412.196 229.396 413.131 224.174 413.771 222.543C414.416 221.565 415.058 220.26 415.707 219.608C416.031 219.282 416.679 218.63 417.003 218.304C417.651 217.652 417.978 217.653 418.299 217.001C416.659 216.345 416.326 215.691 413.711 215.686L416.176 198.387C416.48 195.775 417.108 192.838 417.409 189.9L418.64 181.087L418.316 181.413ZM399.744 263.329L399.417 263.329C399.4 261.37 399.707 259.085 400.017 257.126L402.149 239.173C403.061 231.339 404.3 223.505 405.21 215.345C406.128 208.164 407.688 199.678 408.93 192.17L412.375 174.873C411.153 184.665 410.263 195.111 408.714 204.903C408.098 209.147 407.475 212.737 406.855 216.654C406.543 218.286 406.236 220.57 405.926 222.529C405.616 224.487 405.306 226.446 404.997 228.404C404.377 232.321 403.757 236.238 403.138 240.154C402.205 245.703 400.949 251.578 400.02 257.453C400.028 258.432 399.71 259.411 399.391 260.39C399.073 261.369 399.082 262.349 399.093 263.655L399.744 263.329ZM438.309 262.745L435.924 251.64C433.531 239.556 431.8 228.452 429.736 216.695C428.699 210.163 426.971 199.386 426.26 192.855C425.564 187.956 423.139 172.28 423.108 168.688L423.435 168.689C423.446 169.995 425.155 178.487 425.496 180.12C426.183 184.039 426.868 187.632 427.556 191.551C427.9 193.51 428.244 195.47 428.588 197.43C428.932 199.389 429.276 201.349 429.617 202.982L432.385 220.617C432.729 222.577 433.073 224.536 433.417 226.496C434.108 230.742 434.466 234.334 435.157 238.579L437.953 259.48C437.965 260.786 438.297 261.439 438.309 262.745ZM413.299 168.344C413.296 168.018 413.62 167.692 413.299 168.344C413.299 168.344 413.308 169.324 413.299 168.344ZM405.613 149.068C405.645 152.659 407.597 151.683 407.634 155.928C407.666 159.519 401.481 199.993 400.247 208.48L399.335 216.314C397.7 216.311 396.725 216.962 395.748 217.287C396.083 218.267 397.064 218.269 397.734 220.229C398.738 222.842 398.101 224.8 397.481 228.717L395.634 241.773C395.333 244.711 394.704 247.649 394.403 250.587C393.784 254.503 391.336 273.762 390.384 277.025C389.111 280.941 386.496 280.936 386.524 284.201L393.715 284.214C395.35 284.217 396.649 283.24 396.964 281.934C398.621 284.549 396.003 284.218 406.463 284.237C408.424 284.24 405.44 279.338 405.431 278.358C404.749 275.092 406.625 265.301 407.248 261.71L409.09 248.001C409.396 245.716 411.665 243.435 413.953 243.439L424.413 243.457C425.72 243.46 427.036 244.442 427.695 245.096C428.685 246.077 429.02 247.057 429.361 248.69C430.06 253.915 433.153 271.225 433.195 276.122C433.224 279.387 430.327 284.606 432.289 284.61L439.153 284.622C440.46 284.624 441.435 283.973 441.751 282.668C442.41 283.322 443.075 284.629 445.036 284.632C452.228 284.645 452.887 285.299 451.889 283.339C450.889 281.052 449.579 280.723 448.581 278.762C447.58 276.475 447.225 273.209 446.873 270.27L441.33 234.346C440.978 231.407 440.298 228.467 439.946 225.528C438.917 219.976 441.859 219.981 442.169 218.023C441.185 217.695 440.526 217.04 438.238 217.036L431.322 173.601C430.637 170.008 429.253 161.19 429.222 157.599C429.196 154.66 432.09 149.115 430.129 149.111L420.976 149.095C419.669 149.093 418.694 149.744 418.378 151.049L418.052 151.049C417.716 150.069 417.054 149.088 415.746 149.086L406.594 149.069C406.267 149.069 405.94 149.068 405.946 149.721L405.613 149.068Z" fill="#FEFEFE"/>
<path fill-rule="evenodd" clip-rule="evenodd" d="M108.447 229.644L108.594 209.374C108.55 204.47 108.84 200.22 108.794 194.989L109.121 194.989C109.179 201.528 109.91 210.031 109.968 216.57L110.142 236.187C110.201 242.726 109.621 251.225 109.679 257.764L109.352 257.763C109.308 252.859 108.943 248.608 108.899 243.704C108.856 238.8 108.49 234.549 108.447 229.644ZM165.011 256.239L164.683 256.238C164.643 251.661 164.266 246.102 164.228 241.851C164.181 236.62 163.816 232.369 163.77 227.138C163.723 221.907 164.01 217.33 163.963 212.099C163.917 206.868 164.201 201.964 164.157 197.06C164.818 197.715 164.499 198.695 164.514 200.33C164.528 201.965 164.861 202.619 164.873 203.927C164.893 206.216 164.92 209.158 164.94 211.447L165.401 226.487C165.424 229.103 165.114 231.064 165.141 234.007L164.996 254.604C165.002 255.258 164.677 255.584 164.686 256.565L165.011 256.239ZM101.136 180.915C101.157 183.204 103.768 182.228 103.835 189.748L104.154 225.712C102.517 225.709 101.865 226.035 100.888 226.687C101.882 227.997 104.184 228.982 104.23 234.213L104.489 263.312C104.559 271.159 101.921 269.192 101.95 272.461L107.845 272.473C109.155 272.476 109.149 271.822 109.798 271.169C110.132 271.824 110.465 272.478 111.448 272.48L141.904 272.54C141.878 269.598 139.264 270.246 139.209 264.034L139.055 246.706C131.522 246.691 128.636 253.551 128.697 260.417C128.758 267.283 128.419 265.975 117.612 265.953C115.319 265.949 114.966 263.006 114.948 261.044L114.713 234.561C114.652 227.695 120.228 228.687 121.239 231.958C121.581 233.594 121.637 239.806 128.517 240.146L128.615 214.318C128.603 213.01 128.6 212.683 127.293 213.007C125.003 213.33 123.375 214.307 122.41 216.267C121.442 217.9 121.778 218.881 121.468 220.843C120.842 224.111 116.915 224.43 115.585 222.139C115.251 221.484 114.909 219.849 114.901 218.868L114.665 192.385C114.648 190.423 115.276 187.482 117.569 187.486L125.756 187.503C128.704 187.508 128.411 191.431 128.423 192.739C128.463 197.316 129.489 202.223 132.788 204.845C134.437 206.156 136.407 206.813 139.027 206.819C138.992 202.895 138.537 188.509 139.493 185.568C139.809 184.261 140.464 184.262 141.105 182.629L141.102 182.302L141.099 181.975C141.435 182.956 142.093 183.285 142.429 184.266C142.762 184.921 143.429 186.23 143.438 187.211C143.783 189.173 143.569 201.923 143.601 205.52C143.609 206.501 143.609 206.501 144.267 206.829C144.267 206.829 145.574 206.505 145.902 206.505C149.826 205.859 152.092 202.921 153.37 199.327C154.964 194.426 152.61 187.556 156.868 187.564C158.178 187.567 159.502 189.204 159.517 190.839L159.834 226.476C158.196 226.473 157.544 226.799 156.568 227.451C157.231 228.433 159.866 230.073 159.898 233.669L160.18 265.384C160.226 270.615 157.601 269.956 157.627 272.898L163.849 272.911C164.504 272.912 164.826 272.259 165.15 271.932L165.472 271.279C165.814 272.914 166.797 272.916 168.761 272.92C170.399 272.923 171.709 272.926 173.346 272.929C173.013 272.275 173.338 271.948 172.677 271.293C172.01 269.984 170.694 269.328 170.665 266.058L170.377 233.69C170.369 232.709 171.006 230.749 171.328 230.095C172.296 228.463 172.951 228.464 173.597 227.484C172.612 227.156 172.278 226.501 170.314 226.497L169.997 190.859C169.965 187.263 175.19 185.639 175.251 192.505C175.277 195.447 175.292 197.082 175.967 199.372C177.309 202.971 179.628 205.918 183.891 206.58C186.514 206.912 185.867 207.892 185.812 201.68C185.789 199.064 185.365 188.274 185.678 186.64C186.304 183.372 187.948 184.029 187.924 181.413L165.655 181.369C165 181.368 164.681 182.348 164.029 182.674C163.687 181.039 161.725 181.362 159.433 181.357C154.193 181.347 146.008 181.658 141.421 181.322C131.59 180.648 121.441 180.955 111.288 180.935C108.668 180.93 109.329 181.585 108.356 182.564C107.683 180.601 104.411 180.922 101.464 180.916C101.136 180.915 100.809 180.914 100.815 181.568L101.136 180.915Z" fill="#FEFEFE"/>
<path fill-rule="evenodd" clip-rule="evenodd" d="M363.5 234.606C364.163 235.587 364.504 237.22 364.839 238.201C365.522 241.467 365.872 244.08 365.9 247.346C365.918 249.305 366.253 250.286 366.27 252.245L365.986 257.143C366.009 259.755 366.075 267.266 366.419 269.226C366.425 269.879 366.757 270.533 366.763 271.186C366.43 270.532 366.427 270.205 366.095 269.552C363.405 261.056 365.238 246.365 363.844 236.566C363.839 235.913 363.506 235.259 363.497 234.279L363.5 234.606ZM363.5 234.606L363.17 234.279L363.5 234.606ZM340.801 256.117L340.474 256.116C340.428 250.891 340.061 246.319 340.015 241.094C339.97 235.869 339.603 231.297 339.557 226.072C339.511 220.847 339.795 215.949 339.75 210.724C339.704 205.499 339.991 200.928 339.945 195.703L340.662 202.889C341.015 205.828 341.095 214.972 341.123 218.237C341.135 219.544 341.467 220.197 341.482 221.83L341.55 229.667C341.565 231.3 341.246 232.279 341.258 233.586C341.281 236.198 341.303 238.81 341.326 241.423C341.338 242.729 341.016 243.382 341.031 245.014L340.772 252.851C340.787 254.484 340.465 255.136 340.48 256.769L340.801 256.117ZM378.721 255.207L377.975 244.756C377.964 243.449 377.631 242.796 377.617 241.163L377.882 196.753C377.879 196.426 377.879 196.426 378.206 196.427L378.631 207.53C378.642 208.836 378.975 209.49 378.989 211.123C379.012 213.735 379.032 216.021 379.055 218.634C379.078 221.246 379.422 223.206 379.447 226.145C379.47 228.757 379.16 230.716 379.183 233.329C379.206 235.941 379.226 238.227 379.249 240.839C379.292 245.738 379.008 250.636 379.051 255.534L378.721 255.207ZM353.258 222.505C349.989 222.499 345.747 223.471 345.709 219.225L345.449 189.509C345.412 185.264 349.671 186.251 352.614 186.256C360.461 186.271 359.612 201.291 359.669 207.822C359.698 211.087 359.408 215.332 358.774 217.617C357.813 219.901 356.531 222.837 353.261 222.831L353.258 222.505ZM363.785 192.481C365.44 194.77 365.827 201.629 365.85 204.241C365.867 206.2 365.265 212.077 364.298 213.708C363.977 214.361 364.301 214.035 363.977 214.361C363.954 211.748 364.264 209.79 364.241 207.177L364.175 199.666C364.152 197.054 363.808 195.094 363.785 192.481ZM332.618 180.342C332.638 182.628 335.251 182.306 335.302 188.184L335.625 225.085C333.99 225.082 333.339 225.407 332.364 226.058C333.023 226.713 333.021 226.386 333.68 227.041C335 228.349 335.673 230.636 335.691 232.596L335.959 263.292C336.014 269.496 333.389 268.512 333.415 271.451C335.704 271.455 339.63 271.789 340.605 271.138L341.251 270.159C341.586 271.139 341.919 271.793 342.9 271.795L348.785 271.806C348.757 268.54 346.479 269.842 346.431 264.291L346.151 232.288C346.114 228.043 350.046 229.03 352.989 229.035C354.623 229.038 355.607 229.367 356.597 230.348C357.583 231.003 358.246 231.984 358.584 233.291C360.583 237.54 360.333 246.356 360.373 250.928C360.402 254.193 360.431 257.459 360.459 260.725C360.522 267.909 361.896 275.422 368.469 279.353C371.426 280.991 374.705 281.977 378.301 281.983C378.29 280.677 377.951 279.37 377.292 278.716C376.305 278.061 375.324 278.059 374.665 277.405C373.351 276.749 372.02 274.134 372.003 272.175L377.889 272.186C378.542 272.187 378.864 271.535 379.185 270.882C381.815 272.52 378.542 272.187 387.044 272.203C387.018 269.264 384.408 269.912 384.359 264.361L384.085 233.011C384.051 229.092 386.976 227.139 387.3 226.813C386.317 226.484 385.657 225.83 384.022 225.827L383.699 188.926C383.648 183.048 386.269 183.706 386.246 181.093C386.241 180.44 382.974 180.761 381.339 180.758C379.704 180.755 379.053 181.08 378.737 182.386C377.751 181.731 378.396 180.752 375.78 180.748L370.876 180.739C370.907 184.331 373.185 183.029 373.23 188.254L373.559 225.808C372.251 225.805 371.273 226.13 370.625 226.782C370.96 227.762 370.955 227.109 371.614 227.763C371.944 228.091 372.277 228.744 372.607 229.071C372.939 229.725 373.608 231.359 373.619 232.665L373.902 264.994C373.936 268.913 372.304 269.237 371.992 270.869C371.335 270.541 371.665 270.868 371.315 268.255L371.109 244.743C371.058 238.865 369.377 233.637 366.07 229.386L362.772 226.114C367.972 222.532 370.849 215.026 370.789 208.169C370.735 201.964 371.03 198.373 369.017 192.491C367.339 187.59 363.708 183.664 359.111 181.37C355.17 179.404 348.306 179.718 343.402 179.709C342.094 179.706 340.789 180.03 340.798 181.01L340.471 181.009C340.126 179.049 336.209 179.695 333.593 179.691C333.266 179.69 332.939 179.689 332.942 180.016L332.618 180.342Z" fill="#FEFEFE"/>
<path fill-rule="evenodd" clip-rule="evenodd" d="M57.0253 216.978L56.9471 207.84C56.936 206.535 57.2598 206.209 57.2486 204.903C57.2151 200.987 57.1789 196.744 57.1454 192.828C57.137 191.849 57.4608 191.523 57.4496 190.218L57.6981 181.081C57.6897 180.102 57.6814 179.122 57.673 178.143L57.9466 171.943C57.9326 170.311 57.6032 169.985 58.2508 169.333C58.2676 171.291 58.2843 173.249 58.3011 175.207L58.6779 181.082C59.0212 183.041 59.6268 215.677 59.6352 216.656C59.7049 224.815 59.4425 232.32 59.5122 240.479L59.2331 246.027C59.247 247.658 59.2721 250.595 59.2861 252.227C58.9902 255.817 59.0265 260.059 59.0599 263.975C58.4012 263.322 58.7222 262.669 58.711 261.364L58.3091 252.552C58.298 251.247 57.9714 251.246 57.9602 249.941C57.9518 248.962 57.9435 247.983 57.9351 247.003C57.9184 245.045 57.8988 242.761 57.8849 241.129C57.5332 238.191 57.8096 232.318 57.7817 229.054L57.4048 223.179C57.3881 221.221 57.3714 219.263 57.3518 216.978L57.0253 216.978ZM74.3064 213.743C71.0406 213.737 67.7803 214.385 66.1278 212.098C65.4663 211.117 65.1313 210.138 65.1174 208.506L64.7212 162.164C64.6682 155.963 70.5579 157.278 74.4769 157.285C81.9884 157.297 83.3813 167.416 83.4315 173.29L83.6407 197.767C83.7049 205.273 81.8179 213.755 74.633 213.743L74.3064 213.743ZM88.9193 165.793L89.2515 166.447C92.2521 173.631 92.0623 189.622 90.8201 197.126C90.8257 197.779 90.5019 198.105 90.5102 199.084C90.192 200.062 89.8822 202.02 89.2346 202.671C89.2234 201.366 89.5333 199.408 89.5221 198.103C89.5081 196.471 89.4914 194.513 89.4775 192.881C89.4607 190.923 89.7789 189.945 89.7622 187.987L89.6813 178.522C89.6673 176.891 89.3324 175.911 89.3184 174.279C89.3073 172.974 89.2933 171.342 89.2822 170.037C89.271 168.731 88.9332 167.425 88.9221 166.12L88.9193 165.793ZM50.6529 159.204L51.1467 216.968C49.8403 216.966 47.8836 217.289 47.2388 218.267C47.571 218.92 51.183 221.211 51.2276 226.432L51.6405 274.733C51.6601 277.017 51.3474 278.648 50.3816 280.279C49.4158 281.909 48.4388 282.234 48.1346 284.844C50.0941 284.847 52.0536 284.85 54.3397 284.854C56.6258 284.858 57.9322 284.86 58.5686 282.903L59.2301 283.883C59.5595 284.21 59.8889 284.537 60.5421 284.538L68.7067 284.551C68.6733 280.635 65.4158 281.609 65.3488 273.776L64.947 226.781C64.9331 225.15 65.2401 222.866 65.8849 221.888C70.7837 221.896 76.0119 222.231 79.5932 220.931C86.432 218.658 90.3176 214.748 93.536 209.205C94.1808 208.227 94.5018 207.575 94.82 206.597C96.0957 203.009 97.042 199.094 97.0001 194.199L96.8495 176.576C96.7267 162.216 86.8147 148.82 73.0981 148.797L59.3814 148.775C58.4017 148.773 57.7541 149.425 57.4358 150.403L57.1176 151.382C56.7799 150.076 55.7917 149.095 54.4854 149.093C47.3005 149.081 45.662 148.426 47.32 151.366C47.9871 152.999 50.2788 153.655 50.3263 159.203L50.6529 159.204Z" fill="#FEFEFE"/>
<path fill-rule="evenodd" clip-rule="evenodd" d="M293.436 256.465C293.43 255.812 293.763 256.465 293.436 256.465C293.436 256.465 293.442 257.118 293.436 256.465ZM321.218 255.536C321.548 255.863 321.542 255.21 321.548 255.863C321.551 256.19 321.551 256.19 321.224 256.189L321.215 255.209L321.218 255.536ZM306.708 203.917L310.493 225.475C309.185 225.473 308.534 225.798 307.886 226.45C308.222 227.43 308.873 227.105 310.198 229.066C311.852 231.355 314.539 239.523 309.962 239.515L304.404 239.505C303.096 239.503 302.104 238.195 302.092 236.888C302.084 235.909 302.399 234.603 302.391 233.624C302.695 231.012 303.332 229.054 305.276 227.098C305.6 226.772 305.924 226.446 306.249 226.12C305.592 225.793 304.935 225.465 303.297 225.135L306.077 206.528C306.072 205.875 306.387 204.569 306.381 203.916L306.708 203.917ZM321.218 255.536C321.218 255.536 321.215 255.209 321.218 255.536L320.535 252.269C320.197 250.963 320.189 249.983 319.85 248.676L318.48 241.49C318.121 237.897 316.427 231.037 315.736 226.791C315.389 224.504 311.248 199.68 311.22 196.415L313.6 206.868C313.938 208.175 313.947 209.155 314.285 210.461C315.306 215.035 316.332 220.261 317.029 225.16C317.376 227.447 318.053 230.06 318.073 232.346C318.084 233.652 318.423 234.959 318.758 235.939C319.096 237.246 319.105 238.226 319.446 239.859C319.79 241.819 321.528 253.577 321.542 255.21L321.218 255.536ZM303.046 196.4C303.063 198.359 301.529 209.785 301.219 211.744C299.977 219.252 299.059 226.434 297.816 233.942L295 248.304C294.684 249.61 294.693 250.589 294.377 251.895L293.425 255.159C293.39 251.24 298.967 215.984 299.9 210.435L302.407 198.031C302.404 197.705 302.401 197.378 302.398 197.052L302.716 196.073L303.046 196.4ZM303.046 196.4L303.038 195.42L303.365 195.421C303.365 195.421 303.368 195.747 303.37 196.074C303.373 196.4 303.373 196.4 303.046 196.4ZM299.026 185.29C299.06 189.209 295.319 210.1 294.711 215.324C294.401 217.282 294.086 218.588 294.1 220.221C294.109 221.2 293.788 221.853 293.793 222.506C293.799 223.159 293.481 224.138 293.489 225.117C292.181 225.115 291.203 225.44 290.228 226.091C290.564 227.071 292.204 227.727 292.233 230.993C292.247 232.625 287.915 260.7 287.611 263.311C287.301 265.27 286.986 266.576 286.343 267.881C285.698 268.859 285.698 268.859 285.05 269.511C284.077 270.489 284.404 270.489 284.089 271.795C285.724 271.798 287.031 271.8 288.666 271.803C290.301 271.806 291.611 272.135 291.924 270.503C293.9 272.139 290.628 271.807 299.782 271.824C299.745 267.579 298.136 270.514 298.409 264.311L300.575 250.274C300.89 248.968 300.885 248.315 301.53 247.337C301.851 246.684 303.15 245.707 304.131 245.709L311.651 245.722C315.574 245.73 315.62 250.954 315.972 253.894C316.996 258.794 317.679 262.06 317.724 267.285C317.744 269.571 316.428 268.589 316.456 271.854C318.418 271.858 322.671 272.192 323.319 271.54L323.965 270.562C324.303 271.868 325.287 272.197 327.248 272.2C328.883 272.203 330.518 272.206 332.153 272.209C331.817 271.229 331.814 270.902 331.155 270.248C329.83 268.287 328.852 268.611 328.158 264.039C326.446 255.219 325.388 246.401 323.676 237.581C323.327 234.968 322.312 231.048 323.597 228.438C323.918 227.785 324.569 227.46 324.89 226.807C323.579 226.479 323.247 225.825 321.612 225.822C321.601 224.516 316.769 195.445 316.084 191.852C314.355 181.073 316.678 184.996 316.644 181.077C316.641 180.751 316.638 180.424 315.984 180.423C314.023 180.42 309.116 180.084 308.14 180.735C307.816 181.061 307.816 181.061 307.819 181.388L307.498 182.04C307.157 180.407 305.849 180.405 303.887 180.401C301.926 180.397 300.291 180.394 298.329 180.391C297.698 183.002 299.66 183.006 299.686 185.944L299.026 185.29Z" fill="#FEFEFE"/>
<path fill-rule="evenodd" clip-rule="evenodd" d="M291.631 305.891C291.961 306.218 292.317 309.486 292.323 310.139C292.664 311.774 292.676 313.08 293.015 314.388C293.353 315.695 293.368 317.329 293.707 318.636C294.045 319.944 294.39 321.905 294.401 323.212L288.839 323.201L290.69 310.463C291.005 309.157 291.318 307.524 291.306 306.217L291.631 305.891ZM280.318 284.633C279.374 288.879 283.587 284.313 282.032 293.458C280.48 302.929 278.279 313.053 277.054 322.525C276.124 328.404 272.189 327.416 270.895 329.047C271.228 329.701 271.225 329.375 271.882 329.702C273.524 330.359 273.854 330.686 275.171 331.669C275.183 332.976 274.873 334.936 274.557 336.242C274.253 338.855 273.324 344.734 271.372 346.037C270.721 346.362 270.066 346.361 270.075 347.341C270.081 347.995 270.414 348.649 271.068 348.65L288.737 348.684C289.719 348.686 289.71 347.706 289.704 347.052C289.69 345.419 286.759 347.047 286.728 343.453C286.704 340.839 287.649 336.594 287.634 334.96C297.777 334.98 296.79 334.324 297.137 336.612C297.491 339.553 297.829 340.86 297.858 344.128C297.876 346.088 295.912 346.084 295.261 346.41C295.264 346.736 294.624 348.369 295.933 348.371L313.274 348.404C314.583 348.407 313.912 346.445 313.912 346.445C313.254 346.117 312.276 346.442 311.277 344.48C310.941 343.499 309.565 335.982 309.224 334.348C308.882 332.714 307.892 331.732 312.131 330.107C312.783 329.781 312.786 330.108 313.104 329.128C312.122 329.126 311.465 328.799 310.805 328.144C307.516 326.177 307.507 325.197 307.154 322.256L302.009 295.456C301.661 293.169 300.318 289.246 301.612 287.615C302.261 286.962 303.243 286.964 303.234 285.984C303.228 285.331 302.895 284.677 302.241 284.675C299.623 284.67 282.606 284.311 281.303 284.962L280.318 284.633Z" fill="#FEFEFE"/>
<path fill-rule="evenodd" clip-rule="evenodd" d="M175.54 295.747L175.692 313.056C175.7 314.036 173.425 315.665 172.123 316.316C171.145 316.64 171.145 316.64 170.494 316.966C171.159 318.273 175.743 318.935 175.766 321.548L175.91 337.878C175.938 341.144 174.653 343.755 173.038 346.038C171.741 347.342 173.058 348.324 173.385 348.324L207.071 348.387C207.725 348.389 208.046 347.736 208.04 347.083L207.928 334.345C207.92 333.366 206.939 333.364 206.285 333.363C205.631 333.361 205.309 334.014 204.988 334.667C203.694 336.297 201.738 336.947 199.448 336.942L188.656 336.922L188.535 323.205L198.674 323.224C202.598 323.231 202.948 325.845 203.935 326.5C204.592 326.827 205.57 326.503 205.562 325.523L205.415 308.866C205.407 307.886 204.426 307.885 203.772 307.883C202.79 307.881 203.453 308.863 201.175 310.165C198.573 311.793 192.027 311.127 188.102 311.12L187.97 296.096C191.241 296.102 199.738 295.465 201.715 297.102C202.372 297.43 204.024 299.392 204.024 299.392C204.678 299.394 205.656 299.069 205.651 298.416C205.625 295.476 205.874 286.659 205.2 284.371C202.905 283.714 177.072 283.992 172.493 283.983C171.185 283.981 170.869 285.287 171.529 285.941C171.859 286.268 172.186 286.269 172.519 286.923C174.174 289.212 174.851 291.826 174.88 295.092L175.54 295.747Z" fill="#FEFEFE"/>
<path fill-rule="evenodd" clip-rule="evenodd" d="M217.894 285.27C217.906 286.576 217.903 286.25 219.218 286.906C220.205 287.561 221.195 288.543 221.528 289.197L230.243 312.737C230.246 313.063 227.646 315.019 226.667 315.343C225.689 315.668 226.013 315.342 225.367 316.321C226.027 316.976 226.352 316.65 227.996 317.633C229.311 318.289 229.317 318.942 230.304 319.598C228.054 324.167 222.963 340.493 221.02 342.776C218.434 346.365 217.117 345.382 217.128 346.689C217.134 347.342 217.467 347.996 218.122 347.998L234.482 348.029C235.463 348.031 235.455 347.051 235.449 346.397C235.443 345.744 233.804 345.414 234.76 342.476C235.403 341.17 235.718 339.864 236.358 338.232C236.993 335.946 238.921 332.029 239.231 330.069C239.561 330.397 239.561 330.397 239.564 330.723L244.263 344.127C244.281 346.088 243.299 346.086 243.308 347.066C243.313 347.719 243.971 348.047 244.298 348.048C247.243 348.054 259.025 348.403 261.31 347.754C261.938 344.815 259.995 347.098 256.674 341.538C256.011 340.556 255.672 339.249 255.006 337.941L247.646 319.631C247.637 318.651 250.892 316.697 252.198 316.373L252.189 315.393C250.55 315.063 247.588 313.097 247.582 312.443C247.577 311.79 249.491 306.24 249.809 305.26C250.768 302.648 251.405 300.689 252.363 298.077C253.316 294.812 254.582 289.914 256.528 287.957C258.471 285.674 259.139 287.309 259.119 285.022C259.113 284.369 258.783 284.041 258.129 284.04L242.423 284.01C241.769 284.009 241.444 284.335 241.453 285.315C241.465 286.622 243.746 285.646 241.832 291.196C241.517 292.503 239.617 299.686 238.968 300.339C237.943 295.436 233.956 288.567 235.572 286.284C236.218 285.305 236.551 285.959 235.879 283.997C233.583 283.339 222.134 283.644 219.189 283.638C218.534 283.637 218.21 283.963 218.216 284.617L217.894 285.27Z" fill="#FEFEFE"/>
<path fill-rule="evenodd" clip-rule="evenodd" d="M235.465 261.721C235.459 261.068 235.778 260.089 236.096 259.11C237.335 251.278 236.949 244.422 236.881 236.588L237.555 238.874C237.887 239.527 237.896 240.507 237.904 241.486C238.594 245.731 238.645 251.607 237.702 255.849L235.789 261.395C235.465 261.721 235.789 261.395 235.465 261.721V261.721ZM217.137 220.558C215.495 219.576 214.159 216.309 213.492 214.676C212.486 211.736 212.466 209.451 211.784 206.185C211.435 203.573 211.725 199.33 212.032 197.045C212.342 195.087 212.976 192.803 213.618 191.499C213.615 191.172 213.939 190.846 213.936 190.52C214.26 190.194 214.257 189.868 214.584 189.868C214.593 190.847 213.942 191.173 213.632 193.131C213.319 194.762 213.328 195.742 213.015 197.373C212.407 202.595 212.821 212.716 215.151 217.616C215.483 218.27 216.481 220.23 216.81 220.557L217.137 220.558ZM207.494 201.281C207.548 207.484 207.272 213.359 210.587 218.914C212.576 222.182 214.227 224.144 217.838 226.108C223.095 229.382 225.689 227.101 228.977 229.392C231.608 231.355 232.31 236.906 232.341 240.497C232.391 246.373 233.135 256.82 231.217 261.714C229.941 265.302 227.986 265.952 225.045 265.946C217.856 265.934 218.053 250.918 219.332 247.656C219.656 247.33 222.566 243.744 220.605 243.741C217.664 243.736 214.064 243.077 213.754 245.035L213.428 245.034C212.757 243.074 209.168 243.721 205.901 243.715C205.923 246.327 207.227 246.003 207.901 248.289C208.574 250.575 207.977 257.103 211.293 262.658C213.946 267.233 218.89 272.138 225.099 272.149C231.308 272.16 233.91 270.858 237.795 266.622C244.924 259.779 243.2 249.33 243.115 239.536C243.076 234.966 242.394 231.701 244.327 228.44C245.293 226.809 245.622 227.136 246.267 226.158C244.957 225.829 243.309 224.194 240.059 226.147C239.084 226.798 239.087 227.125 238.112 227.776C237.118 226.142 234.16 224.178 232.518 223.196C229.563 221.559 227.278 221.881 224.331 221.223C217.788 220.232 218.649 206.524 218.601 200.974C218.57 197.383 218.866 193.793 219.497 191.182C220.452 188.246 222.066 185.964 225.66 185.97C233.503 185.984 233.309 201.326 231.703 204.588C231.064 206.219 230.081 205.891 230.1 208.176C232.061 208.179 236.312 208.513 236.96 207.861C237.284 207.535 237.284 207.535 237.278 206.882C238.594 207.864 237.289 208.188 240.557 208.194C242.191 208.197 243.498 208.199 245.132 208.202C244.777 204.937 242.503 206.565 242.447 200.036C242.405 195.14 240.396 189.587 237.424 185.991C235.114 183.375 232.81 181.412 229.207 180.427C222.984 178.784 217.773 180.733 213.561 184.97C209.35 189.206 207.438 194.752 207.491 200.955L207.494 201.281Z" fill="#FEFEFE"/>
<path fill-rule="evenodd" clip-rule="evenodd" d="M254.912 252.542L254.585 252.541C254.551 248.624 254.193 245.032 254.162 241.441L253.688 224.465C253.651 220.221 253.944 216.304 253.907 212.061C253.871 207.817 254.166 204.226 254.13 199.983L254.456 199.983C254.49 203.901 254.845 207.166 254.879 211.083L254.914 252.868L254.912 252.542ZM249.225 199.648L249.451 225.764C247.817 225.761 247.167 226.086 246.192 226.737C246.854 227.718 247.507 227.719 248.172 229.026C251.821 235.235 246.736 251.874 252.055 262.33C253.05 263.964 253.382 264.617 254.377 266.251C261.639 274.752 273.077 274.772 279.542 266.622C286.007 258.472 283.668 252.592 284.939 248.35C285.578 246.719 286.883 246.395 286.863 244.11C283.595 244.104 279.995 243.445 279.361 245.729L279.031 245.402C278.372 244.748 278.042 244.421 277.062 244.419L271.507 244.409C271.532 247.348 273.817 247.025 273.851 250.942C273.888 255.186 274.279 262.695 270.707 265.301C268.437 267.255 264.186 266.921 262.529 264.307C259.881 260.385 259.822 253.53 259.779 248.633L259.661 234.922C259.641 232.637 260.275 230.353 261.568 228.723C261.889 228.07 262.539 227.745 262.863 227.419C261.877 226.765 261.221 226.437 259.587 226.434C259.531 219.905 259.029 199.665 259.961 194.117C261.518 185.305 269.367 185.972 271.7 191.199C273.032 194.14 274.089 202.955 272.483 206.217C271.841 207.522 271.187 207.521 271.204 209.479L277.413 209.49C278.067 209.491 278.388 208.839 278.709 208.187C280.684 209.822 277.413 209.49 286.563 209.506C286.535 206.242 284.261 207.87 283.881 201.667C283.526 198.402 283.506 196.117 282.171 192.85C279.841 187.949 276.539 184.026 271.296 182.385C267.364 181.072 262.138 181.389 258.563 183.668C257.912 183.993 257.589 184.319 256.938 184.645C256.287 184.97 255.963 185.296 255.315 185.947C251.428 189.858 248.856 194.75 248.907 200.626L249.225 199.648Z" fill="#FEFEFE"/>
<path fill-rule="evenodd" clip-rule="evenodd" d="M323.584 301.947C323.664 311.091 325.299 311.094 332.22 317.311C333.539 318.619 333.24 321.884 332.601 323.516C332.28 324.168 331.964 325.474 332.939 324.823C334.568 324.173 334.887 323.193 338.156 323.199C338.81 323.201 342.438 326.799 343.428 327.781C345.077 329.417 344.429 330.068 344.46 333.661C344.489 336.926 341.219 336.92 339.257 336.916C337.295 336.913 336.303 335.605 335.635 333.971C334.625 330.704 335.601 330.052 333.633 329.396L328.714 327.754C321.828 325.455 322.479 325.13 322.531 331.008C322.608 339.825 329.551 348.654 338.052 348.67C342.303 348.678 343.938 348.681 347.847 347.055C354.036 344.454 356.928 338.582 356.859 330.744C356.785 322.254 354.817 321.597 348.559 316.361C348.229 316.034 348.229 316.034 347.902 316.033C346.583 314.725 346.881 311.46 347.518 309.502C348.476 306.891 345.559 309.825 342.944 309.82C340.982 309.816 340.658 310.142 338.346 307.525C335.378 304.581 336.04 305.562 335.989 299.684C335.966 297.072 337.916 295.769 340.532 295.774C344.456 295.781 343.185 300.024 344.504 301.332L351.72 303.958C356.639 305.6 355.988 305.925 355.939 300.374C355.917 297.761 354.574 293.84 353.247 291.552C352.584 290.571 352.254 290.244 351.592 289.263C350.599 287.955 348.626 286.645 347.313 285.99C342.385 283.368 334.217 284.006 329.668 287.264C327.069 289.218 325.452 291.174 324.172 294.438C323.538 296.722 323.231 299.007 323.257 301.946L323.584 301.947Z" fill="#FEFEFE"/>
<path fill-rule="evenodd" clip-rule="evenodd" d="M284.037 99.3493L265.673 99.3149L266.335 99.9711C266.665 100.299 266.993 100.3 267.324 100.628L280.525 110.15C279.881 111.458 275.741 125.532 275.103 127.496C276.083 127.17 281.624 123.251 282.599 122.27L289.767 117.044L300.986 124.924C301.648 125.581 304.286 127.223 304.944 127.552C304.277 126.241 303.935 124.602 303.595 123.292L299.217 110.185C300.195 109.531 304.429 106.265 306.06 105.285L317.941 113.822L315.706 120.695C315.389 122.004 315.067 122.658 314.751 123.968C314.434 125.277 313.787 126.258 313.798 127.568C314.779 127.243 316.082 126.263 316.733 125.609L322.598 121.363C323.576 120.709 324.554 120.056 325.529 119.076C326.188 119.404 326.519 119.733 326.849 120.061C327.508 120.389 327.839 120.717 328.498 121.046L335.758 126.299C336.417 126.628 336.751 127.284 337.407 127.285L332.695 113.522L343.775 105.683C344.428 105.357 344.103 105.684 344.425 105.029L329.996 105.002C329.66 104.019 329.32 102.709 328.984 101.726L326.628 94.8442C326.291 93.8612 325.946 91.8956 325.287 91.5669L320.817 105.313C319.172 104.655 309.009 104.963 306.713 104.959C308.014 103.651 313.882 99.7326 314.207 99.4057L296.171 99.372L290.446 82.3323C289.793 82.6585 290.118 82.3317 289.796 82.986L284.693 99.3505L284.037 99.3493Z" fill="#FFED00"/>
<path fill-rule="evenodd" clip-rule="evenodd" d="M194.198 100.709L176.162 100.675C176.495 101.331 177.154 101.659 177.813 101.988L181.771 104.615C182.43 104.944 183.419 105.601 183.753 106.256L169.652 106.23C168.985 104.919 165.608 93.7784 164.943 92.7947C164.29 93.121 163.027 98.6857 162.705 99.34L160.47 106.213L146.041 106.186C146.375 106.841 146.044 106.513 146.703 106.842C147.034 107.17 147.034 107.17 147.365 107.498L157.596 115.049C157.274 115.704 156.633 117.34 156.641 118.322C155.686 121.595 154.084 125.849 153.454 128.795C154.107 128.469 155.738 127.49 156.388 126.836L165.188 120.63C166.502 120.96 175.75 128.51 177.065 128.84L172.353 115.077L183.434 107.238C184.084 106.584 183.762 107.239 184.084 106.584L191.013 111.51L186.862 124.273C186.546 125.583 185.907 127.546 185.26 128.527C186.241 128.202 191.779 123.955 192.757 123.302L198.297 119.383C198.95 119.056 199.6 118.403 200.253 118.076C201.239 118.406 214.115 128.254 215.43 128.584C214.762 127.273 214.42 125.635 214.08 124.324L209.702 111.217C212.961 108.931 217.196 105.664 220.783 103.379C221.436 103.052 222.086 102.399 222.739 102.072C223.064 101.745 223.392 101.746 223.717 101.419C224.042 101.092 224.367 100.765 224.695 100.766L206.659 100.732C205.994 99.7486 205.649 97.7831 205.31 96.4726L201.605 85.3315C201.268 84.3485 201.262 83.6935 200.604 83.3648L195.181 100.711L194.198 100.709Z" fill="#FFED00"/>
<path fill-rule="evenodd" clip-rule="evenodd" d="M129.12 285.947L129.226 298.029C129.234 299.009 129.891 299.336 130.548 299.664C131.526 299.339 131.523 299.013 132.498 298.361C133.149 298.036 133.8 297.711 134.451 297.385C135.753 296.735 137.709 296.085 139.671 296.089L139.805 311.436C139.828 314.048 134.935 315.346 134.29 316.324C134.947 316.652 139.865 318.293 139.888 320.906L140.05 339.519C140.062 340.825 139.755 343.11 139.11 344.088C138.788 344.741 138.464 345.067 137.816 345.719C137.492 346.045 137.492 346.045 137.168 346.37C135.872 347.674 137.188 348.656 137.515 348.657L155.17 348.689C156.15 348.691 156.142 347.711 156.136 347.058C155.801 346.078 155.147 346.077 154.487 345.422C153.498 344.441 152.827 342.481 152.81 340.521L152.633 320.276C152.624 319.296 155.225 317.668 156.203 317.344C157.181 317.019 157.511 317.346 157.503 316.366C157.17 315.713 156.846 316.039 155.862 315.71C154.879 315.382 152.249 313.745 152.234 312.112L152.098 296.438C157.002 296.447 158.986 299.063 160.956 300.046C161.607 299.721 162.261 299.722 162.25 298.416C162.227 295.803 162.477 286.987 161.806 285.027C159.512 284.37 134.34 284.65 129.763 284.642C129.109 284.641 128.788 285.293 128.796 286.273L129.12 285.947Z" fill="#FEFEFE"/>
<path fill-rule="evenodd" clip-rule="evenodd" d="M237.584 92.8643L215.309 92.8203C215.645 93.802 223.554 99.05 224.215 99.7054C225.861 100.69 227.183 102 228.83 102.985C230.476 103.969 231.798 105.28 233.445 106.264L226.755 127.507C227.735 127.182 230.338 125.225 231.312 124.246L242.704 116.093C243.353 115.44 244.33 114.788 244.982 114.462L245.313 114.79L249.27 117.741C250.259 118.397 262.13 127.25 263.115 127.579L259.416 116.78C258.746 115.144 256.053 106.963 256.044 105.982C256.696 105.656 259.624 103.373 260.601 102.72C261.25 102.068 261.903 101.742 262.88 101.09L271.993 94.5674C272.646 94.2417 273.947 93.2632 274.269 92.6098L251.994 92.5657L245.265 72.604C244.932 71.9493 245.257 71.6229 244.599 71.2946C244.286 72.9291 243.32 74.8893 243.007 76.5238C242.367 78.1577 242.057 80.1192 241.416 81.7531L238.233 92.2115L237.584 92.8643Z" fill="#FFED00"/>
<path fill-rule="evenodd" clip-rule="evenodd" d="M439.478 353.139C439.472 352.484 439.806 353.14 439.478 353.139C439.478 353.139 439.483 353.794 439.478 353.139ZM427.495 369.81C424.873 369.805 431.337 359.343 431.296 354.76C431.233 347.559 424.36 348.855 421.116 352.777C419.822 354.738 418.528 356.7 417.234 358.661C416.262 359.969 415.618 361.277 414.646 362.584C412.381 365.853 404.927 375.659 401.649 375.653C397.387 375.644 405.131 361.584 405.766 359.294C406.404 357.331 404.098 356.017 402.459 356.014C399.18 356.008 395.267 358.292 393.303 358.615C394.916 355.672 395.563 354.691 395.531 351.091C395.502 347.817 392.227 348.138 390.616 351.409C389.653 353.698 389.343 355.662 389.694 358.281C390.03 359.264 390.033 359.591 391.019 359.92L389.415 363.845C388.13 366.789 385.864 370.058 383.92 372.672C381.648 375.287 379.704 377.902 377.433 380.516L374.178 383.129C372.875 384.108 370.914 384.759 369.275 384.756C367.635 384.753 365.976 382.458 365.959 380.494C365.933 377.548 366.246 375.912 367.206 373.295C367.848 371.66 368.495 370.679 369.466 369.371C374.32 362.179 380.233 363.5 378.634 368.08C377.349 371.023 373.116 374.288 370.174 375.265C369.194 375.59 368.538 375.589 367.891 376.57C371.506 377.559 381.283 371.031 381.234 365.466C381.208 362.52 378.254 362.187 375.959 362.183C371.698 362.174 367.134 365.112 364.21 368.052C363.885 368.379 363.56 368.705 363.238 369.359C360.641 372.3 358.706 375.897 358.743 380.153C358.79 385.39 361.441 388.669 366.687 388.679C372.915 388.691 378.439 383.137 382.008 378.888C382.658 378.235 382.98 377.581 383.627 376.6C385.249 374.639 386.87 372.678 388.162 370.389C389.453 368.1 390.744 365.812 392.035 363.523C392.998 361.233 392.992 360.579 396.598 360.585C399.221 360.591 396.961 364.514 395.681 368.112C394.718 370.402 393.424 372.363 393.45 375.31C393.505 381.529 399.409 381.868 403.648 379.257C406.256 377.625 408.203 375.338 410.149 373.05C410.474 372.724 410.799 372.397 411.124 372.07C412.096 370.763 413.068 369.455 414.04 368.148L416.953 363.898C417.603 363.245 417.594 362.263 418.244 361.609L421.157 357.359C422.129 356.052 424.07 353.11 425.706 352.785C428.648 351.809 424.127 359.656 423.805 360.31C422.198 363.908 421.235 366.198 421.272 370.453C421.313 375.036 425.581 375.699 428.511 373.413C431.769 371.128 434.354 366.877 436.289 363.28L440.798 354.124C440.806 355.106 440.162 356.414 439.846 357.723C438.587 363.612 436.672 369.501 434.426 375.061C433.463 377.35 432.497 379.313 431.531 381.275C427.985 388.142 420.863 398.276 412.011 398.259C408.733 398.252 405.777 397.592 403.464 395.623C403.134 395.296 402.475 394.967 402.144 394.639L400.154 392.016C399.818 391.034 399.815 390.706 398.831 390.705C398.849 392.669 400.175 394.308 401.497 395.62C402.493 396.931 404.143 398.243 405.788 398.901C409.737 400.546 413.996 400.226 418.246 398.925C425.113 396.974 431.29 391.094 434.85 385.864C436.79 382.921 438.401 379.651 439.68 376.053C441.595 370.165 443.176 363.621 443.121 357.402C443.095 354.455 443.685 346.928 444.976 344.639C445.942 342.677 446.931 343.333 448.561 342.355C448.886 342.028 449.211 341.701 449.536 341.374C448.852 338.1 445.248 338.42 443.638 341.69C442.997 343.326 442.681 344.635 442.37 346.598C442.066 349.216 438.839 355.102 437.551 357.718C437.232 358.7 436.907 359.026 436.588 360.008L434.331 364.259C433.362 365.893 430.458 371.125 428.491 371.121L427.495 369.81Z" fill="#FEFEFE"/>
<path fill-rule="evenodd" clip-rule="evenodd" d="M315.236 387.046L314.911 387.373L315.236 387.046ZM314.911 387.373C314.6 389.337 313.3 390.644 313.323 393.264C313.706 399.486 318.952 399.496 322.217 397.865C324.829 396.56 328.404 392.965 330.352 390.676C331.649 389.042 332.621 387.734 333.593 386.425C336.185 382.828 337.151 380.865 339.418 377.595L339.74 376.941C339.781 381.525 339.832 387.42 338.889 392.002C338.575 393.639 337.281 395.601 341.527 393.645C345.444 391.687 346.089 390.379 348.019 386.125C350.596 380.891 352.175 374.017 354.744 367.8C355.063 366.818 356.68 364.202 357.658 363.549C358.311 363.222 358.638 363.223 359.297 363.552C359.625 363.552 361.607 365.193 360.281 363.554C360.278 363.226 359.619 362.897 359.619 362.897C357.64 361.584 354.695 362.233 353.4 364.196C349.848 370.411 347.705 387.762 344.121 390.375C344.757 388.084 345.076 387.102 345.05 384.155C345.019 380.553 344.616 372.038 340.991 370.066C340.661 369.738 340.005 369.737 339.677 369.737C338.69 369.407 339.349 369.736 338.037 369.733C338.057 372.026 338.371 370.389 339.041 372.028C340.042 373.994 338.104 377.265 337.14 379.556L331.637 387.732C328.718 391.328 318.987 403.426 321.472 387.713C322.09 383.457 322.726 381.166 324.662 377.567C325.95 374.95 322.355 376.253 321.38 377.234C318.774 379.194 315.227 386.064 312.958 389.006L310.369 392.931C307.774 396.201 304.21 401.106 299.959 402.408C297.341 403.058 297.324 401.093 297.304 398.801C297.272 395.199 298.547 390.944 299.832 387.999C304.314 375.564 305.948 374.913 310.455 365.425C311.096 363.789 314.974 357.247 312.011 355.931C308.389 354.287 299.599 361.475 299.283 362.784C298.978 365.403 306.097 354.61 301.955 368.356C299.723 375.556 295.555 386.354 291.675 392.568C290.705 394.204 289.411 396.166 288.114 397.801L285.194 401.398C284.872 402.052 284.544 402.051 284.222 402.706C281.949 405.321 274.474 412.839 271.476 407.594C268.816 403.332 272.676 394.825 275.601 391.883C276.901 390.576 278.523 388.614 280.819 388.619C284.095 388.297 285.444 392.557 278.276 397.783C277.626 398.436 276.645 398.762 275.667 399.415C273.705 400.066 273.375 399.738 272.727 400.719C274.045 401.377 277.31 399.746 278.616 399.093C289.71 392.892 287.978 382.41 276.216 387.3C274.255 387.951 272.952 388.931 271.324 390.238C267.09 393.505 262.881 399.718 263.592 405.941C264.291 410.855 266.937 413.479 272.506 412.835C279.715 412.193 286.204 404.347 290.09 398.787L293.329 394.209C292.06 399.118 292.135 407.632 299.666 406.337C304.248 405.363 307.817 401.113 310.409 397.516L315.587 389.666L314.911 387.373Z" fill="#FEFEFE"/>
<path fill-rule="evenodd" clip-rule="evenodd" d="M196.083 227.099L196.014 218.621C195.993 216.012 196.301 213.73 196.28 211.121C196.238 205.904 196.524 201.013 196.482 195.796L196.808 195.796C196.826 198.079 197.163 199.383 197.181 201.666L197.723 228.405C197.741 230.688 197.762 233.296 197.781 235.579L196.974 256.773C196.934 251.882 196.569 246.99 196.53 242.099C196.49 237.208 196.125 232.316 196.083 227.099V227.099ZM188.866 180.787C188.887 183.396 191.486 182.421 191.541 189.268L191.833 225.464C190.204 225.462 189.555 225.787 188.582 226.438C189.57 227.743 191.859 228.724 191.896 233.29L192.138 263.289C192.196 270.463 189.576 268.829 189.602 272.09C191.883 272.093 195.797 272.424 196.769 271.773C197.092 271.447 196.769 271.773 197.09 271.121C197.413 270.795 197.09 271.121 197.41 270.469C197.744 271.448 198.075 272.1 199.053 272.101L204.919 272.108C204.895 269.173 202.617 269.497 202.585 265.584L202.317 232.323C202.29 229.063 204.558 227.435 205.202 226.457C204.222 226.13 203.565 225.477 202.261 225.476L201.954 187.324C201.92 183.085 204.201 183.088 204.185 181.131C204.177 180.153 202.224 180.477 199.291 180.473C196.684 180.47 197.341 181.123 196.372 182.1C196.03 180.143 192.448 180.465 189.515 180.462C189.189 180.462 188.863 180.461 188.866 180.787V180.787Z" fill="#FEFEFE"/>
<path fill-rule="evenodd" clip-rule="evenodd" d="M191.427 392.149C191.456 395.42 191.807 398.037 194.121 400.331C196.104 402.297 196.75 401.317 196.089 400.662C195.095 399.352 194.118 400.004 194.086 396.406C194.057 393.135 199.577 387.586 201.525 385.627C208.355 380.081 216.175 375.19 224.669 372.59C233.489 369.664 235.782 369.669 244.955 369.687C248.887 369.694 253.488 371.339 255.796 372.979C257.115 373.963 258.106 374.946 259.104 376.583C263.76 384.442 258.594 392.936 254.063 399.141C252.445 401.427 248.876 405.345 246.925 406.977C243.675 409.914 242.048 411.219 238.137 413.501C236.508 414.479 234.876 415.13 233.249 416.435C230.643 418.065 222.806 420.993 219.867 421.968C216.599 422.943 213.984 423.592 210.386 424.239C207.443 424.888 203.187 425.206 200.233 424.546C199.578 424.545 194.643 422.246 197.948 425.523C204.886 432.078 222.204 426.879 229.385 423.95C240.158 419.719 250.584 413.198 256.721 403.398C262.54 394.579 265.387 383.137 259.402 373.313C252.424 362.179 236.382 363.455 225.6 366.705C218.41 368.653 215.479 370.61 209.935 373.542C204.064 376.474 191.366 385.28 191.433 392.803L191.427 392.149Z" fill="#FEFEFE"/>
<path fill-rule="evenodd" clip-rule="evenodd" d="M127.197 109.723C126.538 109.394 126.541 109.722 126.544 110.049L126.219 110.376L125.566 110.703C124.91 110.701 125.563 110.375 124.913 111.029C124.262 111.683 124.588 111.356 124.59 111.683L123.94 112.337C123.612 112.337 123.612 112.337 123.943 112.665C123.946 112.992 123.946 112.992 123.618 112.992C123.618 112.992 123.621 113.319 123.618 112.992L122.968 113.646C122.971 113.973 122.646 114.3 122.648 114.628C122.654 115.283 122.335 116.265 122.013 116.919C121.403 122.159 123.077 126.092 125.407 130.027C122.125 129.694 121.791 129.038 116.871 129.029C114.575 129.025 109.984 129.016 108.353 129.996L109.011 130.325C104.423 130.644 101.166 133.258 99.5319 133.91C98.8731 133.581 98.8759 133.909 98.5537 134.563C98.2286 134.89 98.2257 134.563 97.9035 135.217L97.2504 135.543C96.2694 135.869 92.3768 140.775 94.7271 147.003C95.0608 147.659 95.0665 148.314 95.3974 148.642C95.7311 149.297 96.0619 149.626 96.3985 150.609L96.7179 149.627C97.0487 149.955 96.7179 149.627 97.0487 149.955C97.3795 150.283 97.0516 150.283 97.3767 149.956C97.3681 148.973 97.0315 147.99 97.02 146.68C97.0085 145.369 97.3308 144.715 97.3193 143.405C96.977 141.766 97.6329 141.768 98.2774 140.459C98.5996 139.804 98.5996 139.804 99.2527 139.478C99.9086 139.479 99.2584 140.133 99.9057 139.151L100.556 138.497C101.865 138.172 105.438 134.248 118.894 135.256C119.222 135.257 119.222 135.257 119.55 135.257C129.066 135.93 138.278 139.222 148.132 140.878C151.417 141.539 154.7 141.873 158.635 141.88C165.195 141.892 169.781 141.246 175.002 138.307L176.306 137.327C176.631 137 176.634 137.328 176.631 137L176.297 136.344C174.988 136.67 173.679 136.995 172.367 136.992C159.26 138.278 142.182 135.626 131.941 127.091C131.279 126.435 131.279 126.435 130.945 125.779C127.306 122.17 128.261 118.896 128.558 115.294L128.555 114.966L128.552 114.639C129.521 113.003 129.516 112.348 131.15 111.695C131.478 111.696 131.15 111.695 131.806 111.697L132.459 111.37C132.784 111.043 133.112 111.044 133.768 111.045C137.364 109.742 139.671 111.056 141.981 112.698L142.643 113.354L143.311 114.666C142.994 115.975 143.978 115.977 143.342 118.269C143.348 118.924 143.026 119.578 142.701 119.905C142.378 120.56 142.05 120.559 142.059 121.542C142.715 121.543 142.387 121.542 142.715 121.543C143.368 121.217 143.043 121.544 143.04 121.216C143.365 120.889 143.037 120.889 143.365 120.889L143.69 120.562C144.015 120.235 144.015 120.235 144.34 119.908C144.332 118.926 144.338 119.581 144.982 118.272C145.304 117.617 145.301 117.29 145.624 116.635C146.576 113.034 144.579 109.755 141.61 107.784C135.345 103.842 129.806 108.09 127.844 108.741L127.197 109.723Z" fill="#FEFEFE"/>
<path fill-rule="evenodd" clip-rule="evenodd" d="M352.111 109.064L351.135 110.044C348.848 111.023 348.574 117.246 350.562 119.543C350.893 119.871 350.565 119.87 351.221 119.871C351.552 120.2 351.549 119.872 351.883 120.528L352.214 120.856C352.545 121.184 352.214 120.856 352.545 121.184C352.55 121.839 351.889 121.183 352.547 121.512C352.875 121.512 352.547 121.512 352.875 121.512L353.203 121.513L352.873 121.185C352.191 118.235 350.542 117.25 353.132 113.324C353.457 112.997 353.132 113.324 353.457 112.997C353.779 112.342 353.779 112.342 354.432 112.016C355.416 112.018 358.679 110.058 362.965 112.687C366.921 114.987 367.632 121.212 365.695 124.811C365.051 126.12 364.403 127.102 363.428 128.083C360.177 131.352 353.971 134.289 349.391 135.591C346.448 136.568 343.83 137.218 340.553 137.54C336.295 138.187 327.445 138.826 322.517 137.834C321.533 137.832 321.202 137.504 320.218 137.502C319.234 137.501 318.575 137.172 318.578 137.499C318.581 137.827 318.578 137.499 318.909 137.828C320.563 139.468 325.825 141.116 327.799 141.775C329.114 142.105 332.068 142.438 333.708 142.441C336.004 142.445 338.3 142.449 340.265 142.125C345.51 141.807 350.093 140.833 354.676 139.859L362.858 137.908C371.366 135.631 388.726 133.043 396.335 140.59C398.32 142.559 399.997 146.821 399.051 151.077C399.704 150.751 399.379 151.078 399.704 150.751L400.995 148.46C402.604 144.86 402.224 138.964 399.914 137.321L399.252 136.665C399.25 136.338 399.252 136.665 398.922 136.337C398.922 136.337 398.919 136.009 398.591 136.009C397.601 135.352 398.26 135.681 397.932 135.68L397.273 135.351C396.942 135.023 397.273 135.351 396.942 135.023C395.941 133.056 388.05 130.748 385.423 130.416C381.812 130.082 377.22 130.073 373.616 130.394C372.306 130.72 371.323 130.718 370.011 130.715C370.327 129.406 372.284 128.099 373.216 122.205C373.521 119.585 373.138 113.361 371.49 112.375L370.497 111.39C370.492 110.735 370.825 111.391 370.164 110.735C369.502 110.078 369.833 110.406 369.505 110.406L368.515 109.749C368.182 109.093 366.205 108.107 365.218 107.777C363.901 107.12 362.586 106.79 360.946 106.787C358.65 106.783 357.666 106.781 356.032 107.433C354.723 107.758 353.089 108.41 352.769 109.392L352.111 109.064Z" fill="#FEFEFE"/>
<path fill-rule="evenodd" clip-rule="evenodd" d="M106.81 147.809C106.15 147.479 106.153 147.808 105.83 148.464L105.179 149.121C103.547 150.433 102.252 152.731 101.946 155.358C101.628 156.672 101.97 158.315 102.309 159.629C102.645 160.615 103.316 162.259 103.978 162.917L104.64 163.575C104.643 163.903 104.314 163.903 104.643 163.903L104.974 164.232C104.979 164.889 104.976 164.561 105.307 164.889L105.97 165.547C108.293 168.507 113.545 168.185 116.5 168.189L205.5 168.302C208.455 168.306 207.142 168.304 208.453 167.977C208.111 166.334 206.474 166.989 206.444 163.375C179.186 163.341 151.928 163.306 124.67 163.272C121.386 163.267 113.835 163.586 111.531 162.926C108.899 162.266 106.909 159.964 106.888 157.336C106.877 156.022 107.197 155.036 106.861 154.051C106.525 153.065 106.856 153.393 107.504 152.409C108.153 151.424 107.827 151.752 108.807 151.096L109.79 150.769C114.043 148.803 115.044 150.776 117.018 151.107L117.68 151.765C118.345 152.751 119.007 153.409 119.343 154.395C120.011 155.71 119.693 157.023 120.358 158.01C120.686 158.01 120.689 158.339 121.02 158.668C121.354 159.325 122.008 158.997 122.993 158.999C123.319 158.671 122.993 158.999 122.991 158.67L123.637 157.357C123.631 156.7 123.629 156.371 123.623 155.714C123.271 152.757 121.273 149.47 118.304 147.823C117.976 147.823 117.973 147.494 117.645 147.494C117.314 147.165 116.985 147.165 116.326 146.835C115.01 146.505 114.35 146.176 113.036 146.174C111.723 146.172 110.737 146.171 109.427 146.498C108.116 146.825 107.793 147.481 106.482 147.808L106.81 147.809Z" fill="#FEFEFE"/>
<path fill-rule="evenodd" clip-rule="evenodd" d="M375.34 147.594L374.36 148.249C374.032 148.249 374.032 148.249 374.034 148.577L373.385 149.562L372.734 150.218C372.083 150.874 371.765 152.188 371.447 153.502C371.45 153.83 371.13 154.815 371.135 155.472C371.143 156.458 371.146 156.786 371.477 157.115C371.808 157.444 371.805 157.115 371.808 157.444C372.139 157.773 371.808 157.444 372.139 157.773C372.473 158.43 372.142 158.101 373.127 158.103C374.112 158.104 374.112 158.104 374.438 157.776C374.764 157.448 374.435 157.447 374.764 157.448C376.072 156.792 374.737 154.163 377.342 151.538C382.88 145.961 392.131 152.871 387.919 159.764C385.324 163.703 380.392 163.039 374.152 163.031C345.91 162.995 317.667 162.959 289.096 162.922C289.128 166.864 287.478 165.876 287.163 167.518L366.965 167.621C371.891 167.627 378.134 167.964 383.057 167.642C387.324 167.319 390.912 164.367 392.527 161.084C394.462 156.816 393.429 150.902 390.788 149.256C390.129 148.927 389.798 148.598 389.464 147.94C388.796 146.625 384.845 145.306 382.874 145.304C380.575 145.301 376.645 146.61 375.999 147.923L375.34 147.594Z" fill="#FEFEFE"/>
<path fill-rule="evenodd" clip-rule="evenodd" d="M140.683 154.756L142.655 154.757C141.35 156.073 137.401 155.412 133.798 157.057C132.815 157.386 133.801 157.386 132.488 157.715C132.16 157.715 131.826 157.056 132.162 158.044C132.17 159.032 134.139 158.704 135.125 158.704C142.684 158.709 203.816 159.077 204.8 158.748L205.452 158.09C204.788 157.101 204.125 156.442 203.463 155.783C201.81 154.464 198.187 153.474 196.547 153.802C196.218 153.802 196.547 153.802 196.218 153.802L195.889 153.802C194.901 153.472 194.243 153.472 193.26 153.8L149.22 153.773C147.579 154.101 141.992 154.098 141.009 154.426L140.683 154.756Z" fill="#FEFEFE"/>
<path fill-rule="evenodd" clip-rule="evenodd" d="M293.257 155.742L292.275 156.4C291.621 156.73 290.642 157.717 290.647 158.376C291.961 158.377 293.933 158.378 295.248 158.379L327.129 158.397C333.374 158.4 339.29 158.404 345.535 158.407C349.15 158.409 361.645 159.075 363.609 158.088C363.261 155.452 355.368 154.789 353.065 154.458C344.512 153.465 319.867 154.11 310.664 154.105C307.048 154.103 296.855 153.438 293.909 155.084C293.254 155.413 293.578 154.754 293.257 155.742V155.742Z" fill="#FEFEFE"/>
<path fill-rule="evenodd" clip-rule="evenodd" d="M49.3501 308.528C49.6788 308.528 49.6812 308.858 50.3386 308.858L105.556 308.889C106.542 308.89 106.196 306.583 106.189 305.595C104.871 305.265 98.6267 305.262 96.9833 305.261C93.699 305.588 96.3284 305.59 93.0392 305.258C92.3819 305.258 91.7245 305.258 91.0672 305.257L50.3116 305.234C48.9969 305.234 49.3403 307.211 49.3501 308.528V308.528Z" fill="#FEFEFE"/>
<path fill-rule="evenodd" clip-rule="evenodd" d="M48.7875 322.834C48.7972 324.152 48.4783 325.47 49.793 325.471L105.341 325.499C106.327 325.5 106.318 324.182 106.308 322.864C106.305 322.534 106.303 322.205 105.646 322.205L49.7687 322.176C49.44 322.176 49.1113 322.175 49.1162 322.834L48.7875 322.834Z" fill="#FEFEFE"/>
<path fill-rule="evenodd" clip-rule="evenodd" d="M379.569 321.864L379.912 323.841L433.817 323.869C437.103 323.87 436.78 324.529 436.758 321.564C436.753 320.905 436.422 320.575 435.764 320.575L380.217 320.546C379.559 320.546 379.235 321.204 379.24 321.863L379.569 321.864Z" fill="#FEFEFE"/>
<path fill-rule="evenodd" clip-rule="evenodd" d="M379.445 304.597L379.791 306.904L433.696 306.932C436.982 306.934 436.659 307.593 436.637 304.627C436.632 303.968 436.301 303.639 435.643 303.638L380.095 303.609C379.438 303.609 379.112 303.938 379.117 304.597L379.445 304.597Z" fill="#FEFEFE"/>
<path fill-rule="evenodd" clip-rule="evenodd" d="M207.656 415.715C207.664 416.694 207.349 417.999 208.656 418.001C209.636 418.003 209.301 417.023 209.613 415.392C211.165 405.929 216.291 394.187 220.136 385.381C220.778 384.076 224.952 375.597 224.949 375.271C224.943 374.618 223.301 373.636 221.372 377.223C218.164 384.072 215.283 390.922 212.405 398.097C210.808 402.338 207.619 411.472 207.656 415.715Z" fill="#FEFEFE"/>
<path fill-rule="evenodd" clip-rule="evenodd" d="M329.866 366.834C329.825 362.258 325.256 363.883 324.294 366.169C322.041 370.414 325.337 373.035 327.936 370.752C328.91 369.773 329.88 368.468 329.866 366.834V366.834Z" fill="#FEFEFE"/>
<path fill-rule="evenodd" clip-rule="evenodd" d="M127.241 109.803C128.874 109.152 134.411 105.237 140.997 108.849C143.964 110.818 145.957 113.767 145.009 117.691C145.014 118.346 144.69 118.672 144.368 119.326C143.721 120.306 143.718 119.979 143.727 120.961L143.73 121.288C146.975 117.695 146.595 111.805 141.65 108.523C138.355 106.553 134.092 106.218 129.846 107.845L127.563 109.15C126.913 109.803 127.235 109.149 126.916 110.13L127.241 109.803Z" fill="#FEFEFE"/>
<path fill-rule="evenodd" clip-rule="evenodd" d="M106.778 147.911C107.758 147.586 108.408 146.933 109.716 146.608C111.025 146.283 112.005 145.958 113.319 146.288C114.63 146.29 115.614 146.292 116.603 146.949C117.261 147.277 117.589 147.278 117.92 147.606C118.247 147.606 118.25 147.934 118.578 147.934C121.215 149.576 123.208 152.525 123.892 155.799C123.898 156.454 124.229 156.782 123.907 157.435L123.263 158.743C126.213 158.749 125.821 151.548 120.214 147.61C116.916 145.313 111.996 144.976 108.408 146.933C107.103 147.585 107.431 147.585 107.109 148.239L106.778 147.911Z" fill="#FEFEFE"/>
<path fill-rule="evenodd" clip-rule="evenodd" d="M132.158 157.724C133.468 157.398 132.486 157.725 133.465 157.07C137.387 155.108 141.332 155.77 142.308 154.787L140.339 154.784C139.026 154.782 136.734 155.435 135.752 155.761L132.809 157.069C132.155 157.396 132.155 157.396 132.161 158.052L132.158 157.724Z" fill="#FEFEFE"/>
<path fill-rule="evenodd" clip-rule="evenodd" d="M98.78 134.926C100.415 134.274 103.674 131.657 108.264 131.337L107.605 131.008C106.293 131.006 104.004 131.985 103.023 132.311L100.084 133.945C99.1053 134.599 99.4334 134.6 99.1082 134.927L98.78 134.926Z" fill="#FEFEFE"/>
<path fill-rule="evenodd" clip-rule="evenodd" d="M96.8821 144.371L97.5276 143.393C98.4887 141.108 98.8186 141.436 99.137 140.456C98.4858 140.782 98.4858 140.782 98.1645 141.434C97.1977 143.066 96.5436 143.064 97.2091 144.372L96.8821 144.371Z" fill="#FEFEFE"/>
<path fill-rule="evenodd" clip-rule="evenodd" d="M128.578 116.685C129.224 115.706 128.894 115.378 130.191 114.074L130.837 113.095C129.206 113.745 129.212 114.399 128.245 116.031L128.248 116.357L128.251 116.684L128.578 116.685Z" fill="#FEFEFE"/>
<path fill-rule="evenodd" clip-rule="evenodd" d="M107.128 153.816L109.065 150.88C108.089 151.531 108.413 151.205 107.767 152.184C107.119 152.836 107.119 152.836 107.128 153.816Z" fill="#FEFEFE"/>
<path fill-rule="evenodd" clip-rule="evenodd" d="M176.405 137.199L176.739 137.855C177.723 137.857 177.717 137.202 178.37 136.875C177.714 136.874 177.058 136.873 176.733 137.2L176.405 137.199Z" fill="#FEFEFE"/>
<path fill-rule="evenodd" clip-rule="evenodd" d="M318.442 137.53C318.44 137.202 319.427 137.531 320.083 137.532L317.121 136.543C317.455 137.2 317.455 137.2 318.442 137.53Z" fill="#FEFEFE"/>
<path fill-rule="evenodd" clip-rule="evenodd" d="M352.537 121.572C352.206 121.244 352.534 121.245 352.206 121.244L351.876 120.917C351.545 120.589 351.545 120.589 351.215 120.261C351.221 120.915 351.221 120.915 351.551 121.243C351.882 121.57 351.882 121.57 352.537 121.572Z" fill="#FEFEFE"/>
<path fill-rule="evenodd" clip-rule="evenodd" d="M142.422 121.895C143.077 121.896 143.399 121.243 144.052 120.917L144.049 120.59C143.724 120.916 143.724 120.916 143.399 121.243L143.074 121.569C142.749 121.896 143.074 121.569 142.749 121.896L142.422 121.895Z" fill="#FEFEFE"/>
<path fill-rule="evenodd" clip-rule="evenodd" d="M352.873 121.894C353.206 122.548 353.203 122.221 353.861 122.549C353.528 121.895 353.525 121.568 352.867 121.24L353.197 121.568L352.87 121.567L352.873 121.894Z" fill="#FEFEFE"/>
<path fill-rule="evenodd" clip-rule="evenodd" d="M390.544 149.257C390.211 148.602 389.881 148.275 389.223 147.946C389.556 148.601 389.886 148.929 390.544 149.257Z" fill="#FEFEFE"/>
<path fill-rule="evenodd" clip-rule="evenodd" d="M353.786 113.1C354.114 113.101 354.114 113.101 354.439 112.774C355.091 112.448 354.766 112.775 355.088 112.121C354.436 112.447 354.436 112.447 354.114 113.101L353.786 113.1Z" fill="#FEFEFE"/>
<path fill-rule="evenodd" clip-rule="evenodd" d="M351.142 110.5L352.123 109.514C351.466 109.842 351.136 109.841 351.142 110.5Z" fill="#FEFEFE"/>
<path fill-rule="evenodd" clip-rule="evenodd" d="M125.256 111.149L125.913 110.821L126.24 110.493C125.253 110.82 125.58 110.491 125.259 111.479L125.256 111.149Z" fill="#FEFEFE"/>
<path fill-rule="evenodd" clip-rule="evenodd" d="M397.69 135.583C397.354 134.924 397.684 134.925 396.691 134.593C397.024 134.923 396.691 134.593 397.024 134.923L397.687 135.254L397.69 135.583Z" fill="#FEFEFE"/>
<path fill-rule="evenodd" clip-rule="evenodd" d="M142.369 116.033L141.704 114.725C141.386 115.704 141.707 115.052 141.71 115.378C141.712 115.705 141.383 115.378 141.715 116.031C142.045 116.358 141.715 116.031 142.045 116.358L142.369 116.033Z" fill="#FEFEFE"/>
<path fill-rule="evenodd" clip-rule="evenodd" d="M371.229 112.783C370.89 111.794 371.223 112.124 370.23 111.793L371.229 112.783Z" fill="#FEFEFE"/>
<path fill-rule="evenodd" clip-rule="evenodd" d="M373.112 149.914L373.763 148.927C373.106 149.255 373.106 149.255 372.782 149.913L373.112 149.914Z" fill="#FEFEFE"/>
<path fill-rule="evenodd" clip-rule="evenodd" d="M372.181 158.05C371.85 157.722 372.181 158.05 371.85 157.722C371.52 157.394 371.52 157.394 371.52 157.394C371.525 158.049 371.525 158.049 372.181 158.05V158.05Z" fill="#FEFEFE"/>
<path fill-rule="evenodd" clip-rule="evenodd" d="M369.227 110.501C368.891 109.841 369.221 109.842 368.23 109.84L369.227 110.501Z" fill="#FEFEFE"/>
<path fill-rule="evenodd" clip-rule="evenodd" d="M292.275 156.426L293.26 155.768C292.272 156.096 292.6 155.767 292.275 156.426Z" fill="#FEFEFE"/>
<path fill-rule="evenodd" clip-rule="evenodd" d="M141.429 122.543C140.776 122.87 141.101 122.543 140.779 123.197C141.757 122.544 140.13 123.852 141.107 123.198C141.432 122.871 141.107 123.198 141.432 122.871L141.429 122.543Z" fill="#FEFEFE"/>
<path fill-rule="evenodd" clip-rule="evenodd" d="M374.491 158.048L374.817 158.048L374.814 157.722C374.165 158.047 374.488 157.721 374.491 158.048Z" fill="#FEFEFE"/>
<path fill-rule="evenodd" clip-rule="evenodd" d="M97.1481 136.228C97.47 135.573 97.4729 135.901 97.7977 135.574C96.8175 135.899 97.1423 135.572 97.1481 136.228Z" fill="#FEFEFE"/>
<path fill-rule="evenodd" clip-rule="evenodd" d="M122.956 113.751C123.28 113.424 122.953 113.423 123.28 113.424C122.953 113.423 122.953 113.423 122.628 113.751L122.631 114.078L122.956 113.751Z" fill="#FEFEFE"/>
<path fill-rule="evenodd" clip-rule="evenodd" d="M374.412 148.28L375.397 147.623C374.739 147.951 374.736 147.621 374.412 148.28Z" fill="#FEFEFE"/>
<path fill-rule="evenodd" clip-rule="evenodd" d="M96.4886 136.553L97.1411 136.227C96.8134 136.226 96.8105 135.898 96.8134 136.226C96.4857 136.225 96.8134 136.226 96.4886 136.553Z" fill="#FEFEFE"/>
<path fill-rule="evenodd" clip-rule="evenodd" d="M105.131 149.255L105.78 148.601C105.125 148.6 105.453 148.6 105.131 149.255Z" fill="#FEFEFE"/>
<path fill-rule="evenodd" clip-rule="evenodd" d="M120.966 158.375C120.635 158.047 120.635 158.047 120.305 157.719L120.308 158.046C120.311 158.374 120.308 158.046 120.966 158.375V158.375Z" fill="#FEFEFE"/>
<path fill-rule="evenodd" clip-rule="evenodd" d="M142.04 114.73L141.379 114.074L141.382 114.401C141.385 114.729 141.382 114.401 141.71 114.402L142.04 114.73Z" fill="#FEFEFE"/>
<path fill-rule="evenodd" clip-rule="evenodd" d="M106.208 165.216L105.547 164.56C105.88 165.216 105.55 164.887 106.208 165.216Z" fill="#FEFEFE"/>
<path fill-rule="evenodd" clip-rule="evenodd" d="M99.4756 140.134L99.8033 140.135C100.131 140.135 99.8033 140.135 100.128 139.807L99.4785 140.462L99.4756 140.134Z" fill="#FEFEFE"/>
<path fill-rule="evenodd" clip-rule="evenodd" d="M104.893 163.915L104.559 163.583L104.562 163.914L104.893 163.915Z" fill="#FEFEFE"/>
<path fill-rule="evenodd" clip-rule="evenodd" d="M123.619 112.774L124.269 112.12C123.941 112.119 123.941 112.119 123.944 112.447L123.619 112.774V112.774Z" fill="#FEFEFE"/>
<path fill-rule="evenodd" clip-rule="evenodd" d="M117.634 151.538L116.973 150.881C116.976 151.209 116.976 151.209 117.303 151.209L117.634 151.538V151.538Z" fill="#FEFEFE"/>
<path fill-rule="evenodd" clip-rule="evenodd" d="M399.333 137.206C399.327 136.55 399.33 136.878 398.672 136.549L399.333 137.206Z" fill="#FEFEFE"/>
<path fill-rule="evenodd" clip-rule="evenodd" d="M372.799 150.557L373.448 149.903C372.796 150.23 373.121 149.903 372.799 150.557Z" fill="#FEFEFE"/>
<path fill-rule="evenodd" clip-rule="evenodd" d="M104.556 163.263L103.895 162.606C103.9 163.262 103.897 162.934 104.556 163.263Z" fill="#FEFEFE"/>
</g>
</g>
<defs>
<filter id="filter0_d_2535_107" x="42.7266" y="71.2944" width="413.527" height="365.393" filterUnits="userSpaceOnUse" color-interpolation-filters="sRGB">
<feFlood flood-opacity="0" result="BackgroundImageFix"/>
<feColorMatrix in="SourceAlpha" type="matrix" values="0 0 0 0 0 0 0 0 0 0 0 0 0 0 0 0 0 0 127 0" result="hardAlpha"/>
<feOffset dy="4"/>
<feGaussianBlur stdDeviation="2"/>
<feComposite in2="hardAlpha" operator="out"/>
<feColorMatrix type="matrix" values="0 0 0 0 0 0 0 0 0 0 0 0 0 0 0 0 0 0 0.6 0"/>
<feBlend mode="normal" in2="BackgroundImageFix" result="effect1_dropShadow_2535_107"/>
<feBlend mode="normal" in="SourceGraphic" in2="effect1_dropShadow_2535_107" result="shape"/>
</filter>
</defs>
</svg>
