<svg width="347" height="347" viewBox="0 0 347 347" fill="none" xmlns="http://www.w3.org/2000/svg">
<g clip-path="url(#clip0)">
<path d="M0 173.333V346.667H346.667V0H0V173.333Z" fill="black"/>
<path d="M46.8679 184.243V223H34V124H69.9899C80.6684 124 89.0236 126.765 95.0554 132.295C101.132 137.826 104.17 145.146 104.17 154.258C104.17 163.867 101.199 171.279 95.2565 176.492C89.3587 181.659 80.8918 184.243 69.8558 184.243H46.8679ZM46.8679 173.568H69.9899C76.8706 173.568 82.1429 171.936 85.8067 168.672C89.4704 165.363 91.3023 160.604 91.3023 154.394C91.3023 148.501 89.4704 143.786 85.8067 140.251C82.1429 136.715 77.1164 134.879 70.7271 134.743H46.8679V173.568Z" fill="white"/>
<path d="M150.28 161.941L173.67 124H188.817L157.987 173.092L189.554 223H174.273L150.28 184.379L126.153 223H110.939L142.573 173.092L111.676 124H126.756L150.28 161.941Z" fill="white"/>
<path d="M225.544 191.791L227.42 204.845L230.168 193.082L249.47 124H260.327L279.16 193.082L281.841 205.049L283.919 191.723L299.065 124H312L288.342 223H276.613L256.507 150.858L254.966 143.31L253.424 150.858L232.581 223H220.852L197.261 124H210.129L225.544 191.791Z" fill="white"/>
</g>
<defs>
<clipPath id="clip0">
<rect width="346.667" height="346.667" fill="white"/>
</clipPath>
</defs>
</svg>
