<svg width="500" height="500" viewBox="0 0 500 500" fill="none" xmlns="http://www.w3.org/2000/svg">
<g style="mix-blend-mode:luminosity">
<path d="M201.701 276.014L203.763 276.881C203.625 277.686 203.407 278.357 203.109 278.897C202.811 279.436 202.44 279.843 201.997 280.118C201.557 280.392 200.996 280.53 200.314 280.53C199.486 280.53 198.809 280.364 198.283 280.031C197.76 279.694 197.308 279.104 196.927 278.261C196.546 277.418 196.355 276.339 196.355 275.024C196.355 273.271 196.69 271.925 197.358 270.986C198.03 270.042 198.979 269.57 200.205 269.57C201.164 269.57 201.917 269.84 202.465 270.379C203.015 270.918 203.424 271.747 203.691 272.864L201.613 273.507C201.54 273.185 201.464 272.949 201.384 272.799C201.252 272.549 201.091 272.356 200.901 272.221C200.71 272.086 200.497 272.019 200.262 272.019C199.729 272.019 199.32 272.318 199.036 272.915C198.821 273.358 198.714 274.054 198.714 275.003C198.714 276.178 198.842 276.985 199.098 277.423C199.355 277.857 199.715 278.073 200.179 278.073C200.629 278.073 200.968 277.898 201.197 277.546C201.429 277.194 201.597 276.684 201.701 276.014Z" fill="#2D2D2D"/>
<path d="M204.615 275.053C204.615 273.324 204.962 271.978 205.654 271.015C206.347 270.051 207.311 269.57 208.548 269.57C209.815 269.57 210.792 270.044 211.478 270.993C212.163 271.937 212.506 273.262 212.506 274.967C212.506 276.205 212.356 277.221 212.054 278.016C211.756 278.805 211.323 279.422 210.756 279.865C210.191 280.303 209.486 280.522 208.641 280.522C207.782 280.522 207.071 280.332 206.506 279.952C205.945 279.571 205.49 278.969 205.14 278.146C204.79 277.322 204.615 276.291 204.615 275.053ZM206.968 275.068C206.968 276.137 207.11 276.905 207.394 277.373C207.682 277.84 208.072 278.073 208.563 278.073C209.069 278.073 209.46 277.845 209.737 277.387C210.014 276.929 210.153 276.108 210.153 274.923C210.153 273.926 210.007 273.199 209.717 272.741C209.429 272.279 209.038 272.048 208.543 272.048C208.068 272.048 207.687 272.282 207.4 272.749C207.112 273.216 206.968 273.989 206.968 275.068Z" fill="#2D2D2D"/>
<path d="M213.748 269.75H216.844L218.039 276.195L219.228 269.75H222.314V280.342H220.392V272.265L218.901 280.342H217.161L215.675 272.265V280.342H213.748V269.75Z" fill="#2D2D2D"/>
<path d="M223.815 269.75H230.122V272.012H226.174V273.695H229.836V275.855H226.174V277.943H230.236V280.342H223.815V269.75ZM226.833 266.947H228.652L226.974 269.107H225.961L226.833 266.947Z" fill="#2D2D2D"/>
<path d="M231.54 280.342V269.75H235.462C236.189 269.75 236.745 269.837 237.13 270.011C237.514 270.184 237.824 270.507 238.059 270.979C238.295 271.446 238.413 272.017 238.413 272.691C238.413 273.279 238.323 273.787 238.143 274.215C237.962 274.639 237.715 274.984 237.4 275.248C237.199 275.417 236.924 275.557 236.574 275.667C236.854 275.798 237.059 275.928 237.187 276.058C237.273 276.144 237.398 276.33 237.561 276.614C237.727 276.898 237.838 277.117 237.893 277.271L239.031 280.342H236.371L235.114 277.105C234.955 276.686 234.813 276.414 234.688 276.289C234.518 276.125 234.326 276.043 234.111 276.043H233.904V280.342H231.54ZM233.904 274.042H234.896C235.003 274.042 235.211 273.994 235.519 273.897C235.675 273.854 235.801 273.743 235.898 273.565C235.999 273.387 236.049 273.182 236.049 272.951C236.049 272.609 235.971 272.347 235.815 272.164C235.659 271.98 235.367 271.889 234.937 271.889H233.904V274.042Z" fill="#2D2D2D"/>
<path d="M244.662 276.014L246.724 276.881C246.586 277.686 246.368 278.357 246.07 278.897C245.772 279.436 245.401 279.843 244.958 280.118C244.518 280.392 243.957 280.53 243.275 280.53C242.447 280.53 241.77 280.364 241.244 280.031C240.721 279.694 240.269 279.104 239.888 278.261C239.507 277.418 239.317 276.339 239.317 275.024C239.317 273.271 239.651 271.925 240.319 270.986C240.991 270.042 241.94 269.57 243.166 269.57C244.125 269.57 244.879 269.84 245.426 270.379C245.976 270.918 246.385 271.747 246.652 272.864L244.574 273.507C244.501 273.185 244.425 272.949 244.345 272.799C244.214 272.549 244.053 272.356 243.862 272.221C243.672 272.086 243.459 272.019 243.223 272.019C242.69 272.019 242.281 272.318 241.997 272.915C241.782 273.358 241.675 274.054 241.675 275.003C241.675 276.178 241.803 276.985 242.059 277.423C242.316 277.857 242.676 278.073 243.14 278.073C243.59 278.073 243.93 277.898 244.158 277.546C244.39 277.194 244.558 276.684 244.662 276.014Z" fill="#2D2D2D"/>
<path d="M247.966 269.75H250.324V280.342H247.966V269.75Z" fill="#2D2D2D"/>
<path d="M251.722 275.053C251.722 273.324 252.068 271.978 252.761 271.015C253.453 270.051 254.418 269.57 255.654 269.57C256.922 269.57 257.898 270.044 258.584 270.993C259.27 271.937 259.613 273.262 259.613 274.967C259.613 276.205 259.462 277.221 259.161 278.016C258.863 278.805 258.43 279.422 257.862 279.865C257.298 280.303 256.593 280.522 255.748 280.522C254.889 280.522 254.177 280.332 253.613 279.952C253.052 279.571 252.596 278.969 252.247 278.146C251.897 277.322 251.722 276.291 251.722 275.053ZM254.075 275.068C254.075 276.137 254.217 276.905 254.501 277.373C254.789 277.84 255.178 278.073 255.67 278.073C256.176 278.073 256.567 277.845 256.844 277.387C257.121 276.929 257.26 276.108 257.26 274.923C257.26 273.926 257.114 273.199 256.823 272.741C256.536 272.279 256.144 272.048 255.649 272.048C255.175 272.048 254.794 272.282 254.506 272.749C254.219 273.216 254.075 273.989 254.075 275.068Z" fill="#2D2D2D"/>
<path d="M264.428 269.75H270.735V272.012H266.787V273.695H270.449V275.855H266.787V277.943H270.849V280.342H264.428V269.75Z" fill="#2D2D2D"/>
<path d="M275.265 276.838L277.504 276.643C277.552 277.149 277.651 277.534 277.8 277.799C278.042 278.227 278.389 278.442 278.839 278.442C279.175 278.442 279.433 278.333 279.613 278.117C279.796 277.895 279.888 277.64 279.888 277.351C279.888 277.076 279.802 276.831 279.628 276.614C279.455 276.397 279.054 276.192 278.423 276C277.391 275.677 276.655 275.248 276.215 274.714C275.772 274.179 275.55 273.498 275.55 272.669C275.55 272.125 275.663 271.612 275.888 271.13C276.117 270.644 276.458 270.263 276.912 269.989C277.369 269.71 277.994 269.57 278.787 269.57C279.76 269.57 280.501 269.823 281.01 270.328C281.523 270.829 281.828 271.629 281.925 272.727L279.706 272.908C279.647 272.431 279.523 272.084 279.332 271.867C279.145 271.651 278.886 271.542 278.553 271.542C278.279 271.542 278.073 271.624 277.935 271.788C277.796 271.947 277.727 272.142 277.727 272.373C277.727 272.542 277.784 272.693 277.899 272.828C278.009 272.968 278.273 273.098 278.688 273.218C279.717 273.527 280.453 273.84 280.896 274.158C281.343 274.471 281.666 274.861 281.867 275.328C282.072 275.795 282.174 276.318 282.174 276.896C282.174 277.575 282.039 278.201 281.769 278.774C281.499 279.347 281.121 279.783 280.636 280.082C280.151 280.376 279.54 280.522 278.802 280.522C277.507 280.522 276.61 280.176 276.112 279.482C275.613 278.789 275.331 277.907 275.265 276.838Z" fill="#2D2D2D"/>
<path d="M283.358 269.75H289.665V272.012H285.717V273.695H289.379V275.855H285.717V277.943H289.779V280.342H283.358V269.75Z" fill="#2D2D2D"/>
<path d="M291.083 280.342V269.75H295.005C295.732 269.75 296.288 269.837 296.673 270.011C297.057 270.184 297.367 270.507 297.602 270.979C297.838 271.446 297.956 272.017 297.956 272.691C297.956 273.279 297.866 273.787 297.686 274.215C297.505 274.639 297.258 274.984 296.943 275.248C296.742 275.417 296.467 275.557 296.117 275.667C296.397 275.798 296.602 275.928 296.73 276.058C296.816 276.144 296.941 276.33 297.104 276.614C297.27 276.898 297.381 277.117 297.436 277.271L298.574 280.342H295.914L294.657 277.105C294.498 276.686 294.356 276.414 294.231 276.289C294.061 276.125 293.869 276.043 293.654 276.043H293.447V280.342H291.083ZM293.447 274.042H294.439C294.546 274.042 294.754 273.994 295.062 273.897C295.218 273.854 295.344 273.743 295.441 273.565C295.542 273.387 295.592 273.182 295.592 272.951C295.592 272.609 295.514 272.347 295.358 272.164C295.202 271.98 294.91 271.889 294.48 271.889H293.447V274.042Z" fill="#2D2D2D"/>
<path d="M298.392 269.75H300.854L302.569 277.373L304.257 269.75H306.647L303.821 280.342H301.27L298.392 269.75Z" fill="#2D2D2D"/>
<path d="M307.519 269.75H309.878V280.342H307.519V269.75Z" fill="#2D2D2D"/>
<path d="M316.641 276.014L318.704 276.881C318.565 277.686 318.347 278.357 318.049 278.897C317.751 279.436 317.381 279.843 316.938 280.118C316.498 280.392 315.937 280.53 315.254 280.53C314.427 280.53 313.75 280.364 313.223 280.031C312.7 279.694 312.248 279.104 311.867 278.261C311.486 277.418 311.296 276.339 311.296 275.024C311.296 273.271 311.63 271.925 312.299 270.986C312.97 270.042 313.919 269.57 315.145 269.57C316.105 269.57 316.858 269.84 317.405 270.379C317.956 270.918 318.364 271.747 318.631 272.864L316.553 273.507C316.48 273.185 316.404 272.949 316.325 272.799C316.193 272.549 316.032 272.356 315.841 272.221C315.651 272.086 315.438 272.019 315.203 272.019C314.669 272.019 314.261 272.318 313.977 272.915C313.762 273.358 313.654 274.054 313.654 275.003C313.654 276.178 313.783 276.985 314.039 277.423C314.295 277.857 314.655 278.073 315.119 278.073C315.57 278.073 315.909 277.898 316.138 277.546C316.37 277.194 316.538 276.684 316.641 276.014ZM313.764 281.534L313.919 280.681C314.245 280.571 314.55 280.515 314.834 280.515C315.426 280.515 315.835 280.655 316.06 280.934C316.285 281.214 316.397 281.544 316.397 281.924C316.397 282.155 316.345 282.394 316.241 282.639C316.141 282.885 315.959 283.082 315.696 283.232C315.433 283.381 315.083 283.456 314.647 283.456C314.252 283.456 313.788 283.393 313.254 283.268V282.379C313.615 282.476 313.997 282.524 314.403 282.524C314.7 282.524 314.901 282.468 315.005 282.358C315.112 282.247 315.166 282.102 315.166 281.924C315.166 281.784 315.123 281.664 315.036 281.563C314.95 281.462 314.815 281.411 314.631 281.411C314.385 281.411 314.096 281.452 313.764 281.534Z" fill="#2D2D2D"/>
<path d="M319.556 275.053C319.556 273.324 319.902 271.978 320.595 271.015C321.287 270.051 322.252 269.57 323.488 269.57C324.756 269.57 325.732 270.044 326.418 270.993C327.104 271.937 327.447 273.262 327.447 274.967C327.447 276.205 327.296 277.221 326.995 278.016C326.697 278.805 326.264 279.422 325.696 279.865C325.132 280.303 324.427 280.522 323.582 280.522C322.723 280.522 322.011 280.332 321.447 279.952C320.886 279.571 320.43 278.969 320.08 278.146C319.731 277.322 319.556 276.291 319.556 275.053ZM321.909 275.068C321.909 276.137 322.051 276.905 322.335 277.373C322.622 277.84 323.012 278.073 323.504 278.073C324.009 278.073 324.401 277.845 324.678 277.387C324.955 276.929 325.093 276.108 325.093 274.923C325.093 273.926 324.948 273.199 324.657 272.741C324.37 272.279 323.978 272.048 323.483 272.048C323.009 272.048 322.628 272.282 322.34 272.749C322.053 273.216 321.909 273.989 321.909 275.068Z" fill="#2D2D2D"/>
<path d="M328.304 276.838L330.543 276.643C330.591 277.149 330.69 277.534 330.839 277.799C331.081 278.227 331.428 278.442 331.878 278.442C332.214 278.442 332.472 278.333 332.652 278.117C332.835 277.895 332.927 277.64 332.927 277.351C332.927 277.076 332.841 276.831 332.667 276.614C332.494 276.397 332.093 276.192 331.462 276C330.43 275.677 329.694 275.248 329.254 274.714C328.811 274.179 328.59 273.498 328.59 272.669C328.59 272.125 328.702 271.612 328.927 271.13C329.156 270.644 329.497 270.263 329.951 269.989C330.408 269.71 331.033 269.57 331.826 269.57C332.799 269.57 333.54 269.823 334.049 270.328C334.562 270.829 334.867 271.629 334.964 272.727L332.745 272.908C332.687 272.431 332.562 272.084 332.371 271.867C332.184 271.651 331.925 271.542 331.592 271.542C331.319 271.542 331.113 271.624 330.974 271.788C330.835 271.947 330.766 272.142 330.766 272.373C330.766 272.542 330.823 272.693 330.938 272.828C331.048 272.968 331.312 273.098 331.727 273.218C332.756 273.527 333.492 273.84 333.935 274.158C334.382 274.471 334.706 274.861 334.906 275.328C335.111 275.795 335.213 276.318 335.213 276.896C335.213 277.575 335.078 278.201 334.808 278.774C334.538 279.347 334.16 279.783 333.675 280.082C333.19 280.376 332.579 280.522 331.842 280.522C330.546 280.522 329.649 280.176 329.151 279.482C328.652 278.789 328.37 277.907 328.304 276.838Z" fill="#2D2D2D"/>
<path d="M339.987 269.75H343.483C344.172 269.75 344.728 269.88 345.151 270.141C345.577 270.401 345.928 270.774 346.205 271.26C346.482 271.747 346.683 272.313 346.808 272.958C346.932 273.604 346.995 274.288 346.995 275.01C346.995 276.142 346.901 277.021 346.714 277.647C346.531 278.268 346.274 278.791 345.945 279.215C345.616 279.634 345.263 279.913 344.886 280.053C344.37 280.246 343.902 280.342 343.483 280.342H339.987V269.75ZM342.34 272.149V277.936H342.917C343.409 277.936 343.758 277.861 343.966 277.712C344.174 277.558 344.337 277.293 344.455 276.917C344.572 276.537 344.631 275.923 344.631 275.075C344.631 273.953 344.5 273.185 344.236 272.77C343.973 272.356 343.537 272.149 342.927 272.149H342.34Z" fill="#2D2D2D"/>
<path d="M348.231 269.75H354.538V272.012H350.59V273.695H354.252V275.855H350.59V277.943H354.652V280.342H348.231V269.75Z" fill="#2D2D2D"/>
<path d="M359.509 280.342V269.75H363.431C364.158 269.75 364.714 269.837 365.099 270.011C365.483 270.184 365.793 270.507 366.029 270.979C366.264 271.446 366.382 272.017 366.382 272.691C366.382 273.279 366.292 273.787 366.112 274.215C365.932 274.639 365.684 274.984 365.369 275.248C365.168 275.417 364.893 275.557 364.543 275.667C364.823 275.798 365.028 275.928 365.156 276.058C365.242 276.144 365.367 276.33 365.53 276.614C365.696 276.898 365.807 277.117 365.862 277.271L367 280.342H364.34L363.083 277.105C362.924 276.686 362.782 276.414 362.657 276.289C362.487 276.125 362.295 276.043 362.081 276.043H361.873V280.342H359.509ZM361.873 274.042H362.865C362.972 274.042 363.18 273.994 363.488 273.897C363.644 273.854 363.771 273.743 363.868 273.565C363.968 273.387 364.018 273.182 364.018 272.951C364.018 272.609 363.94 272.347 363.784 272.164C363.629 271.98 363.336 271.889 362.907 271.889H361.873V274.042Z" fill="#2D2D2D"/>
<path d="M367.753 269.75H374.06V272.012H370.112V273.695H373.774V275.855H370.112V277.943H374.174V280.342H367.753V269.75Z" fill="#2D2D2D"/>
<path d="M375.457 269.75H381.275V272.026H377.821V273.876H380.772V276.014H377.821V280.342H375.457V269.75Z" fill="#2D2D2D"/>
<path d="M382.574 280.342V269.75H386.496C387.223 269.75 387.779 269.837 388.164 270.011C388.548 270.184 388.858 270.507 389.094 270.979C389.329 271.446 389.447 272.017 389.447 272.691C389.447 273.279 389.357 273.787 389.177 274.215C388.997 274.639 388.749 274.984 388.434 275.248C388.233 275.417 387.958 275.557 387.608 275.667C387.888 275.798 388.093 275.928 388.221 276.058C388.307 276.144 388.432 276.33 388.595 276.614C388.761 276.898 388.872 277.117 388.927 277.271L390.065 280.342H387.405L386.148 277.105C385.989 276.686 385.847 276.414 385.722 276.289C385.552 276.125 385.36 276.043 385.146 276.043H384.938V280.342H382.574ZM384.938 274.042H385.93C386.037 274.042 386.245 273.994 386.553 273.897C386.709 273.854 386.836 273.743 386.933 273.565C387.033 273.387 387.083 273.182 387.083 272.951C387.083 272.609 387.005 272.347 386.849 272.164C386.694 271.98 386.401 271.889 385.972 271.889H384.938V274.042Z" fill="#2D2D2D"/>
<path d="M390.917 269.75H393.275V280.342H390.917V269.75Z" fill="#2D2D2D"/>
<path d="M398.798 276.506V274.302H402.434V278.817C401.738 279.477 401.121 279.928 400.585 280.168C400.051 280.404 399.417 280.522 398.683 280.522C397.779 280.522 397.042 280.308 396.47 279.879C395.902 279.451 395.461 278.813 395.146 277.965C394.834 277.117 394.678 276.144 394.678 275.046C394.678 273.89 394.849 272.886 395.192 272.033C395.535 271.176 396.037 270.526 396.699 270.083C397.215 269.741 397.909 269.57 398.782 269.57C399.623 269.57 400.252 269.676 400.668 269.888C401.087 270.1 401.433 270.43 401.707 270.878C401.984 271.321 402.191 271.884 402.33 272.568L400.06 273.132C399.966 272.732 399.807 272.426 399.582 272.214C399.36 272.002 399.076 271.896 398.73 271.896C398.214 271.896 397.802 272.147 397.494 272.648C397.189 273.144 397.036 273.931 397.036 275.01C397.036 276.156 397.191 276.975 397.499 277.466C397.811 277.958 398.243 278.203 398.798 278.203C399.061 278.203 399.312 278.15 399.551 278.044C399.79 277.938 400.063 277.758 400.372 277.503V276.506H398.798Z" fill="#2D2D2D"/>
<path d="M403.826 269.75H410.133V272.012H406.185V273.695H409.847V275.855H406.185V277.943H410.247V280.342H403.826V269.75Z" fill="#2D2D2D"/>
<path d="M411.551 280.342V269.75H415.473C416.2 269.75 416.756 269.837 417.14 270.011C417.525 270.184 417.835 270.507 418.07 270.979C418.306 271.446 418.424 272.017 418.424 272.691C418.424 273.279 418.333 273.787 418.153 274.215C417.973 274.639 417.726 274.984 417.411 275.248C417.21 275.417 416.934 275.557 416.585 275.667C416.865 275.798 417.069 275.928 417.198 276.058C417.284 276.144 417.409 276.33 417.572 276.614C417.738 276.898 417.849 277.117 417.904 277.271L419.042 280.342H416.382L415.125 277.105C414.966 276.686 414.824 276.414 414.699 276.289C414.529 276.125 414.337 276.043 414.122 276.043H413.914V280.342H411.551ZM413.914 274.042H414.907C415.014 274.042 415.222 273.994 415.53 273.897C415.686 273.854 415.812 273.743 415.909 273.565C416.01 273.387 416.06 273.182 416.06 272.951C416.06 272.609 415.982 272.347 415.826 272.164C415.67 271.98 415.378 271.889 414.948 271.889H413.914V274.042Z" fill="#2D2D2D"/>
<path d="M424.486 278.593H421.805L421.437 280.342H419.031L421.894 269.75H424.46L427.322 280.342H424.86L424.486 278.593ZM423.992 276.303L423.151 272.496L422.314 276.303H423.992Z" fill="#2D2D2D"/>
<path d="M433.151 276.014L435.213 276.881C435.075 277.686 434.856 278.357 434.559 278.897C434.261 279.436 433.89 279.843 433.447 280.118C433.007 280.392 432.446 280.53 431.764 280.53C430.936 280.53 430.259 280.364 429.733 280.031C429.21 279.694 428.758 279.104 428.377 278.261C427.996 277.418 427.805 276.339 427.805 275.024C427.805 273.271 428.14 271.925 428.808 270.986C429.48 270.042 430.429 269.57 431.655 269.57C432.614 269.57 433.367 269.84 433.914 270.379C434.465 270.918 434.874 271.747 435.14 272.864L433.063 273.507C432.99 273.185 432.914 272.949 432.834 272.799C432.702 272.549 432.541 272.356 432.351 272.221C432.16 272.086 431.947 272.019 431.712 272.019C431.179 272.019 430.77 272.318 430.486 272.915C430.271 273.358 430.164 274.054 430.164 275.003C430.164 276.178 430.292 276.985 430.548 277.423C430.805 277.857 431.165 278.073 431.629 278.073C432.079 278.073 432.418 277.898 432.647 277.546C432.879 277.194 433.047 276.684 433.151 276.014ZM430.273 281.534L430.429 280.681C430.754 280.571 431.059 280.515 431.343 280.515C431.935 280.515 432.344 280.655 432.569 280.934C432.794 281.214 432.907 281.544 432.907 281.924C432.907 282.155 432.855 282.394 432.751 282.639C432.65 282.885 432.469 283.082 432.205 283.232C431.942 283.381 431.592 283.456 431.156 283.456C430.761 283.456 430.297 283.393 429.764 283.268V282.379C430.124 282.476 430.507 282.524 430.912 282.524C431.21 282.524 431.411 282.468 431.514 282.358C431.622 282.247 431.676 282.102 431.676 281.924C431.676 281.784 431.632 281.664 431.546 281.563C431.459 281.462 431.324 281.411 431.14 281.411C430.895 281.411 430.605 281.452 430.273 281.534Z" fill="#2D2D2D"/>
<path d="M441.047 278.593H438.366L437.998 280.342H435.592L438.455 269.75H441.021L443.883 280.342H441.421L441.047 278.593ZM440.553 276.303L439.712 272.496L438.876 276.303H440.553ZM440.772 267.128H441.592C441.596 267.253 441.598 267.361 441.598 267.453C441.598 267.988 441.501 268.402 441.307 268.696C441.113 268.989 440.863 269.136 440.559 269.136C440.337 269.136 440.001 269.009 439.551 268.753C439.277 268.599 439.089 268.522 438.985 268.522C438.884 268.522 438.806 268.566 438.751 268.652C438.695 268.739 438.666 268.893 438.663 269.115H437.852C437.849 268.999 437.847 268.898 437.847 268.811C437.847 268.296 437.949 267.886 438.153 267.583C438.358 267.28 438.6 267.128 438.881 267.128C439.002 267.128 439.116 267.147 439.224 267.186C439.331 267.224 439.528 267.328 439.816 267.496C440.107 267.665 440.318 267.749 440.45 267.749C440.543 267.749 440.618 267.706 440.673 267.619C440.732 267.528 440.765 267.364 440.772 267.128Z" fill="#2D2D2D"/>
<path d="M444.346 275.053C444.346 273.324 444.692 271.978 445.385 271.015C446.077 270.051 447.042 269.57 448.278 269.57C449.546 269.57 450.522 270.044 451.208 270.993C451.894 271.937 452.237 273.262 452.237 274.967C452.237 276.205 452.086 277.221 451.785 278.016C451.487 278.805 451.054 279.422 450.486 279.865C449.921 280.303 449.217 280.522 448.372 280.522C447.513 280.522 446.801 280.332 446.237 279.952C445.676 279.571 445.22 278.969 444.87 278.146C444.521 277.322 444.346 276.291 444.346 275.053ZM446.699 275.068C446.699 276.137 446.841 276.905 447.125 277.373C447.412 277.84 447.802 278.073 448.294 278.073C448.799 278.073 449.191 277.845 449.468 277.387C449.745 276.929 449.883 276.108 449.883 274.923C449.883 273.926 449.738 273.199 449.447 272.741C449.16 272.279 448.768 272.048 448.273 272.048C447.799 272.048 447.418 272.282 447.13 272.749C446.843 273.216 446.699 273.989 446.699 275.068Z" fill="#2D2D2D"/>
<path d="M224.635 235.754H252.524V262.991H222.615C218.836 262.991 215.339 262.427 212.124 261.297C208.91 260.168 206.13 258.626 203.784 256.671C201.481 254.672 199.657 252.327 198.31 249.633C197.007 246.897 196.355 243.943 196.355 240.772C196.355 237.6 197.007 234.712 198.31 232.105C199.657 229.455 201.481 227.196 203.784 225.329C206.13 223.417 208.91 221.962 212.124 220.963C215.339 219.92 218.836 219.399 222.615 219.399H253.827L245.096 230.737H222.615C220.791 230.737 219.097 230.997 217.533 231.519C215.969 232.04 214.6 232.779 213.428 233.734C212.298 234.69 211.408 235.819 210.756 237.123C210.104 238.382 209.779 239.794 209.779 241.358C209.779 242.922 210.083 244.355 210.691 245.659C211.342 246.918 212.233 248.004 213.362 248.917C214.535 249.829 215.904 250.546 217.468 251.067C219.031 251.545 220.747 251.784 222.615 251.784H239.101V245.463H216.555L224.635 235.754Z" fill="#2D2D2D"/>
<path d="M278.716 262.991L286.861 251.784H297.808C299.111 251.784 300.458 251.784 301.848 251.784C303.281 251.784 304.52 251.827 305.562 251.914C304.954 251.132 304.237 250.155 303.412 248.982C302.63 247.765 301.87 246.636 301.131 245.593L293.312 234.06L272.851 262.991H256.887L284.841 223.569C285.753 222.309 286.904 221.18 288.295 220.181C289.685 219.182 291.444 218.682 293.573 218.682C295.614 218.682 297.308 219.16 298.655 220.116C300.045 221.028 301.218 222.179 302.174 223.569L329.411 262.991H278.716Z" fill="#2D2D2D"/>
<path d="M374.617 236.797C379.96 236.797 384.022 237.796 386.802 239.794C389.582 241.749 390.972 244.725 390.972 248.721C390.972 250.937 390.625 252.935 389.93 254.716C389.235 256.497 388.127 257.996 386.607 259.212C385.086 260.428 383.131 261.362 380.742 262.014C378.396 262.666 375.573 262.991 372.271 262.991H331.676L340.343 251.784H373.314C374.921 251.784 376.094 251.545 376.832 251.067C377.571 250.546 377.94 249.72 377.94 248.591C377.94 247.461 377.571 246.658 376.832 246.18C376.094 245.702 374.921 245.463 373.314 245.463H349.595C346.772 245.463 344.339 245.159 342.297 244.551C340.256 243.943 338.562 243.096 337.215 242.01C335.868 240.924 334.869 239.62 334.217 238.1C333.566 236.536 333.24 234.82 333.24 232.952C333.24 230.911 333.588 229.064 334.283 227.414C335.021 225.719 336.129 224.286 337.606 223.113C339.126 221.94 341.059 221.028 343.405 220.376C345.794 219.725 348.64 219.399 351.941 219.399H389.799L381.133 230.737H350.899C349.335 230.737 348.162 230.954 347.38 231.388C346.641 231.823 346.272 232.605 346.272 233.734C346.272 234.864 346.641 235.667 347.38 236.145C348.162 236.58 349.335 236.797 350.899 236.797H374.617Z" fill="#2D2D2D"/>
<path d="M446.156 240.576C448.068 241.141 449.675 242.249 450.978 243.899C452.325 245.55 452.998 247.679 452.998 250.285C452.998 252.11 452.716 253.804 452.151 255.368C451.586 256.888 450.631 258.213 449.284 259.342C447.937 260.472 446.113 261.362 443.81 262.014C441.552 262.666 438.706 262.991 435.274 262.991H396.96V236.471H435.535C436.534 236.471 437.403 236.275 438.141 235.885C438.923 235.45 439.314 234.668 439.314 233.539C439.314 232.453 438.923 231.714 438.141 231.323C437.36 230.932 436.491 230.737 435.535 230.737H396.96L406.082 219.399H434.949C437.555 219.399 439.901 219.66 441.986 220.181C444.115 220.659 445.917 221.419 447.394 222.461C448.915 223.461 450.066 224.72 450.848 226.241C451.673 227.718 452.086 229.455 452.086 231.454C452.086 232.757 451.912 233.908 451.565 234.907C451.217 235.906 450.761 236.797 450.196 237.579C449.675 238.317 449.045 238.947 448.307 239.468C447.611 239.946 446.895 240.315 446.156 240.576ZM410.513 245.789V251.784H435.34C436.817 251.784 437.881 251.523 438.532 251.002C439.184 250.48 439.51 249.72 439.51 248.721C439.51 247.765 439.184 247.049 438.532 246.571C437.881 246.05 436.817 245.789 435.34 245.789H410.513Z" fill="#2D2D2D"/>
<path d="M116.127 318.162C153.752 318.162 184.254 287.681 184.254 250.081C184.254 212.481 153.752 182 116.127 182C78.5015 182 48 212.481 48 250.081C48 287.681 78.5015 318.162 116.127 318.162Z" fill="#2D2D2D"/>
<path fill-rule="evenodd" clip-rule="evenodd" d="M108.213 263.694L109.126 263.869C109.363 263.881 109.694 263.87 109.942 263.872C110.481 263.876 111.02 263.885 111.559 263.891L134.521 264.094C138.937 264.115 143.367 264.152 147.782 264.085C150.663 264.041 150.818 263.813 151.683 261.256C152.036 260.213 152.878 256.914 152.894 255.776C152.576 255.451 152.592 255.199 152.604 254.489C152.661 250.963 152.628 247.862 152.023 244.31C150.471 235.191 149.343 236.564 141.471 236.918L123.683 237.813C115.818 238.288 107.978 238.764 100.078 239.004C96.051 239.127 92.3632 239.509 88.2695 239.567L76.6633 240.29C75.7534 244.112 75.2117 252.377 75.2837 256.745C75.3192 258.882 75.5832 260.285 75.785 262.278C76.7664 262.509 84.3577 262.653 86.0095 262.695C90.2734 262.803 116.635 263.816 117.124 263.562L108.213 263.694H108.213ZM137.559 274.976C137.576 274.21 136.58 271.308 136.231 270.567L124.291 269.787C124.44 270.937 125.129 272.894 125.561 273.917L137.559 274.976ZM121.378 269.409L110.589 268.611C110.678 269.468 111.894 272.012 112.322 272.709L122.641 273.68C122.63 272.946 121.709 269.885 121.379 269.409H121.378ZM105.959 268.461L97.5514 267.904L98.9703 271.385C100.01 271.709 106.212 272.315 107.549 272.232L105.959 268.46V268.461ZM97.0091 271.135C96.9059 270.486 95.9234 267.943 95.6418 267.536L88.3205 266.983C88.2811 267.48 88.8123 268.823 89.0208 269.425C89.5342 270.904 89.43 270.42 91.1012 270.607C92.7147 270.787 95.3756 271.257 97.0085 271.135L97.0091 271.135ZM82.2801 269.939C84.3072 270.012 86.1447 270.29 88.1586 270.277L87.2088 266.824L79.806 266.388C79.7689 267.048 80.2452 267.787 80.5307 268.651C80.9438 269.901 80.8673 269.888 82.2801 269.939V269.939Z" fill="#4186C7"/>
<path fill-rule="evenodd" clip-rule="evenodd" d="M73.7708 260.48L74.2637 244.124C73.4464 245.802 72.5704 259.249 73.7708 260.48ZM152.651 255.772C152.635 256.91 151.793 260.208 151.44 261.251C150.576 263.809 150.421 264.037 147.538 264.08C143.124 264.148 138.694 264.11 134.278 264.09L111.316 263.886C110.777 263.881 110.237 263.872 109.699 263.868C109.451 263.866 109.12 263.877 108.883 263.864L107.97 263.69L83.9176 263.415C84.181 263.688 83.9188 263.561 84.3296 263.684C84.5448 263.748 84.7089 263.758 84.9351 263.776L88.4754 263.945C92.4709 264.33 98.0085 264.459 102.43 264.8C108.719 265.284 115.048 265.318 121.313 265.817C127.448 266.306 133.966 266.229 140.114 266.723C143.188 266.971 146.596 266.96 149.802 266.969C155.496 266.986 154.369 265.242 156.432 263.494C156.91 263.807 158.912 266.758 159.283 267.287C160.159 268.536 161.873 270.459 161.728 271.431L161.168 271.372C159.511 270.812 157.956 269.363 156.581 268.881C156.885 270.438 159.367 272.251 159.744 273.621C157.899 273.337 154.035 271.224 152.829 270.208L152.819 270.635C153.53 271.872 154.524 272.811 155.346 273.661C157.699 276.089 157.282 275.645 159.087 275.75C159.086 276.624 155.092 281.505 154.462 282.238C152.76 284.217 150.708 286.285 148.723 287.982C134.35 300.264 114.325 304.562 95.7662 298.151C80.924 293.024 69.0484 281.602 63.3678 267.669C63.3129 267.535 63.2358 267.317 63.1904 267.188L61.8175 263.395C60.8189 260.143 60.3559 257.544 59.7543 253.936C59.1793 250.489 59.4477 246.598 59.339 242.905C58.1458 247.824 59.1322 257.283 60.2783 262.482C63.7864 278.393 74.0137 291.667 87.8516 299.574C109.742 312.081 136.207 307.857 153.02 293.251C157.002 289.792 159.99 286.494 163.172 281.899C169.738 272.418 173.135 260.699 172.958 248.663C172.787 237.122 168.705 225.484 162.043 216.392C155.93 208.049 147.58 201.281 137.901 197.345C133.362 195.499 125.975 193.142 120.306 193.199L124.848 194.14C128.572 194.889 133.47 196.7 136.7 198.23C148.103 203.63 158.178 213.804 163.07 225.532C163.728 227.11 165.662 231.866 165.756 233.573C164.015 233.633 154.177 231.191 151.424 231.01C148.439 230.813 143.665 231.342 140.509 231.606C138.785 231.75 136.854 231.79 135.173 232.008C131.91 232.432 128.112 232.856 124.728 233.039L104.145 235.172C98.0073 235.979 91.3049 236.38 84.8436 237.216C84.2675 237.291 83.9886 237.234 83.585 237.566C86.9584 237.612 96.1354 236.731 100.477 236.518C106.173 236.237 111.652 235.706 117.464 235.515C120.157 235.427 122.988 235.079 125.705 235.011C128.618 234.937 131.493 234.716 134.436 234.637C140.22 234.481 146.36 234.022 151.934 234.763C153.43 236.733 153.297 242.315 153.286 244.946C153.278 246.838 153.251 248.715 153.168 250.606L152.647 255.773L152.651 255.772ZM90.543 286.859C84.3801 283.945 79.295 278.106 78.6951 277.792C78.9884 278.75 83.0992 282.522 84.0424 283.352C87.774 286.632 93.0354 289.789 97.933 291.449C102.885 293.127 102.003 292.61 106.648 293.578C109.61 294.196 114.035 293.987 117.142 293.782C120.391 293.568 123.416 292.782 126.257 291.906C130.507 290.597 135.552 288.076 139.019 285.397L140.447 284.185C138.977 283.927 137.216 283.748 135.73 283.616C134.178 283.479 134.272 283.611 132.062 285.082C130.249 286.289 127.527 287.795 125.15 288.638C112.847 292.998 102.545 292.536 90.5436 286.86L90.543 286.859ZM152.821 270.634L152.831 270.206C154.036 271.223 157.9 273.335 159.746 273.62C159.37 272.25 156.887 270.436 156.583 268.88C157.958 269.361 159.513 270.81 161.17 271.371C160.783 270.665 159.446 269.393 158.91 268.819C158.128 267.982 157.257 267.158 156.637 266.408C155.855 266.566 154.681 267.481 152.88 268.026C150.231 268.827 141.435 267.835 138.324 267.78C135.188 267.725 131.667 267.376 128.462 267.244C121.769 266.969 115.2 266.387 108.724 266.102C105.444 265.958 102.295 265.597 99.0265 265.515C92.4715 265.352 85.7829 264.413 79.1403 264.4L79.3926 265.559C80.389 266.016 96.65 266.671 99.8105 266.932L101.242 267.09C103.385 267.352 112.704 267.663 115.684 267.864C121.691 268.269 127.846 268.444 133.912 268.928C136.844 269.163 139.959 269.365 143.01 269.473C146.068 269.582 149.07 269.958 152.066 270.005C152.549 270.199 152.091 269.971 152.438 270.262C152.466 270.286 152.505 270.325 152.53 270.347L152.821 270.633L152.821 270.634ZM151.593 273.727C151.356 274.264 151.543 273.879 151.242 274.341C151.098 274.563 151.083 274.569 150.915 274.81C150.692 275.13 150.464 275.427 150.235 275.759C149.831 276.346 149.326 277.172 148.832 277.633C148.325 277.848 100.486 273.627 95.2433 273.021L92.5369 272.786C92.3512 272.758 92.2857 272.753 92.1078 272.692C91.7141 272.555 91.9874 272.707 91.739 272.499C89.8311 272.775 82.2287 271.136 81.4696 271.608C81.733 271.703 81.3028 271.587 81.7829 271.663C81.8195 271.668 81.8672 271.674 81.9077 271.68L82.6146 271.811C87.092 272.796 95.2206 273.686 99.9186 274.399C104.385 275.077 109.816 275.517 114.362 276.061C123.642 277.17 139.685 278.9 148.678 278.77C150.015 278.751 149.808 278.659 150.496 277.788C151.143 276.97 153.637 273.9 153.817 273.384C153.609 272.994 151.591 271.664 151.009 271.212C150.135 270.532 150.49 270.583 149.194 270.523C145.864 270.37 140.624 269.877 137.725 270.046C137.765 270.749 138.324 271.834 138.626 272.396L151.79 273.191C151.73 273.741 151.909 273.49 151.593 273.725V273.727ZM151.593 273.727C150.219 274.309 141.531 273.048 139.199 273.144C139.072 274.296 139.837 274.94 139.907 275.959C137.875 276.03 135.809 275.704 133.794 275.602C130.467 275.433 92.5962 272.362 91.7396 272.499C91.9885 272.707 91.7146 272.555 92.1083 272.692C92.2863 272.754 92.3512 272.759 92.5375 272.786L95.2439 273.021C100.486 273.627 148.326 277.848 148.833 277.633C149.327 277.172 149.832 276.346 150.236 275.759C150.464 275.427 150.692 275.13 150.916 274.81C151.084 274.569 151.098 274.563 151.243 274.341C151.544 273.879 151.356 274.264 151.594 273.727H151.593ZM65.7143 221.753C66.3675 221.699 73.1259 215.365 73.8174 214.742C75.5773 213.156 75.8761 212.158 79.0937 212.838C86.9362 214.497 85.8672 212.809 87.1829 220.151C87.8394 223.816 87.9032 223.248 85.6409 225.584C84.2265 227.045 83.3155 228.003 81.8822 229.427L78.5232 232.852C78.165 233.253 78.3158 233.001 78.1018 233.47C79.5318 234.447 85.1868 233.753 87.0338 233.106C91.6997 231.47 95.4579 227.741 97.088 223.111C98.7381 218.425 97.6752 216.979 97.8371 214.24C100.328 212.402 107.432 211.055 110.696 210.566C115.924 209.782 124.283 210.74 128.879 212.529L131.934 213.681C135.777 215.306 138.99 217.346 142.193 219.906C143.022 220.569 143.728 221.216 144.415 221.89C144.968 222.431 146.118 223.693 146.526 223.891C139.369 214.586 128.464 208.081 115.521 207.285C112.187 207.08 109.369 207.35 106.303 207.615C103.741 207.837 100.962 208.793 98.6034 209.481C95.1696 210.482 93.5239 206.497 95.815 204.723C96.8413 203.929 101.045 202.507 102.675 202.058C103.957 201.704 105.08 201.399 106.412 201.111C121.005 197.965 135.836 201.796 147.389 210.685L152.607 215.245C152.087 213.575 145.887 208.157 144.135 206.799C140.699 204.137 137.605 202.403 133.43 200.516C125.835 197.081 114.069 195.068 104.644 197.08C97.1568 198.678 95.5472 199.345 89.0687 202.526C87.8638 203.118 85.0061 200.245 78.2803 201.573C73.7043 202.477 70.2116 205.303 68.1418 208.253C65.9416 211.388 64.2439 217.162 65.7127 221.753L65.7143 221.753Z" fill="#FEFEFE"/>
</g>
</svg>
