<svg width="500" height="500" viewBox="0 0 500 500" fill="none" xmlns="http://www.w3.org/2000/svg">
<g style="mix-blend-mode:luminosity">
<g filter="url(#filter0_d_2535_107)">
<path fill-rule="evenodd" clip-rule="evenodd" d="M227.165 170.461C244.977 168.536 256.606 168.49 273.985 170.461L414.639 185.481C438.16 189.177 449.826 199.775 442.027 219.024L416.319 280.028C412.407 288.673 405.102 294.058 385.496 299.305C346.969 307.792 309.787 319.275 271.26 327.762C256.143 331.81 241.957 331.225 226.834 327.762L111.053 299.305C93.4178 294.457 88.032 289.97 83.7486 280.681L55.6736 219.024C51.1916 199.973 65.8758 189.407 96.8213 185.481L227.165 170.461V170.461Z" fill="#2B2A29"/>
<path fill-rule="evenodd" clip-rule="evenodd" d="M385.496 299.305C346.969 307.792 309.787 319.275 271.26 327.762C256.143 331.81 241.957 331.225 226.834 327.762L111.053 299.305C93.4178 294.457 88.032 289.97 83.7486 280.681L55.6736 219.024C51.1916 199.973 65.8758 189.407 96.8213 185.481L227.165 170.461C244.977 168.536 256.606 168.49 273.985 170.461L414.639 185.481C438.16 189.177 449.826 199.775 442.027 219.024L416.319 280.028C412.407 288.673 405.102 294.058 385.496 299.305V299.305ZM250.737 176.441C243.989 176.447 237.094 176.906 228.719 177.802C228.613 177.817 228.507 177.832 228.399 177.844L98.5753 192.804C98.4385 192.826 98.3004 192.847 98.161 192.864C84.5268 194.594 74.7442 197.573 69.1674 201.979C64.6767 205.527 63.0105 210.495 64.3938 217.043L92.0072 277.686C92.066 277.798 92.1221 277.911 92.175 278.026C93.7946 281.538 95.5147 284.066 98.2465 285.997C101.343 288.187 106.029 290.061 113.38 292.106C113.451 292.122 113.521 292.138 113.592 292.155L229.372 320.613L229.371 320.615C236.183 322.167 242.718 323.073 249.155 323.137C255.405 323.2 261.681 322.468 268.179 320.759C268.436 320.682 268.698 320.613 268.968 320.554C288.349 316.285 307.006 311.364 325.663 306.443C344.816 301.391 363.968 296.339 383.069 292.127C391.649 289.814 397.398 287.571 401.257 285.075C404.481 282.99 406.422 280.593 407.797 277.639C407.805 277.618 407.813 277.597 407.822 277.576L433.53 216.573H433.53C434.144 215.046 434.608 213.589 434.926 212.2C436.002 207.512 435.31 203.871 433.125 201.179C430.775 198.283 426.509 196.05 420.67 194.429C418.363 193.789 415.806 193.251 413.019 192.811L273.239 177.885C273.089 177.874 272.938 177.861 272.786 177.844C264.445 176.898 257.561 176.436 250.737 176.441H250.737Z" fill="#ADAA9D"/>
<path fill-rule="evenodd" clip-rule="evenodd" d="M436.309 213.289C437.789 212.714 438.891 211.839 440.204 211.283C441.663 217.309 437.515 224.767 432.752 233.019L429.23 233.441C431.494 226.62 435.495 221.411 436.309 213.289V213.289Z" fill="#646359"/>
<path fill-rule="evenodd" clip-rule="evenodd" d="M90.177 197.042C83.5842 201.25 76.6555 207.007 82.0423 217.765L107.307 278.937C108.945 282.807 111.888 286.007 118.21 287.471L146.492 296.714L108.096 287.567C101.825 285.685 97.8241 282.676 95.5894 278.789L68.2279 217.893C63.7997 205.007 73.8948 198.264 90.177 197.042V197.042Z" fill="#646359" stroke="#2B2A29" stroke-width="0.199972" stroke-miterlimit="22.9256"/>
<path fill-rule="evenodd" clip-rule="evenodd" d="M62.0665 213.337C60.5862 212.762 59.4845 211.887 58.1718 211.332C56.7129 217.357 60.8603 224.816 65.6239 233.067L69.1451 233.49C66.8813 226.668 62.8809 221.459 62.0665 213.337V213.337Z" fill="#646359"/>
<path fill-rule="evenodd" clip-rule="evenodd" d="M408.588 194.74C415.181 198.948 422.11 204.705 416.723 215.463L391.458 276.635C389.82 280.506 386.878 283.705 380.555 285.17L352.273 294.413L390.669 285.265C396.94 283.383 400.941 280.374 403.176 276.488L430.537 215.592C434.966 202.706 424.871 195.962 408.588 194.74V194.74Z" fill="#646359"/>
<path fill-rule="evenodd" clip-rule="evenodd" d="M54.2859 233.596L443.526 233.599C451.094 233.599 453.046 237.567 451.517 240.864L435.32 275.771C434.547 277.436 432.908 279.214 430.753 279.214H70.0939C66.0994 279.214 64.0551 277.217 63.3018 275.543L47.366 240.144C45.77 236.599 49.6349 233.596 54.2859 233.596V233.596Z" fill="#FAFAFA" stroke="#2B2A29" stroke-width="5.29172" stroke-miterlimit="22.9256" stroke-linejoin="round"/>
<path d="M107.563 240.82V245.202H102.655L113.451 267.361H117.22V271.75H101.32V267.361H105.07L103.375 263.873H93.525L91.8298 267.361H95.5801V271.75H81.7344V267.361H85.4847L96.3284 245.202H90.8921V240.82H107.563H107.563ZM101.187 259.483L98.4687 253.84L95.6943 259.483H101.187ZM146.664 240.82V245.202H110.906V240.82H146.664ZM142.829 266.632C142.829 270.042 140.651 271.75 136.285 271.75H126.521C124.295 271.75 122.59 271.28 121.397 270.347C120.204 269.415 119.607 268.176 119.607 266.632V252.366H116.946V248.463H127.628V267.298C127.628 268.137 128.159 268.56 129.21 268.56H133.339C134.324 268.56 134.816 268.145 134.816 267.322V252.366H132.146V248.462H142.828V266.632L142.829 266.632ZM171.496 240.82V245.202H160.539V240.82H171.496ZM168.551 252.366H157.177L157.205 266.146C157.205 266.977 157.726 267.385 158.758 267.385H159.175C160.084 267.385 160.539 266.953 160.539 266.076V263.755H168.551V267.001C168.551 268.466 167.926 269.626 166.666 270.473C165.406 271.327 163.702 271.75 161.533 271.75H155.851C151.409 271.75 149.184 270.042 149.184 266.632V252.366H146.522V248.463H149.108V240.82H157.205V248.463H168.551V252.366V252.366ZM197.549 240.82V245.202H170.966V240.82H197.549ZM194.187 253.589V267.001C194.187 268.466 193.553 269.626 192.274 270.473C190.996 271.327 189.291 271.751 187.141 271.751H177.68C175.483 271.751 173.797 271.265 172.633 270.3C171.525 269.415 170.966 268.192 170.966 266.632V253.268C170.966 251.653 171.685 250.422 173.134 249.568C174.366 248.831 175.937 248.463 177.851 248.463H187.472C191.952 248.463 194.187 250.171 194.187 253.589L194.187 253.589ZM186.147 267.251V253.033C186.147 252.131 185.702 251.677 184.811 251.677L180.455 251.7C179.489 251.7 179.015 252.163 179.015 253.08V267.298C179.015 268.137 179.527 268.56 180.569 268.56H184.698C185.663 268.56 186.147 268.122 186.147 267.251L186.147 267.251ZM223.489 240.82V245.202H197.133V240.82H223.489ZM220.326 255.972H212.333V252.985C212.333 252.1 211.869 251.653 210.922 251.653H206.736C205.694 251.653 205.182 252.076 205.182 252.922V255.078C205.182 256.184 205.846 256.858 207.181 257.101L215.61 258.684C218.754 259.264 220.326 260.824 220.326 263.371V266.632C220.326 270.042 217.986 271.75 213.309 271.75H204.207C201.991 271.75 200.258 271.319 199.008 270.465C197.758 269.611 197.133 268.435 197.133 266.953V264.265H205.182V267.157C205.182 268.059 205.647 268.513 206.594 268.513H210.761C211.793 268.513 212.314 268.09 212.314 267.251V265.527C212.314 264.147 211.67 263.34 210.391 263.097L201.404 261.396C198.554 260.855 197.133 259.334 197.133 256.826V253.589C197.133 252.022 197.692 250.791 198.8 249.889C199.983 248.941 201.678 248.463 203.876 248.463H213.309C215.477 248.463 217.182 248.886 218.442 249.725C219.701 250.571 220.326 251.732 220.326 253.221V255.972H220.326ZM267.905 271.75H257.336V261.184C257.336 259.672 256.371 258.911 254.448 258.911L249.258 258.888V267.361H254.703V271.75H235.554V267.361H240.991V245.202H235.554V240.82H258.72C263.199 240.82 265.434 242.521 265.434 245.939V252.602C265.434 255.706 264.231 257.422 261.826 257.744V257.877C264.25 257.877 265.463 259.084 265.463 261.482V267.361H267.905V271.75V271.75ZM257.195 251.888V246.535C257.195 245.649 256.664 245.202 255.585 245.202H249.258V254.459H254.533C256.304 254.459 257.195 253.605 257.195 251.888ZM296.071 240.82V245.202H269.317V240.82H296.071ZM293.012 271.751H275.426C273.484 271.751 271.959 271.257 270.851 270.277C269.828 269.391 269.317 268.27 269.317 266.906V261.851C269.317 259.17 271.296 257.837 275.255 257.837L282.916 257.861V252.829C282.916 252.076 282.528 251.7 281.752 251.7H278.702C277.812 251.7 277.367 252.045 277.367 252.735V255.972H269.317V253.056C269.317 249.999 271.6 248.463 276.145 248.463H284.886C288.921 248.463 290.938 250.039 290.938 253.197V267.361H293.012V271.751H293.012ZM282.916 268.56V260.408H278.92C277.887 260.408 277.367 260.793 277.367 261.553V267.181C277.367 268.098 277.916 268.56 279.005 268.56H282.916V268.56ZM306.006 240.82V245.202H295.683V240.82H306.006ZM321.234 271.751H302.398C300.2 271.751 298.514 271.265 297.35 270.3C296.242 269.415 295.683 268.192 295.683 266.632V253.268C295.683 251.653 296.402 250.422 297.851 249.568C299.083 248.831 300.655 248.463 302.568 248.463H310.883V245.202H308.581V240.82H318.904V267.361H321.234V271.751L321.234 271.751ZM311.745 253.033C311.745 252.131 311.29 251.677 310.39 251.677L306.034 251.7C305.068 251.7 304.585 252.163 304.585 253.08V267.298C304.585 268.137 305.106 268.56 306.138 268.56H310.277C311.262 268.56 311.745 268.145 311.745 267.322V253.033V253.033ZM349.845 240.82V245.202H323.46V240.82H349.845ZM346.681 261.921H331.51V267.298C331.51 268.137 332.021 268.561 333.063 268.561H337.192C338.158 268.561 338.641 268.122 338.641 267.251V264.124H346.681V267.001C346.681 268.466 346.047 269.626 344.769 270.473C343.49 271.327 341.785 271.751 339.636 271.751H330.175C327.977 271.751 326.291 271.265 325.127 270.3C324.019 269.415 323.46 268.192 323.46 266.632V253.268C323.46 251.653 324.179 250.422 325.628 249.568C326.86 248.831 328.432 248.463 330.345 248.463H339.967C344.447 248.463 346.681 250.109 346.681 253.401V261.921V261.921ZM338.641 259.28V253.033C338.641 252.131 338.196 251.677 337.306 251.677L332.949 251.7C331.983 251.7 331.51 252.163 331.51 253.08V259.28H338.641H338.641ZM391.098 240.82V245.202H349.428V240.82H391.098ZM387.499 271.751H379.364V253.589C379.364 253.283 379.336 253.088 379.279 253.001C379.222 252.915 379.108 252.876 378.919 252.876C378.408 252.876 377.441 253.37 376.04 254.365C375.017 255.086 374.222 255.831 373.653 256.591L373.682 271.751H365.547V253.589C365.547 253.283 365.518 253.088 365.461 253.001C365.414 252.915 365.291 252.876 365.102 252.876C364.59 252.876 363.624 253.37 362.222 254.365C361.199 255.086 360.414 255.831 359.864 256.591V267.361H362.44V271.751H349.428V267.361H352.089V252.366H349.428V248.463H359.864V251.771C360.679 251.05 361.844 250.36 363.359 249.686C365.243 248.855 366.986 248.439 368.577 248.439C371.589 248.439 373.284 249.553 373.653 251.771C374.487 251.049 375.651 250.36 377.148 249.686C379.051 248.855 380.804 248.439 382.385 248.439C383.957 248.439 385.207 248.792 386.126 249.49C387.035 250.187 387.499 251.112 387.499 252.28V271.75L387.499 271.751ZM417.266 240.82V245.202H390.511V240.82H417.266ZM414.207 271.751H396.62C394.678 271.751 393.153 271.257 392.045 270.277C391.023 269.392 390.511 268.271 390.511 266.906V261.851C390.511 259.17 392.49 257.838 396.449 257.838L404.111 257.861V252.829C404.111 252.076 403.723 251.7 402.946 251.7H399.897C399.007 251.7 398.561 252.045 398.561 252.735V255.972H390.511V253.056C390.511 249.999 392.794 248.463 397.339 248.463H406.08C410.115 248.463 412.132 250.039 412.132 253.197V267.361H414.207V271.751H414.207ZM404.11 268.561V260.408H400.115C399.082 260.408 398.561 260.793 398.561 261.553V267.181C398.561 268.098 399.11 268.561 400.2 268.561H404.11V268.561Z" fill="#2B2A29"/>
<path fill-rule="evenodd" clip-rule="evenodd" d="M225.635 204.42L220.781 209.283L328.378 209.289L335.445 206.127C299.362 199.624 255.059 186.704 225.635 204.42H225.635Z" fill="url(#paint0_linear_2535_107)" fill-opacity="0.4"/>
<path fill-rule="evenodd" clip-rule="evenodd" d="M110.742 228.843L161.527 226.628L180.38 221.357L158.808 218.906C143.598 218.533 122.679 222.934 110.742 228.843V228.843Z" fill="url(#paint1_linear_2535_107)" fill-opacity="0.4" stroke="#2B2A29" stroke-width="0.199972" stroke-miterlimit="22.9256"/>
<path fill-rule="evenodd" clip-rule="evenodd" d="M127.245 217.943C138.188 215.223 149.771 213.475 161.738 212.31C175.331 211.076 187.048 211.299 198.245 211.622C216.814 200.72 235.837 192.742 255.388 188.176C274.015 185.223 305.468 190.479 329.711 195.299C352.358 199.802 367.412 199.017 389.783 197.311C386.383 202.125 382.278 206.414 376.913 209.765C383.184 214.698 386.82 219.529 390.145 224.3C382.105 220.12 374.511 217.057 365.49 216.129C352.466 214.706 338.901 215.565 324.976 217.879C302.197 221.516 287.022 222.707 276.712 221.678C305.015 219.393 328.108 213.723 345.137 205.5L287.332 195.582C277.396 194.42 268.877 194.012 261.169 194.078C255.91 194.102 250.578 194.715 245.171 195.969C230.559 199.347 219.772 205.321 207.239 211.708L221.397 212.2L223.837 210.511C220.469 209.173 221.43 207.35 226.209 205.099L232.23 203.162C239.857 201.823 243.189 204.766 239.317 209.45C239.014 210.166 234.85 210.571 228.435 210.794L225.793 212.627C253.059 214.422 278.428 214.149 303.142 213.18C298.867 216.06 284.917 217.554 256.572 218.173C233.727 218.449 210.541 217.453 187.177 215.794L196.598 221.122C190.119 219.182 183.57 218.547 176.857 217.963C167.962 217.189 158.827 216.904 149.658 217.716C137.139 218.349 123.192 221.863 107.77 228.57C110.649 225.204 115.653 221.734 127.245 217.943V217.943Z" fill="#C8C6C5"/>
</g>
</g>
<defs>
<filter id="filter0_d_2535_107" x="40.3555" y="167" width="418.289" height="169.583" filterUnits="userSpaceOnUse" color-interpolation-filters="sRGB">
<feFlood flood-opacity="0" result="BackgroundImageFix"/>
<feColorMatrix in="SourceAlpha" type="matrix" values="0 0 0 0 0 0 0 0 0 0 0 0 0 0 0 0 0 0 127 0" result="hardAlpha"/>
<feOffset dy="2"/>
<feGaussianBlur stdDeviation="2"/>
<feComposite in2="hardAlpha" operator="out"/>
<feColorMatrix type="matrix" values="0 0 0 0 0 0 0 0 0 0 0 0 0 0 0 0 0 0 0.54 0"/>
<feBlend mode="normal" in2="BackgroundImageFix" result="effect1_dropShadow_2535_107"/>
<feBlend mode="normal" in="SourceGraphic" in2="effect1_dropShadow_2535_107" result="shape"/>
</filter>
<linearGradient id="paint0_linear_2535_107" x1="278.113" y1="195.46" x2="278.113" y2="209.289" gradientUnits="userSpaceOnUse">
<stop stop-color="#C8C6C5"/>
<stop offset="1" stop-color="#C8C6C5" stop-opacity="0"/>
</linearGradient>
<linearGradient id="paint1_linear_2535_107" x1="145.561" y1="218.884" x2="146.154" y2="225.603" gradientUnits="userSpaceOnUse">
<stop stop-color="#C8C6C5"/>
<stop offset="1" stop-color="#C8C6C5" stop-opacity="0"/>
</linearGradient>
</defs>
</svg>
