<svg width="500" height="500" viewBox="0 0 500 500" fill="none" xmlns="http://www.w3.org/2000/svg">
<g style="mix-blend-mode:luminosity">
<g filter="url(#filter0_d_2535_107)">
<path d="M47 189H452V304.202H350.561V293.761H437.617V199.441H60.6262V293.761H149.196V304.202H47V189Z" fill="white"/>
<path d="M112.036 215.321V252.192C112.036 258.317 110.119 263.162 106.287 266.724C102.48 270.287 97.268 272.069 90.6507 272.069C84.1355 272.069 78.9617 270.338 75.1293 266.878C71.2968 263.418 69.3423 258.663 69.2656 252.615V215.321H80.763V252.268C80.763 255.934 81.6316 258.612 83.369 260.304C85.1319 261.97 87.5592 262.803 90.6507 262.803C97.1147 262.803 100.398 259.394 100.5 252.576V215.321H112.036Z" fill="white"/>
<path d="M166.84 271.3H155.342L132.961 234.468V271.3H121.463V215.321H132.961L155.381 252.23V215.321H166.84V271.3Z" fill="white"/>
<path d="M189.106 271.3H177.609V215.321H189.106V271.3Z" fill="white"/>
<path d="M240.652 224.664H223.56V271.3H212.062V224.664H195.2V215.321H240.652V224.664Z" fill="white"/>
<path d="M267.096 240.542L278.708 215.321H291.279L272.96 251V271.3H261.271V251L242.952 215.321H255.561L267.096 240.542Z" fill="white"/>
<path d="M330.945 215.321L345.278 255.921L359.535 215.321H374.634V271.3H363.099V255.998L364.249 229.585L349.187 271.3H341.292L326.269 229.623L327.419 255.998V271.3H315.921V215.321H330.945Z" fill="white"/>
<path d="M426.909 215.321V252.192C426.909 258.317 424.993 263.162 421.16 266.724C417.353 270.287 412.141 272.069 405.524 272.069C399.009 272.069 393.835 270.338 390.003 266.878C386.17 263.418 384.216 258.663 384.139 252.615V215.321H395.636V252.268C395.636 255.934 396.505 258.612 398.242 260.304C400.005 261.97 402.432 262.803 405.524 262.803C411.988 262.803 415.271 259.394 415.373 252.576V215.321H426.909Z" fill="white"/>
<path d="M176.325 303.077C176.325 301.94 175.897 301.063 175.041 300.447C174.197 299.831 172.667 299.21 170.45 298.582C168.234 297.954 166.471 297.255 165.161 296.485C162.655 295.005 161.402 293.074 161.402 290.693C161.402 288.608 162.302 286.891 164.103 285.541C165.916 284.19 168.265 283.515 171.149 283.515C173.064 283.515 174.77 283.847 176.269 284.51C177.767 285.173 178.945 286.121 179.801 287.353C180.658 288.573 181.086 289.929 181.086 291.422H176.325C176.325 290.071 175.872 289.017 174.965 288.259C174.071 287.489 172.786 287.104 171.111 287.104C169.55 287.104 168.334 287.418 167.466 288.046C166.609 288.674 166.181 289.55 166.181 290.675C166.181 291.623 166.647 292.416 167.579 293.056C168.511 293.684 170.047 294.3 172.188 294.904C174.329 295.496 176.048 296.177 177.345 296.947C178.643 297.705 179.593 298.582 180.198 299.577C180.802 300.56 181.105 301.715 181.105 303.041C181.105 305.197 180.223 306.915 178.46 308.194C176.709 309.461 174.329 310.095 171.319 310.095C169.329 310.095 167.497 309.751 165.822 309.064C164.16 308.366 162.862 307.406 161.93 306.186C161.011 304.966 160.551 303.545 160.551 301.922H165.331C165.331 303.391 165.847 304.528 166.88 305.333C167.913 306.139 169.392 306.542 171.319 306.542C172.982 306.542 174.228 306.228 175.06 305.6C175.903 304.96 176.325 304.119 176.325 303.077Z" fill="white"/>
<path d="M201.375 298.191H190.078V306.151H203.283V309.74H185.299V283.87H203.15V287.495H190.078V294.637H201.375V298.191Z" fill="white"/>
<path d="M222.57 303.717H211.916L209.687 309.74H204.718L215.108 283.87H219.397L229.806 309.74H224.818L222.57 303.717ZM213.257 300.092H221.229L217.243 289.361L213.257 300.092Z" fill="white"/>
<path d="M247.317 303.077C247.317 301.94 246.889 301.063 246.033 300.447C245.189 299.831 243.659 299.21 241.442 298.582C239.226 297.954 237.463 297.255 236.153 296.485C233.647 295.005 232.394 293.074 232.394 290.693C232.394 288.608 233.294 286.891 235.095 285.541C236.909 284.19 239.257 283.515 242.141 283.515C244.056 283.515 245.762 283.847 247.261 284.51C248.759 285.173 249.937 286.121 250.793 287.353C251.65 288.573 252.078 289.929 252.078 291.422H247.317C247.317 290.071 246.864 289.017 245.957 288.259C245.063 287.489 243.779 287.104 242.104 287.104C240.542 287.104 239.327 287.418 238.458 288.046C237.601 288.674 237.173 289.55 237.173 290.675C237.173 291.623 237.639 292.416 238.571 293.056C239.503 293.684 241.039 294.3 243.18 294.904C245.321 295.496 247.04 296.177 248.338 296.947C249.635 297.705 250.586 298.582 251.19 299.577C251.795 300.56 252.097 301.715 252.097 303.041C252.097 305.197 251.215 306.915 249.452 308.194C247.702 309.461 245.321 310.095 242.311 310.095C240.322 310.095 238.489 309.751 236.814 309.064C235.152 308.366 233.855 307.406 232.923 306.186C232.003 304.966 231.544 303.545 231.544 301.922H236.323C236.323 303.391 236.839 304.528 237.872 305.333C238.905 306.139 240.384 306.542 242.311 306.542C243.974 306.542 245.221 306.228 246.052 305.6C246.896 304.96 247.317 304.119 247.317 303.077Z" fill="white"/>
<path d="M278.242 297.48C278.242 300.015 277.776 302.242 276.844 304.161C275.912 306.068 274.577 307.537 272.839 308.567C271.114 309.586 269.124 310.095 266.87 310.095C264.64 310.095 262.651 309.586 260.9 308.567C259.162 307.537 257.815 306.074 256.857 304.178C255.913 302.283 255.434 300.098 255.422 297.622V296.165C255.422 293.642 255.894 291.416 256.838 289.485C257.796 287.554 259.137 286.079 260.862 285.061C262.6 284.03 264.59 283.515 266.832 283.515C269.073 283.515 271.057 284.024 272.782 285.043C274.52 286.05 275.862 287.507 276.806 289.414C277.751 291.309 278.229 293.518 278.242 296.041V297.48ZM273.462 296.13C273.462 293.263 272.883 291.066 271.725 289.538C270.578 288.01 268.948 287.246 266.832 287.246C264.766 287.246 263.148 288.01 261.977 289.538C260.818 291.054 260.226 293.204 260.201 295.988V297.48C260.201 300.323 260.787 302.52 261.958 304.072C263.142 305.624 264.779 306.399 266.87 306.399C268.985 306.399 270.61 305.641 271.743 304.125C272.889 302.609 273.462 300.394 273.462 297.48V296.13Z" fill="white"/>
<path d="M304.821 309.74H300.042L287.782 291.386V309.74H283.002V283.87H287.782L300.08 302.295V283.87H304.821V309.74Z" fill="white"/>
<path d="M333.649 283.746V287.317H333.082C330.513 287.353 328.46 288.016 326.924 289.307C325.387 290.598 324.474 292.428 324.185 294.797C325.658 293.34 327.541 292.612 329.833 292.612C332.264 292.612 334.178 293.417 335.576 295.028C336.986 296.639 337.692 298.718 337.692 301.265C337.692 303.894 336.867 306.026 335.217 307.661C333.58 309.284 331.426 310.095 328.756 310.095C326.011 310.095 323.782 309.141 322.069 307.234C320.369 305.327 319.519 302.828 319.519 299.737V298.262C319.519 293.725 320.69 290.172 323.032 287.602C325.387 285.031 328.769 283.746 333.177 283.746H333.649ZM328.718 296.094C327.711 296.094 326.785 296.361 325.941 296.894C325.11 297.427 324.499 298.138 324.109 299.026V300.341C324.109 302.26 324.537 303.788 325.394 304.925C326.25 306.05 327.358 306.613 328.718 306.613C330.079 306.613 331.155 306.133 331.949 305.173C332.742 304.214 333.139 302.953 333.139 301.389C333.139 299.825 332.736 298.552 331.93 297.569C331.124 296.586 330.053 296.094 328.718 296.094Z" fill="white"/>
</g>
</g>
<defs>
<filter id="filter0_d_2535_107" x="37" y="179" width="425" height="141.095" filterUnits="userSpaceOnUse" color-interpolation-filters="sRGB">
<feFlood flood-opacity="0" result="BackgroundImageFix"/>
<feColorMatrix in="SourceAlpha" type="matrix" values="0 0 0 0 0 0 0 0 0 0 0 0 0 0 0 0 0 0 127 0" result="hardAlpha"/>
<feOffset/>
<feGaussianBlur stdDeviation="5"/>
<feColorMatrix type="matrix" values="0 0 0 0 0 0 0 0 0 0 0 0 0 0 0 0 0 0 0.8 0"/>
<feBlend mode="normal" in2="BackgroundImageFix" result="effect1_dropShadow_2535_107"/>
<feBlend mode="normal" in="SourceGraphic" in2="effect1_dropShadow_2535_107" result="shape"/>
</filter>
</defs>
</svg>
