<svg width="500" height="500" viewBox="0 0 500 500" fill="none" xmlns="http://www.w3.org/2000/svg">
<g style="mix-blend-mode:luminosity">
<g filter="url(#filter0_d_2535_107)">
<path d="M114.676 286.372L125.082 254.14C125.234 253.667 125.569 253.238 126.091 252.862C126.614 252.485 127.166 252.292 127.743 252.292C129.876 252.292 133.951 252.248 139.973 252.143C145.986 252.038 150.543 251.986 153.636 251.986C158.763 251.986 162.61 252.862 165.178 254.605C167.746 256.348 168.566 258.66 167.638 261.533C167.129 263.109 166.239 264.563 164.968 265.894C163.703 267.234 162.181 268.373 160.422 269.337C161.852 270.361 162.812 271.631 163.319 273.155C163.815 274.679 163.777 276.343 163.188 278.165C162.185 281.274 159.722 283.779 155.801 285.68C151.88 287.581 147.23 288.527 141.839 288.527C138.209 288.527 133.578 288.474 127.933 288.378C122.282 288.273 118.356 288.22 116.144 288.22C115.684 288.22 115.284 288.036 114.945 287.659C114.607 287.283 114.521 286.853 114.676 286.372ZM137.207 265.228H148.734C149.38 265.228 150.004 265.053 150.594 264.712C151.183 264.37 151.551 263.959 151.704 263.485C151.882 262.934 151.78 262.461 151.394 262.049C151.009 261.638 150.48 261.427 149.785 261.427C148.258 261.427 146.023 261.471 143.098 261.559C140.164 261.646 138.584 261.69 138.349 261.69L137.207 265.228ZM133.065 278.06C133.26 278.06 134.822 278.104 137.761 278.182C140.688 278.27 142.983 278.314 144.627 278.314C145.312 278.314 145.951 278.121 146.558 277.727C147.165 277.333 147.562 276.86 147.737 276.317C147.904 275.8 147.814 275.353 147.475 274.977C147.137 274.6 146.668 274.416 146.052 274.416H134.241L133.065 278.06Z" fill="white"/>
<path d="M322.714 283.674C318.995 280.311 318.043 275.836 319.844 270.256C321.645 264.677 325.465 260.21 331.29 256.838C337.114 253.466 343.988 251.785 351.895 251.785C354.693 251.785 357.387 252.047 359.984 252.582C362.583 253.107 364.393 253.747 365.412 254.5C366.336 255.183 366.62 256.094 366.255 257.224L363.67 265.229C363.526 265.676 363.28 265.982 362.943 266.149C362.603 266.324 362.248 266.271 361.876 266C360.689 265.036 358.994 264.257 356.787 263.635C354.578 263.022 352.094 262.715 349.344 262.715C346.213 262.715 343.423 263.355 340.982 264.642C338.544 265.921 336.921 267.795 336.127 270.256C335.332 272.718 335.735 274.592 337.325 275.879C338.918 277.158 341.305 277.797 344.475 277.797C347.225 277.797 349.927 277.491 352.571 276.878C355.215 276.265 357.403 275.459 359.141 274.469C359.485 274.224 359.822 274.18 360.152 274.338C360.483 274.496 360.577 274.811 360.424 275.284L357.84 283.289C357.441 284.524 356.564 285.453 355.221 286.066C353.649 286.784 351.462 287.406 348.657 287.94C345.845 288.466 343.047 288.737 340.259 288.737C332.264 288.737 326.42 287.046 322.714 283.674Z" fill="white"/>
<path d="M191.941 286.825L212.347 260.837C212.602 260.508 213.017 260.192 213.568 259.891C214.119 259.618 214.618 259.478 215.08 259.478H226.086C226.485 259.478 226.87 259.618 227.236 259.891C227.641 260.164 227.86 260.479 227.894 260.837L231.232 286.867C231.252 287 231.233 287.154 231.181 287.316C231.093 287.589 230.914 287.806 230.648 287.974C230.384 288.135 230.076 288.219 229.739 288.219H220.251C219.852 288.219 219.467 288.079 219.101 287.806C218.727 287.533 218.528 287.203 218.494 286.825L218.272 283.125H207.03L204.372 286.825C204.15 287.126 203.761 287.435 203.197 287.75C202.641 288.065 202.145 288.219 201.715 288.219H192.501C192.133 288.219 191.886 288.135 191.75 287.974C191.609 287.757 191.572 287.533 191.642 287.316C191.685 287.182 191.786 287.014 191.941 286.825ZM211.937 276.315H217.902L217.433 268.677L211.937 276.315ZM166.738 286.741L175.063 260.956C175.194 260.55 175.464 260.199 175.877 259.912C176.291 259.625 176.73 259.478 177.192 259.478H186.914C187.368 259.478 187.712 259.625 187.94 259.912C188.168 260.199 188.22 260.55 188.089 260.956L182.124 279.433H186.523L194.111 279.23C194.417 279.23 194.643 279.328 194.795 279.538C194.94 279.741 194.978 279.966 194.898 280.211C194.862 280.323 194.795 280.435 194.698 280.54L189.814 286.867C189.092 287.771 188.18 288.219 187.084 288.219H167.913C167.451 288.219 167.107 288.072 166.879 287.785C166.651 287.498 166.605 287.154 166.738 286.741Z" fill="white"/>
<path d="M239.108 284.584C236.133 281.893 235.371 278.313 236.812 273.85C238.253 269.386 241.309 265.813 245.968 263.115C250.628 260.418 256.127 259.072 262.452 259.072C264.691 259.072 266.847 259.282 268.924 259.71C271.003 260.13 272.451 260.642 273.266 261.244C274.006 261.791 274.232 262.52 273.94 263.423L271.873 269.828C271.758 270.185 271.561 270.43 271.291 270.563C271.019 270.703 270.735 270.661 270.437 270.444C269.488 269.673 268.132 269.05 266.367 268.552C264.599 268.062 262.612 267.817 260.412 267.817C257.907 267.817 255.675 268.328 253.722 269.358C251.772 270.381 250.473 271.88 249.838 273.849C249.202 275.818 249.524 277.318 250.797 278.348C252.071 279.371 253.98 279.882 256.517 279.882C258.716 279.882 260.878 279.637 262.993 279.147C265.108 278.656 266.859 278.011 268.249 277.22C268.524 277.024 268.794 276.988 269.058 277.114C269.323 277.241 269.398 277.493 269.276 277.871L267.208 284.276C266.89 285.263 266.188 286.006 265.114 286.497C263.856 287.071 262.106 287.569 259.862 287.996C257.613 288.417 255.374 288.634 253.143 288.634C246.748 288.634 242.073 287.282 239.108 284.584Z" fill="white"/>
<path d="M272.701 286.741L281.025 260.956C281.148 260.578 281.415 260.234 281.833 259.933C282.252 259.632 282.693 259.478 283.155 259.478H292.877C293.276 259.478 293.594 259.632 293.849 259.933C294.104 260.234 294.174 260.578 294.051 260.956L291.321 269.413H293.2L301.164 260.795C301.964 259.919 302.92 259.478 304.024 259.478H316.087C316.51 259.478 316.748 259.59 316.803 259.807C316.88 260.052 316.729 260.325 316.358 260.627L301.109 273.477L308.289 287.028C308.406 287.246 308.425 287.456 308.364 287.645C308.239 288.03 307.873 288.22 307.262 288.22H294.463C293.399 288.22 292.727 287.778 292.462 286.902L289.948 278.2H288.485L285.727 286.741C285.612 287.099 285.331 287.435 284.893 287.75C284.454 288.065 284.021 288.22 283.598 288.22H273.876C273.476 288.22 273.148 288.072 272.889 287.785C272.629 287.498 272.567 287.155 272.701 286.741Z" fill="white"/>
<path d="M362.822 286.825L383.228 260.837C383.483 260.508 383.898 260.192 384.449 259.891C384.999 259.618 385.499 259.478 385.96 259.478H396.967C397.366 259.478 397.751 259.618 398.117 259.891C398.522 260.164 398.741 260.479 398.775 260.837L402.113 286.867C402.133 287 402.114 287.154 402.062 287.316C401.974 287.589 401.794 287.806 401.529 287.974C401.265 288.135 400.956 288.219 400.62 288.219H391.132C390.733 288.219 390.348 288.079 389.982 287.806C389.608 287.533 389.409 287.203 389.375 286.825L389.152 283.125H377.911L375.253 286.825C375.03 287.126 374.641 287.435 374.078 287.75C373.522 288.065 373.026 288.219 372.595 288.219H363.382C363.014 288.219 362.767 288.135 362.631 287.974C362.49 287.757 362.453 287.533 362.523 287.316C362.566 287.182 362.667 287.014 362.822 286.825ZM382.818 276.315H388.783L388.314 268.677L382.818 276.315Z" fill="white"/>
<path d="M408.305 286.743L416.629 260.958C416.751 260.579 417.019 260.236 417.437 259.935C417.855 259.633 418.296 259.479 418.758 259.479C420.496 259.479 423.443 259.444 427.603 259.36C431.756 259.276 435.315 259.234 438.282 259.234C442.807 259.234 446.295 260.166 448.754 262.03C451.215 263.886 452 266.185 451.115 268.924C450.461 270.949 448.989 272.771 446.691 274.383C444.4 276.001 441.74 277.136 438.709 277.795L444.2 287.072C444.385 287.345 444.388 287.605 444.199 287.85C444.018 288.095 443.695 288.221 443.234 288.221H429.566C429.135 288.221 428.732 288.088 428.338 287.829C427.952 287.57 427.727 287.247 427.662 286.869L426.092 278.369H423.846L421.143 286.743C421.027 287.1 420.754 287.436 420.316 287.751C419.877 288.067 419.444 288.221 419.013 288.221H409.479C409.08 288.221 408.751 288.074 408.496 287.773C408.241 287.471 408.18 287.128 408.305 286.743ZM426.352 270.606C426.383 270.606 427.617 270.641 430.06 270.711C432.495 270.781 434.316 270.816 435.506 270.816C435.968 270.816 436.397 270.676 436.806 270.403C437.215 270.13 437.486 269.8 437.61 269.415C437.732 269.037 437.669 268.7 437.409 268.413C437.15 268.126 436.759 267.979 436.242 267.979C435.075 267.979 433.295 268.014 430.885 268.084C428.475 268.154 427.227 268.189 427.133 268.189L426.352 270.606Z" fill="white"/>
<path fill-rule="evenodd" clip-rule="evenodd" d="M111.737 287.308L111.748 286.462C103.788 285.97 68.2315 284.631 65.0397 282.126C57.2594 273.842 64.3145 266.594 71.6366 262.943C79.8983 258.823 93.4016 255.688 103.971 253.818C124.111 250.255 143.656 246.972 163.873 246.447C170.175 246.077 173.999 246.152 177.451 243.614C185.541 237.668 184.79 237.906 194.641 232.554C203.806 227.576 215.946 223.98 226.887 221.604C298.912 205.964 364.817 244.557 368.91 245.055C396.597 245.775 424.315 246.829 451.989 247.29L452 246.444C452.027 246.447 412.582 242.539 393.594 241.163C374.518 239.781 382.124 240.99 366.282 234.495C305.243 209.473 235.565 199.808 173.664 234.754C162.149 241.255 163.77 239.325 147.875 240.602C127.486 243.072 60.6807 251.862 49.944 270.294C46.7787 275.728 48.3892 279.967 50.4061 284.594C47.6321 285.687 46.2316 284.771 47.432 288.736C50.5528 288.787 99.6884 287.108 111.737 287.308H111.737Z" fill="#FF6600"/>
</g>
</g>
<defs>
<filter id="filter0_d_2535_107" x="43" y="212" width="413" height="84.7373" filterUnits="userSpaceOnUse" color-interpolation-filters="sRGB">
<feFlood flood-opacity="0" result="BackgroundImageFix"/>
<feColorMatrix in="SourceAlpha" type="matrix" values="0 0 0 0 0 0 0 0 0 0 0 0 0 0 0 0 0 0 127 0" result="hardAlpha"/>
<feOffset dy="4"/>
<feGaussianBlur stdDeviation="2"/>
<feComposite in2="hardAlpha" operator="out"/>
<feColorMatrix type="matrix" values="0 0 0 0 0 0 0 0 0 0 0 0 0 0 0 0 0 0 0.85 0"/>
<feBlend mode="normal" in2="BackgroundImageFix" result="effect1_dropShadow_2535_107"/>
<feBlend mode="normal" in="SourceGraphic" in2="effect1_dropShadow_2535_107" result="shape"/>
</filter>
</defs>
</svg>
