<svg width="366" height="200" viewBox="0 0 366 200" fill="none" xmlns="http://www.w3.org/2000/svg">
<path d="M366 0H0V200H366V0Z" fill="#F12639"/>
<path d="M57.4951 107.522V122H54.4922V86.4531H66.6016C70.2962 86.4531 73.2096 87.3971 75.3418 89.2852C77.4902 91.1732 78.5645 93.7692 78.5645 97.0732C78.5645 100.41 77.5309 102.99 75.4639 104.812C73.4131 106.619 70.4346 107.522 66.5283 107.522H57.4951ZM57.4951 104.983H66.6016C69.515 104.983 71.7367 104.292 73.2666 102.908C74.7965 101.525 75.5615 99.596 75.5615 97.1221C75.5615 94.6644 74.7965 92.7113 73.2666 91.2627C71.7529 89.7979 69.5964 89.0492 66.7969 89.0166H57.4951V104.983ZM98.584 107.205H88.2568V122H85.2295V86.4531H96.7773C100.57 86.4531 103.532 87.3727 105.664 89.2119C107.796 91.0511 108.862 93.6227 108.862 96.9268C108.862 99.2054 108.195 101.215 106.86 102.957C105.526 104.699 103.735 105.903 101.489 106.57L110.376 121.683V122H107.178L98.584 107.205ZM88.2568 104.642H97.4609C99.9837 104.642 102.01 103.925 103.54 102.493C105.07 101.061 105.835 99.2054 105.835 96.9268C105.835 94.4202 105.037 92.4753 103.442 91.0918C101.847 89.7083 99.6094 89.0166 96.7285 89.0166H88.2568V104.642ZM143.311 106.155C143.311 109.427 142.741 112.299 141.602 114.773C140.479 117.247 138.867 119.152 136.768 120.486C134.668 121.821 132.243 122.488 129.492 122.488C125.342 122.488 121.989 121.007 119.434 118.045C116.878 115.066 115.601 111.054 115.601 106.009V102.347C115.601 99.1077 116.17 96.2432 117.31 93.7529C118.465 91.2464 120.093 89.3258 122.192 87.9912C124.292 86.6403 126.709 85.9648 129.443 85.9648C132.178 85.9648 134.587 86.624 136.67 87.9424C138.77 89.2607 140.389 91.1243 141.528 93.5332C142.668 95.9421 143.262 98.7334 143.311 101.907V106.155ZM140.308 102.298C140.308 98.0173 139.339 94.6644 137.402 92.2393C135.465 89.8141 132.812 88.6016 129.443 88.6016C126.139 88.6016 123.503 89.8223 121.533 92.2637C119.58 94.6888 118.604 98.0824 118.604 102.444V106.155C118.604 110.371 119.58 113.715 121.533 116.189C123.486 118.647 126.139 119.876 129.492 119.876C132.894 119.876 135.547 118.663 137.451 116.238C139.355 113.797 140.308 110.403 140.308 106.058V102.298ZM170.508 104.959H153.882V119.461H172.998V122H150.879V86.4531H172.876V89.0166H153.882V102.42H170.508V104.959ZM190.161 101.492L200.171 86.4531H203.76L191.992 103.982L204.126 122H200.513L190.161 106.473L179.761 122H176.196L188.354 103.982L176.562 86.4531H180.151L190.161 101.492ZM216.528 112.405L217.627 117.923L218.97 112.649L226.685 86.4531H229.395L237.012 112.649L238.33 117.972L239.502 112.405L245.923 86.4531H248.999L239.893 122H237.012L228.955 94.1924L228.052 90.6768L227.173 94.1924L218.921 122H216.04L206.958 86.4531H210.034L216.528 112.405ZM274.414 104.959H257.788V119.461H276.904V122H254.785V86.4531H276.782V89.0166H257.788V102.42H274.414V104.959ZM283.252 122V86.4531H293.75C297.559 86.4531 300.448 87.2425 302.417 88.8213C304.386 90.3838 305.371 92.695 305.371 95.7549C305.371 97.5941 304.867 99.1973 303.857 100.564C302.865 101.915 301.497 102.884 299.756 103.47C301.823 103.925 303.483 104.943 304.736 106.521C306.006 108.1 306.641 109.923 306.641 111.99C306.641 115.132 305.623 117.589 303.589 119.363C301.571 121.121 298.755 122 295.142 122H283.252ZM286.255 104.91V119.461H295.264C297.835 119.461 299.87 118.81 301.367 117.508C302.881 116.189 303.638 114.367 303.638 112.039C303.638 109.842 302.913 108.108 301.465 106.839C300.033 105.553 298.047 104.91 295.508 104.91H286.255ZM286.255 102.396H294.458C296.965 102.347 298.901 101.761 300.269 100.638C301.652 99.4984 302.344 97.8464 302.344 95.6816C302.344 93.403 301.628 91.7266 300.195 90.6523C298.779 89.5618 296.631 89.0166 293.75 89.0166H286.255V102.396Z" fill="white"/>
</svg>
